
<svg width="64px" height="44px" viewBox="0 0 64 44" version="1.1" xmlns="http://www.w3.org/2000/svg" xmlns:xlink="http://www.w3.org/1999/xlink">
    <!-- Generator: Sketch 48.2 (47327) - http://www.bohemiancoding.com/sketch -->
    <desc>Created with Sketch.</desc>
    <defs></defs>
    <g id="Settings" stroke="none" stroke-width="1" fill="none" fill-rule="evenodd">
        <g id="Create-modal" transform="translate(-434.000000, -463.000000)">
            <g id="Modal" transform="translate(390.000000, 87.000000)">
                <g id="Summary-icon" transform="translate(44.000000, 376.000000)">
                    <path d="M0,4 L64,4 L64,42 C64,43.1045695 63.1045695,44 62,44 L2,44 C0.8954305,44 1.3527075e-16,43.1045695 0,42 L0,4 Z" id="Rectangle-2" fill="#DEE0E2"></path>
                    <path d="M2,0 L62,0 C63.1045695,-2.02906125e-16 64,0.8954305 64,2 L64,4 L0,4 L0,2 C-1.3527075e-16,0.8954305 0.8954305,2.02906125e-16 2,0 Z" id="Rectangle-2" fill="#6F777B"></path>
                    <rect id="Rectangle-2" fill="#6F777B" x="8" y="9" width="8" height="3"></rect>
                    <rect id="Rectangle-2-Copy-4" fill="#BFC1C3" x="8" y="14" width="31" height="3"></rect>
                    <rect id="Rectangle-2-Copy-7" fill="#6F777B" x="8" y="29" width="13" height="3"></rect>
                    <rect id="Rectangle-2-Copy-5" fill="#BFC1C3" x="8" y="19" width="31" height="3"></rect>
                    <rect id="Rectangle-2-Copy-8" fill="#BFC1C3" x="8" y="34" width="31" height="3"></rect>
                </g>
            </g>
        </g>
    </g>
</svg>
