<svg version="1.1" xmlns="http://www.w3.org/2000/svg" xmlns:xlink="http://www.w3.org/1999/xlink" x="0px" y="0px" viewBox="0 0 20 20" enable-background="new 0 0 1000 1000" xml:space="preserve" width="20" height="20"><metadata>
    Svg Vector Icons : http://www.onlinewebfonts.com/icon
  </metadata><g><path d="M16.854 5.076v-1.932h-9.8v1.932H16.854zM12.944 12.944v-1.978H7.056v1.978H12.944zM16.854 9.034v-1.978h-9.8v1.978H16.854zM17.868 0.2c0.522 0 0.974 0.192 1.358 0.576C19.608 1.16 19.8 1.612 19.8 2.134v11.778c0 0.522 -0.192 0.982 -0.576 1.38c-0.384 0.398 -0.836 0.598 -1.358 0.598H6.09c-0.522 0 -0.982 -0.2 -1.38 -0.598c-0.398 -0.398 -0.598 -0.858 -0.598 -1.38V2.134c0 -0.522 0.2 -0.974 0.598 -1.358s0.858 -0.576 1.38 -0.576H17.868zM2.132 4.11v13.756h13.756V19.8H2.132c-0.522 0 -0.974 -0.192 -1.358 -0.576S0.2 18.388 0.2 17.868V4.11H2.132z"/></g></svg>