<svg version="1.1" xmlns="http://www.w3.org/2000/svg" xmlns:xlink="http://www.w3.org/1999/xlink" x="0px" y="0px" viewBox="0 0 22 22" enable-background="new 0 0 1000 1000" xml:space="preserve" width="22" height="22"><metadata>
    Svg Vector Icons : http://www.onlinewebfonts.com/icon
  </metadata><g><path d="M18.539 5.584v-2.125h-10.78v2.125H18.539zM14.238 14.238v-2.176H7.762v2.176H14.238zM18.539 9.937v-2.176h-10.78v2.176H18.539zM19.655 0.22c0.574 0 1.071 0.211 1.494 0.634C21.569 1.276 21.78 1.773 21.78 2.347v12.956c0 0.574 -0.211 1.08 -0.634 1.518c-0.422 0.438 -0.92 0.658 -1.494 0.658H6.699c-0.574 0 -1.08 -0.22 -1.518 -0.658c-0.438 -0.438 -0.658 -0.944 -0.658 -1.518V2.347c0 -0.574 0.22 -1.071 0.658 -1.494s0.944 -0.634 1.518 -0.634H19.655zM2.345 4.521v15.132h15.132V21.78H2.345c-0.574 0 -1.071 -0.211 -1.494 -0.634S0.22 20.227 0.22 19.655V4.521H2.345z"/></g></svg>