<?xml version="1.0" encoding="UTF-8"?>
<svg width="30px" height="30px" viewBox="0 0 30 30" version="1.1" xmlns="http://www.w3.org/2000/svg" xmlns:xlink="http://www.w3.org/1999/xlink">
    <title>keyboard_black_24dp</title>
    <g id="Skip-to-content" stroke="none" stroke-width="1" fill="none" fill-rule="evenodd">
        <g id="Shortcuts---collapsible-closed" transform="translate(-19.000000, -532.000000)">
            <g id="keyboard_black_24dp" transform="translate(19.000000, 532.000000)">
                <path d="M25.5,6 L5.5,6 C4.125,6 3.0125,7.15714286 3.0125,8.57142857 L3,21.4285714 C3,22.8428571 4.125,24 5.5,24 L25.5,24 C26.875,24 28,22.8428571 28,21.4285714 L28,8.57142857 C28,7.15714286 26.875,6 25.5,6 Z M14.25,9.85714286 L16.75,9.85714286 L16.75,12.4285714 L14.25,12.4285714 L14.25,9.85714286 Z M14.25,13.7142857 L16.75,13.7142857 L16.75,16.2857143 L14.25,16.2857143 L14.25,13.7142857 Z M10.5,9.85714286 L13,9.85714286 L13,12.4285714 L10.5,12.4285714 L10.5,9.85714286 Z M10.5,13.7142857 L13,13.7142857 L13,16.2857143 L10.5,16.2857143 L10.5,13.7142857 Z M9.25,16.2857143 L6.75,16.2857143 L6.75,13.7142857 L9.25,13.7142857 L9.25,16.2857143 Z M9.25,12.4285714 L6.75,12.4285714 L6.75,9.85714286 L9.25,9.85714286 L9.25,12.4285714 Z M20.5,21.4285714 L10.5,21.4285714 L10.5,18.8571429 L20.5,18.8571429 L20.5,21.4285714 Z M20.5,16.2857143 L18,16.2857143 L18,13.7142857 L20.5,13.7142857 L20.5,16.2857143 Z M20.5,12.4285714 L18,12.4285714 L18,9.85714286 L20.5,9.85714286 L20.5,12.4285714 Z M24.25,16.2857143 L21.75,16.2857143 L21.75,13.7142857 L24.25,13.7142857 L24.25,16.2857143 Z M24.25,12.4285714 L21.75,12.4285714 L21.75,9.85714286 L24.25,9.85714286 L24.25,12.4285714 Z" id="Shape" fill="#222222" fill-rule="nonzero"></path>
                <path d="M0,0 L30,0 L30,30 L0,30 L0,0 Z M0,0 L30,0 L30,30 L0,30 L0,0 Z" id="Shape"></path>
            </g>
        </g>
    </g>
</svg>