<?xml version="1.0" encoding="UTF-8"?>
<svg width="17px" height="19px" viewBox="0 0 17 19" version="1.1" xmlns="http://www.w3.org/2000/svg" xmlns:xlink="http://www.w3.org/1999/xlink">
    <!-- Generator: Sketch 64 (93537) - https://sketch.com -->
    <title>Meta Data</title>
    <desc>Created with Sketch.</desc>
    <g id="Sections-Survey" stroke="none" stroke-width="1" fill="none" fill-rule="evenodd">
        <g id="1.2---Content-page" transform="translate(-26.000000, -547.000000)" fill="#888888">
            <g id="Group-10" transform="translate(0.000000, 547.000000)">
                <g id="Page-icon-light" transform="translate(26.000000, 0.000000)">
                    <path d="M8.5,8.15 C11.6746094,8.15 14.8597656,7.58046875 16.6,6.35703125 L16.6,8.15 C16.6,9.63710937 12.971875,10.85 8.5,10.85 C4.028125,10.85 0.4,9.63710937 0.4,8.15 L0.4,6.35703125 C2.14023438,7.58046875 5.32539063,8.15 8.5,8.15 Z M8.5,16.25 C11.6746094,16.25 14.8597656,15.6804687 16.6,14.4570312 L16.6,16.25 C16.6,17.7371094 12.971875,18.95 8.5,18.95 C4.028125,18.95 0.4,17.7371094 0.4,16.25 L0.4,14.4570312 C2.14023438,15.6804687 5.32539063,16.25 8.5,16.25 Z M8.5,12.2 C11.6746094,12.2 14.8597656,11.6304687 16.6,10.4070312 L16.6,12.2 C16.6,13.6871094 12.971875,14.9 8.5,14.9 C4.028125,14.9 0.4,13.6871094 0.4,12.2 L0.4,10.4070312 C2.14023438,11.6304687 5.32539063,12.2 8.5,12.2 Z M8.5,0.05 C12.971875,0.05 16.6,1.26289062 16.6,2.75 L16.6,4.1 C16.6,5.58710938 12.971875,6.8 8.5,6.8 C4.028125,6.8 0.4,5.58710938 0.4,4.1 L0.4,2.75 C0.4,1.26289062 4.028125,0.05 8.5,0.05 Z" id="database---FontAwesome"></path>
                </g>
            </g>
        </g>
    </g>
</svg>