<?xml version="1.0" encoding="UTF-8"?>
<svg width="22px" height="22px" viewBox="0 0 22 22" version="1.1" xmlns="http://www.w3.org/2000/svg" xmlns:xlink="http://www.w3.org/1999/xlink">
    <!-- Generator: Sketch 64 (93537) - https://sketch.com -->
    <title>Q-Codes_Icon</title>
    <desc>Created with Sketch.</desc>
    <g id="Sections-Survey-q-codes" stroke="none" stroke-width="1" fill="none" fill-rule="evenodd">
        <g id="1.2---Content-page" transform="translate(-23.000000, -848.000000)" fill="#888888" fill-rule="nonzero">
            <g id="settings_input_component-24px-(1)" transform="translate(23.000000, 848.000000)">
                <path d="M4,1 C4,0.45 3.55,0 3,0 C2.45,0 2,0.45 2,1 L2,5 L0,5 L0,11 L6,11 L6,5 L4,5 L4,1 Z M8,15 C8,16.3 8.84,17.4 10,17.82 L10,22 L12,22 L12,17.82 C13.16,17.41 14,16.31 14,15 L14,13 L8,13 L8,15 Z M0,15 C0,16.3 0.84,17.4 2,17.82 L2,22 L4,22 L4,17.82 C5.16,17.4 6,16.3 6,15 L6,13 L0,13 L0,15 Z M20,5 L20,1 C20,0.45 19.55,0 19,0 C18.45,0 18,0.45 18,1 L18,5 L16,5 L16,11 L22,11 L22,5 L20,5 Z M12,1 C12,0.45 11.55,0 11,0 C10.45,0 10,0.45 10,1 L10,5 L8,5 L8,11 L14,11 L14,5 L12,5 L12,1 Z M16,15 C16,16.3 16.84,17.4 18,17.82 L18,22 L20,22 L20,17.82 C21.16,17.41 22,16.31 22,15 L22,13 L16,13 L16,15 Z" id="Shape"></path>
            </g>
        </g>
    </g>
</svg>