<?xml version="1.0" encoding="UTF-8"?>
<svg width="22px" height="22px" viewBox="0 0 22 22" version="1.1" xmlns="http://www.w3.org/2000/svg" xmlns:xlink="http://www.w3.org/1999/xlink">
    <!-- Generator: Sketch 64 (93537) - https://sketch.com -->
    <title>v</title>
    <desc>Created with Sketch.</desc>
    <g id="Sections-Survey" stroke="none" stroke-width="1" fill="none" fill-rule="evenodd">
        <g id="1.2---Content-page" transform="translate(-23.000000, -587.000000)" fill="#888888" fill-rule="nonzero">
            <g id="Group-11" transform="translate(23.000000, 587.000000)">
            <path d="M19.8,0 L2.2,0 C0.99,0 0.011,0.99 0.011,2.2 L0,22 L4.4,17.6 L19.8,17.6 C21.01,17.6 22,16.61 22,15.4 L22,2.2 C22,0.99 21.01,0 19.8,0 Z M4.4,13.2 L4.4,10.483 L11.968,2.915 C12.188,2.695 12.529,2.695 12.749,2.915 L14.696,4.862 C14.916,5.082 14.916,5.423 14.696,5.643 L7.117,13.2 L4.4,13.2 Z M17.6,13.2 L9.35,13.2 L11.55,11 L17.6,11 L17.6,13.2 Z" id="Shape"></path>
            </g>
        </g>
    </g>
</svg>