<?xml version="1.0" encoding="UTF-8"?>
<svg width="27px" height="17px" viewBox="0 0 27 17" version="1.1" xmlns="http://www.w3.org/2000/svg" xmlns:xlink="http://www.w3.org/1999/xlink">
    <!-- Generator: Sketch 64 (93537) - https://sketch.com -->
    <title>ic_group</title>
    <desc>Created with Sketch.</desc>
    <defs>
        <path d="M18.3333333,7.29166667 C20.3391667,7.29166667 21.94625,5.6725 21.94625,3.66666667 C21.94625,1.66083333 20.3391667,0.0416666667 18.3333333,0.0416666667 C16.3275,0.0416666667 14.7083333,1.66083333 14.7083333,3.66666667 C14.7083333,5.6725 16.3275,7.29166667 18.3333333,7.29166667 L18.3333333,7.29166667 Z M8.66666667,7.29166667 C10.6725,7.29166667 12.2795833,5.6725 12.2795833,3.66666667 C12.2795833,1.66083333 10.6725,0.0416666667 8.66666667,0.0416666667 C6.66083333,0.0416666667 5.04166667,1.66083333 5.04166667,3.66666667 C5.04166667,5.6725 6.66083333,7.29166667 8.66666667,7.29166667 L8.66666667,7.29166667 Z M8.66666667,9.70833333 C5.85125,9.70833333 0.208333333,11.1220833 0.208333333,13.9375 L0.208333333,16.9583333 L17.125,16.9583333 L17.125,13.9375 C17.125,11.1220833 11.4820833,9.70833333 8.66666667,9.70833333 L8.66666667,9.70833333 Z M18.3333333,9.70833333 C17.9829167,9.70833333 17.5841667,9.7325 17.16125,9.76875 C18.5629167,10.78375 19.5416667,12.1491667 19.5416667,13.9375 L19.5416667,16.9583333 L26.7916667,16.9583333 L26.7916667,13.9375 C26.7916667,11.1220833 21.14875,9.70833333 18.3333333,9.70833333 L18.3333333,9.70833333 Z" id="path-1"></path>
        <rect id="path-3" x="0" y="0" width="60" height="60"></rect>
    </defs>
    <g id="Sections-Survey" stroke="none" stroke-width="1" fill="none" fill-rule="evenodd">
        <g id="1.2---Content-page" transform="translate(-21.000000, -400.000000)">
            <g id="Group-8" transform="translate(0.000000, 400.000000)">
                <g id="ic_group" transform="translate(21.000000, 0.000000)">
                    <mask id="mask-2" fill="white">
                        <use xlink:href="#path-1"></use>
                    </mask>
                    <g id="Mask"></g>
                    <g id="🎨-Color" mask="url(#mask-2)">
                        <g transform="translate(-17.000000, -22.000000)">
                            <mask id="mask-4" fill="white">
                                <use xlink:href="#path-3"></use>
                            </mask>
                            <use id="Black" stroke="none" fill="#888888" fill-rule="evenodd" xlink:href="#path-3"></use>
                        </g>
                    </g>
                </g>
            </g>
        </g>
    </g>
</svg>