<?xml version="1.0" encoding="UTF-8"?>
<svg width="22px" height="19px" viewBox="0 0 22 19" version="1.1" xmlns="http://www.w3.org/2000/svg" xmlns:xlink="http://www.w3.org/1999/xlink">
    <!-- Generator: Sketch 64 (93537) - https://sketch.com -->
    <title>v</title>
    <desc>Created with Sketch.</desc>
    <g id="Sections-Survey" stroke="none" stroke-width="1" fill="none" fill-rule="evenodd">
        <g id="1.2---Content-page" transform="translate(-22.000000, -624.000000)" fill="#888888" fill-rule="nonzero">
            <g id="Group-11" transform="translate(0.000000, 624.000000)">
                <path d="M31.3293886,19 C29.8540434,19 29.0295858,18.3913043 28.1617357,17.6086957 C27.5108481,17 27.1203156,15.6956522 27.1203156,14 C27.1203156,12.4347826 27.5108481,10.7391304 28.2051282,9.17391304 C29.4201183,6.39130435 31.7633136,3.95652174 32.8915187,2.65217391 L32.6311637,2.34782609 C31.6765286,3.30434783 30.0276134,3.73913043 28.4220907,3.73913043 L26.295858,3.73913043 C24.5167653,3.73913043 23.9526627,4.26086957 23.9092702,5 C23.9526627,5.56521739 24.9072978,6.04347826 25.2978304,6.26086957 C25.6015779,6.43478261 26.2524655,7.08695652 26.2524655,8.2173913 C26.2524655,9.34782609 25.7317554,10 24.3431953,10 C23.1715976,10 22,8.86956522 22,6.60869565 C22,4.82608696 23.0848126,3 23.6923077,2.30434783 C24.5601578,1.34782609 25.5147929,0.217391304 28.6390533,0.217391304 C33.9329389,0.217391304 34.4536489,0 34.9309665,0 C35.495069,0 35.9289941,0.260869565 35.5384615,0.869565217 C33.1518738,4.65217391 31.9368836,6.26086957 31.9368836,11.4347826 C31.9368836,14.3043478 33.1084813,15.6956522 34.1932939,15.6956522 C36.0591716,15.6956522 37.1439842,14.9565217 37.8382643,13.9565217 C39.617357,11.3913043 40.0078895,9.56521739 40.0078895,6.47826087 C40.1380671,4.95652174 39.8343195,4.26086957 39.357002,3.82608696 C39.1400394,3.60869565 38.7495069,2.7826087 38.7495069,2.2173913 C38.7495069,1.60869565 39.5739645,0 41.6568047,0 C43.3057199,0 44,1.82608696 44,3.69565217 C44,6.56521739 43.4792899,8.39130435 40.8757396,12.6086957 C38.7495069,16.0869565 35.408284,19 31.3293886,19 Z" id="v"></path>
            </g>
        </g>
    </g>
</svg>