<?xml version="1.0" encoding="UTF-8"?>
<svg width="45px" height="45px" viewBox="0 0 32 32" version="1.1" xmlns="http://www.w3.org/2000/svg" xmlns:xlink="http://www.w3.org/1999/xlink">
    <!-- Generator: Sketch 52.6 (67491) - http://www.bohemiancoding.com/sketch -->
    <title>Artboard</title>
    <desc>Created with Sketch.</desc>
    <g id="Artboard" stroke="none" stroke-width="1"  fill-rule="evenodd" transform="translate(-4.00000, -2.5000)">
        <path d="M13.94,17.68 C14.6200034,17.68 15.2466638,17.5100017 15.82,17.17 C16.3933362,16.8299983 16.846665,16.3733362 17.18,15.8 C17.513335,15.2266638 17.68,14.6000034 17.68,13.92 C17.68,13.2399966 17.513335,12.6133362 17.18,12.04 C16.846665,11.4666638 16.3933362,11.013335 15.82,10.68 C15.2466638,10.346665 14.6200034,10.18 13.94,10.18 C13.2599966,10.18 12.6333362,10.346665 12.06,10.68 C11.4866638,11.013335 11.0300017,11.4666638 10.69,12.04 C10.3499983,12.6133362 10.18,13.2399966 10.18,13.92 C10.18,14.6000034 10.3499983,15.2266638 10.69,15.8 C11.0300017,16.3733362 11.4866638,16.8299983 12.06,17.17 C12.6333362,17.5100017 13.2599966,17.68 13.94,17.68 Z M18.94,17.68 L23.08,21.82 L21.82,23.08 L17.68,18.92 L17.68,18.26 L17.44,18.04 C16.973331,18.4533354 16.4366697,18.7699989 15.83,18.99 C15.2233303,19.2100011 14.5933366,19.32 13.94,19.32 C12.9533284,19.32 12.0433375,19.0800024 11.21,18.6 C10.3766625,18.1199976 9.7200024,17.4733374 9.24,16.66 C8.7466642,15.8199958 8.5,14.9066716 8.5,13.92 C8.5,12.9333284 8.7433309,12.0233375 9.23,11.19 C9.7166691,10.3566625 10.3766625,9.7000024 11.21,9.22 C12.0433375,8.7399976 12.9533284,8.5 13.94,8.5 C14.9266716,8.5 15.8399958,8.7466642 16.68,9.24 C17.4933374,9.7200024 18.1366643,10.3733292 18.61,11.2 C19.0833357,12.0266708 19.32,12.9333284 19.32,13.92 C19.32,14.58667 19.2100011,15.2233303 18.99,15.83 C18.7699989,16.4366697 18.4533354,16.973331 18.04,17.44 L18.26,17.68 L18.94,17.68 Z" id="search---material" fill="#000"></path>
    </g>
</svg>

