<?xml version="1.0" encoding="UTF-8"?>
<svg width="18px" height="18px" viewBox="0 0 18 18" version="1.1" xmlns="http://www.w3.org/2000/svg" xmlns:xlink="http://www.w3.org/1999/xlink">
    <!-- Generator: Sketch 49.3 (51167) - http://www.bohemiancoding.com/sketch -->
    <title>icon-plus</title>
    <desc>Created with Sketch.</desc>
    <defs></defs>
    <g id="icon-plus" stroke="none" stroke-width="1" fill="none" fill-rule="evenodd">
         <path d="M7.09,12.59 L8.5,14 L13.5,9 L8.5,4 L7.09,5.41 L9.67,8 L0,8 L0,10 L9.67,10 L7.09,12.59 L7.09,12.59 Z M16,0 L2,0 C0.89,0 0,0.9 0,2 L0,6 L2,6 L2,2 L16,2 L16,16 L2,16 L2,12 L0,12 L0,16 C0,17.1 0.89,18 2,18 L16,18 C17.1,18 18,17.1 18,16 L18,2 C18,0.9 17.1,0 16,0 L16,0 Z" id="path-1"></path>
        </g>
</svg>