<?xml version="1.0" encoding="UTF-8"?>
<svg width="40px" height="40px" viewBox="0 0 40 40" version="1.1" xmlns="http://www.w3.org/2000/svg" xmlns:xlink="http://www.w3.org/1999/xlink">
    <!-- Generator: Sketch 49.2 (51160) - http://www.bohemiancoding.com/sketch -->
    <title>icon-dialog-section</title>
    <desc>Created with Sketch.</desc>
    <defs></defs>
    <g id="icon-dialog-section" stroke="none" stroke-width="1" fill="none" fill-rule="evenodd">
        <path d="M35.0547007,31.2765748 L35.0547007,12.7110106 L5.24268894,12.7110106 L5.24268894,31.2765748 L35.0547007,31.2765748 Z M35.0547007,8.96219475 C36.0662909,8.96219475 36.929105,9.33409737 37.6431687,10.0779138 C38.3572325,10.8217301 38.714259,11.6994203 38.714259,12.7110106 L38.714259,31.2765748 C38.714259,32.2881651 38.3572325,33.1658552 37.6431687,33.9096716 C36.929105,34.653488 36.0662909,35.0253906 35.0547007,35.0253906 L5.24268894,35.0253906 C4.23109865,35.0253906 3.36828459,34.653488 2.65422086,33.9096716 C1.94015712,33.1658552 1.58313061,32.2881651 1.58313061,31.2765748 L1.58313061,8.96219475 C1.58313061,7.95060447 1.94015712,7.07291429 2.65422086,6.32909791 C3.36828459,5.58528152 4.23109865,5.21337891 5.24268894,5.21337891 L16.399879,5.21337891 L20.1486948,8.96219475 L35.0547007,8.96219475 Z" id="folder_open---material" fill="#6F777B"></path>
    </g>
</svg>