<svg width="64" height="44" xmlns="http://www.w3.org/2000/svg"><g fill="none" fill-rule="evenodd"><path d="M0,4 L64,4 L64,42 C64,43.1045695 63.1045695,44 62,44 L2,44 C0.8954305,44 1.3527075e-16,43.1045695 0,42 L0,4 Z" fill="#DEE0E2"/><path d="M2 0L62 0C63.1045695-2.02906125e-16 64 .8954305 64 2L64 4 0 4 0 2C-1.3527075e-16.8954305.8954305 2.02906125e-16 2 0zM8 9H16V12H8z" fill="#6F777B"/><path fill="#BFC1C3" d="M8 14H39V17H8z"/><path fill="#6F777B" d="M8 29H21V32H8z"/><path fill="#BFC1C3" d="M8 19H39V22H8zM8 34H39V37H8z"/></g></svg>