<svg version="1.1" id="Layer_1" xmlns="http://www.w3.org/2000/svg" x="0" y="0" viewBox="0 0 28 28" xml:space="preserve" enable-background="new 0 0 28 28"><style>.st0{fill-rule:evenodd;clip-rule:evenodd;fill:#fff}</style><g id="Symbols"><circle class="st0" cx="14" cy="14" r="14" id="Mask"/><defs><filter id="Adobe_OpacityMaskFilter" filterUnits="userSpaceOnUse" x="4" y="4" width="20.7" height="24.9"><feColorMatrix values="1 0 0 0 0 0 1 0 0 0 0 0 1 0 0 0 0 0 1 0"/></filter></defs><mask maskUnits="userSpaceOnUse" x="4" y="4" width="20.7" height="24.9" id="mask-2_1_"><g filter="url(#Adobe_OpacityMaskFilter)"><circle id="path-1_1_" class="st0" cx="14" cy="14" r="14"/></g></mask><path d="M24.7,24.6c0,2.4-1.6,4.3-3.4,4.3H7.4c-1.9,0-3.4-1.9-3.4-4.3c0-4.3,1.1-9.2,5.3-9.2c1.3,1.3,3.1,2.1,5.1,2.1 s3.8-0.8,5.1-2.1C23.7,15.4,24.7,20.3,24.7,24.6z M20.6,10.2c0,3.4-2.8,6.2-6.2,6.2s-6.2-2.8-6.2-6.2S10.9,4,14.4,4 S20.6,6.8,20.6,10.2z" mask="url(#mask-2_1_)" fill-rule="evenodd" clip-rule="evenodd" fill="#666"/></g></svg>