<svg width="29" height="14" xmlns="http://www.w3.org/2000/svg" xmlns:xlink="http://www.w3.org/1999/xlink"><defs><path id="a" d="M2 0H4V1H2z"/><path id="b" d="M7 0H9V1H7z"/><path id="c" d="M2 8H4V10H2z"/><path id="d" d="M18 8H20V10H18z"/><path id="e" d="M2 0H4V1H2z"/><path id="f" d="M7 0H9V1H7z"/></defs><g fill="none" fill-rule="evenodd"><path d="M1,1.5 L10,1.5 C10.8284271,1.5 11.5,2.17157288 11.5,3 L11.5,12 C11.5,12.8284271 10.8284271,13.5 10,13.5 L1,13.5 C0.171572875,13.5 -0.5,12.8284271 -0.5,12 L-0.5,3 C-0.5,2.17157288 0.171572875,1.5 1,1.5 Z" stroke="#9B9B9B" transform="translate(1)"/><path fill="#9B9B9B" d="M0 2H11V6H0z" transform="translate(1)"/><g transform="translate(1)"><use fill="#D8D8D8" xlink:href="#a"/><path stroke="#979797" d="M2.5 0.5H3.5V1.5H2.5z"/></g><g transform="translate(1)"><use fill="#D8D8D8" xlink:href="#b"/><path stroke="#979797" d="M7.5 0.5H8.5V1.5H7.5z"/></g><g transform="translate(1)"><use fill="#D8D8D8" xlink:href="#c"/><path stroke="#979797" d="M2.5 8.5H3.5V9.5H2.5z"/></g><g transform="translate(1)"><use fill="#D8D8D8" xlink:href="#d"/><path stroke="#979797" d="M18.5 8.5H19.5V9.5H18.5z"/></g><g><path d="M1,1.5 L10,1.5 C10.8284271,1.5 11.5,2.17157288 11.5,3 L11.5,12 C11.5,12.8284271 10.8284271,13.5 10,13.5 L1,13.5 C0.171572875,13.5 -0.5,12.8284271 -0.5,12 L-0.5,3 C-0.5,2.17157288 0.171572875,1.5 1,1.5 Z" stroke="#9B9B9B" transform="translate(17)"/><path fill="#9B9B9B" d="M0 2H11V6H0z" transform="translate(17)"/><g transform="translate(17)"><use fill="#D8D8D8" xlink:href="#e"/><path stroke="#979797" d="M2.5 0.5H3.5V1.5H2.5z"/></g><g transform="translate(17)"><use fill="#D8D8D8" xlink:href="#f"/><path stroke="#979797" d="M7.5 0.5H8.5V1.5H7.5z"/></g></g></g></svg>