<svg width="109" height="110" xmlns="http://www.w3.org/2000/svg"><g fill="#000000" fill-rule="nonzero" opacity=".639"><path d="M75 84.21L67.22 81.7C66.68 81.53 53.83 77.7 44.92 77.7 43.46 77.7 42.05 77.78 40.7 77.91L40.7 31.14C50.57 31.27 53.56 33.38 56.7 35.62 59.84 37.86 63.28 40.33 73.92 40.33 74.1577705 40.3326717 74.386723 40.240085 74.5557995 40.0728871 74.724876 39.9056893 74.820015 39.6777855 74.82 39.44L74.82 10.24C74.82 9.74294373 74.4170563 9.34 73.92 9.34 63.86 9.34 60.92 7.22 57.74 4.97 54.42 2.6 51 .14 39.8.14L36 .14C35.5029437.14 35.1.542943725 35.1 1.04L35.1 78.69C33.98 78.9 32.89 79.12 31.85 79.33 29.056817 80.014758 26.2031054 80.4233881 23.33 80.55 21.17 80.55 18.63 81.09 14.27 82.49 13.9627516 82.588248 13.7312571 82.842948 13.6627182 83.158157 13.5941792 83.4733659 13.6990087 83.8011961 13.9377182 84.018157 14.1764277 84.2351179 14.5127516 84.308248 14.82 84.21 15.76 83.91 16.59 83.65 17.37 83.43 19.3101864 82.7932914 21.3295705 82.4298023 23.37 82.35 26.3637805 82.2250078 29.3380523 81.8063322 32.25 81.1 33.18 80.9 34.14 80.71 35.14 80.52L35.14 85.59C34.49 85.79 33.78 86.06 33.05 86.34 32.32 86.62 31.34 86.99 30.67 87.18 30.1674209 87.2269442 29.7980559 87.6724209 29.8450001 88.175 29.8919443 88.6775791 30.3374209 89.0469442 30.84 89 30.9197561 89.0088342 31.0002439 89.0088342 31.08 89 31.83 88.79 32.74 88.45 33.62 88.11L33.89 88.01C34.7662273 87.5964347 35.6762074 87.2585377 36.61 87 37.7355007 87.0307376 38.8533515 87.1952262 39.94 87.49L40.47 87.61 40.52 87.61 43.91 88.33C44.385998 88.4097481 44.840168 88.0998366 44.9394601 87.6275285 45.0387521 87.1552205 44.7478161 86.6886673 44.28 86.57L40.9 85.9 40.7 85.9 40.7 79.68C42.06 79.55 43.46 79.46 44.92 79.46 53.56 79.46 66.57 83.38 66.69 83.46L71.51 85 74.44 86C74.5327066 86.0152958 74.6272934 86.0152958 74.72 86 75.2142948 86.0773198 75.6776801 85.7392948 75.7549999 85.245 75.8323198 84.7507052 75.4942948 84.2873199 75 84.21L75 84.21zM36.88 85.21L36.88 1.94 38.88 1.94 38.88 85.48C38.2184856 85.340293 37.5458109 85.2599737 36.87 85.24L36.88 85.21zM73 38.53C63.66 38.41 60.77 36.34 57.72 34.16 54.49 31.85 51.16 29.47 40.72 29.34L40.72 2C50.61 2.12 53.58 4.24 56.72 6.48 59.86 8.72 63.09 11 73 11.14L73 38.53zM54.19 93.36C52.19 92.92 50.31 92.52 49.09 92.36 48.314565 92.315213 47.5420784 92.4884163 46.86 92.86 45.5153983 93.4323438 44.1095241 93.848402 42.67 94.1 42.1977054 94.1692375 41.8616189 94.5951626 41.9041169 95.0706097 41.946615 95.5460568 42.3529131 95.9056235 42.83 95.89L42.99 95.89C44.3817278 95.6438129 45.7452293 95.2585484 47.06 94.74L47.55 94.54C47.9435381 94.3222793 48.3809928 94.1958276 48.83 94.17 49.33 94.24 49.97 94.36 50.69 94.5 51.62 94.69 52.69 94.93 53.8 95.17 54.2873411 95.2698114 54.7657518 94.9641601 54.88 94.48 54.9428298 94.2396457 54.9046622 93.9840534 54.774355 93.7725402 54.6440478 93.5610271 54.4329309 93.4119838 54.19 93.36L54.19 93.36z" transform="translate(8 7)"/><path d="M69.87 87.89C68.2983122 87.1954586 66.5863057 86.8770254 64.87 86.96 63.5316742 86.9366001 62.1959504 86.8330815 60.87 86.65 60.5462434 86.5910242 60.2161115 86.7134538 60.0090948 86.9692673 59.802078 87.2250808 59.7511874 87.573486 59.8763841 87.8778251 60.0015808 88.1821642 60.2829009 88.393907 60.61 88.43 61.9956621 88.6218229 63.3914035 88.732013 64.79 88.76 66.2402197 88.681846 67.689418 88.9313542 69.03 89.49 69.1531056 89.5556563 69.2904803 89.59 69.43 89.59 69.7703944 89.5910169 70.0828957 89.4019729 70.24 89.1 70.4688427 88.6633997 70.3038863 88.1239476 69.87 87.89zM23.08 33.78C23.0804473 32.8455254 22.9457189 31.9158998 22.68 31.02L26 29.72C26.4610301 29.5348541 26.6848328 29.0111557 26.5 28.55 26.4154198 28.3275341 26.2443361 28.1488141 26.0257733 28.0546059 25.8072105 27.9603978 25.5598086 27.9587362 25.34 28.05L22 29.35C19.6806209 24.8000524 14.2783557 22.7643082 9.53304853 24.6520588 4.78774132 26.5398094 2.26012461 31.7301733 3.7 36.63L.7 37.83C.47133103 37.9110145.285051742 38.0809126.18338988 38.3011799.0817280178 38.5214473.0732940945 38.7734279.16 39 .293570334 39.3467122.628469813 39.5739654 1 39.57 1.11259351 39.5687218 1.22416253 39.5484365 1.33 39.51L4.38 38.3C6.47173797 42.3585941 11.0678656 44.4602319 15.5059713 43.3874919 19.9440771 42.3147519 23.0729007 38.3459066 23.08 33.78zM5.08 33.78C5.07466966 30.0518709 7.61473009 26.8015805 11.2336317 25.9057424 14.8525333 25.0099043 18.615535 26.6999082 20.35 30L5.35 36C5.16038314 35.2755458 5.06956091 34.5287853 5.08 33.78L5.08 33.78zM13.18 41.88C10.2047053 41.8747263 7.46994138 40.2446075 6.05 37.63L21.05 31.69C21.7078124 34.1215778 21.1939593 36.7208327 19.6603824 38.7191894 18.1268054 40.7175461 15.7489775 41.8863512 13.23 41.88L13.18 41.88zM7.59 55.25L7 55.25 7 54.73C7 54.2329437 6.59705627 53.83 6.1 53.83 5.60294373 53.83 5.2 54.2329437 5.2 54.73L5.2 55.25 4.53 55.25C4.03294373 55.25 3.63 55.6529437 3.63 56.15 3.63 56.6470563 4.03294373 57.05 4.53 57.05L5.16 57.05 5.16 57.57C5.16 58.0670563 5.56294373 58.47 6.06 58.47 6.55705627 58.47 6.96 58.0670563 6.96 57.57L6.96 57.05 7.59 57.05C8.08705627 57.05 8.49 56.6470563 8.49 56.15 8.49 55.6529437 8.08705627 55.25 7.59 55.25L7.59 55.25zM26 70.64C26 70.1429437 25.5970563 69.74 25.1 69.74 24.6029437 69.74 24.2 70.1429437 24.2 70.64L24.2 71.16 23.57 71.16C23.2484609 71.16 22.9513466 71.331539 22.790577 71.61 22.6298075 71.888461 22.6298075 72.231539 22.790577 72.51 22.9513466 72.788461 23.2484609 72.96 23.57 72.96L24.2 72.96 24.2 73.48C24.2 73.9770563 24.6029437 74.3799999 25.1 74.3799999 25.5970563 74.3799999 26 73.9770563 26 73.48L26 73 26.63 73C27.1270563 73 27.53 72.5970563 27.53 72.1 27.53 71.6029437 27.1270563 71.2 26.63 71.2L26 71.2 26 70.64zM85.79 30.09L86.42 30.09 86.42 30.61C86.42 31.1070563 86.8229437 31.51 87.32 31.51 87.8170563 31.51 88.22 31.1070563 88.22 30.61L88.22 30.09 88.86 30.09C89.3570563 30.09 89.76 29.6870563 89.76 29.19 89.76 28.6929437 89.3570563 28.29 88.86 28.29L88.22 28.29 88.22 27.78C88.22 27.2829437 87.8170563 26.88 87.32 26.88 86.8229437 26.88 86.42 27.2829437 86.42 27.78L86.42 28.29 85.79 28.29C85.2929437 28.29 84.89 28.6929437 84.89 29.19 84.89 29.6870563 85.2929437 30.09 85.79 30.09L85.79 30.09zM51.56 47.59C52.0570563 47.59 52.46 47.1870563 52.46 46.69L52.46 46.17 53.09 46.17C53.411539 46.17 53.7086534 45.998461 53.8694229 45.72 54.0301925 45.441539 54.0301925 45.098461 53.8694229 44.82 53.7086534 44.541539 53.411539 44.37 53.09 44.37L52.46 44.37 52.46 43.85C52.46 43.528461 52.288461 43.2313466 52.01 43.0705771 51.731539 42.9098075 51.388461 42.9098075 51.11 43.0705771 50.831539 43.2313466 50.66 43.528461 50.66 43.85L50.66 44.37 50 44.37C49.5029438 44.37 49.1000001 44.7729438 49.1000001 45.27 49.1000001 45.7670562 49.5029438 46.17 50 46.17L50.63 46.17 50.63 46.69C50.6298644 46.9339848 50.7287926 47.1675698 50.9041206 47.3372421 51.0794486 47.5069143 51.3161508 47.5981329 51.56 47.59L51.56 47.59zM85.79 42.91C83.3169185 42.9100132 81.0877359 44.4008402 80.1432079 46.6864471 79.1986798 48.972054 79.7251016 51.6016357 81.4766988 53.3474993 83.2282959 55.0933628 85.8595894 55.6111603 88.1420872 54.6591435 90.424585 53.7071268 91.9080952 51.4730682 91.9 49 91.8835122 45.6356364 89.1543996 42.915457 85.79 42.91L85.79 42.91zM85.79 53.32C83.4109559 53.3199936 81.4818486 51.392369 81.4800129 49.0133256 81.4781772 46.6342822 83.4043075 44.7036829 85.7833488 44.7000052 88.1623901 44.6963274 90.0944802 46.6209623 90.1 49 90.1026562 50.1448147 89.6497411 51.2436508 88.8411712 52.0540967 88.0326014 52.8645426 86.9348178 53.3200031 85.79 53.32L85.79 53.32zM56.5 66.68C56.5 69.0382559 58.4117441 70.95 60.77 70.95 63.1282559 70.95 65.04 69.0382559 65.04 66.68 65.04 64.3217441 63.1282559 62.41 60.77 62.41 58.4117441 62.41 56.5 64.3217441 56.5 66.68L56.5 66.68zM63.24 66.68C63.24 68.0441433 62.1341433 69.15 60.77 69.15 59.4058567 69.15 58.3 68.0441433 58.3 66.68 58.3 65.3158567 59.4058567 64.21 60.77 64.21 62.1318668 64.2154804 63.2345196 65.3181332 63.24 66.68L63.24 66.68zM22.42 14.26C24.0832439 14.2640468 25.5849653 13.2652473 26.2242673 11.7297704 26.8635692 10.1942934 26.5144077 8.42487142 25.3397466 7.24734529 24.1650854 6.06981916 22.3965193 5.71634827 20.8594895 6.35190779 19.3224597 6.98746732 18.3200049 8.48675122 18.32 10.15 18.3254678 12.4137232 20.1562968 14.2490176 22.42 14.26L22.42 14.26zM22.42 7.84C23.3552071 7.83595145 24.2005812 8.39619074 24.5612783 9.25905019 24.9219753 10.1219096 24.7268175 11.1171175 24.066956 11.779848 23.4070945 12.4425784 22.4127427 12.642052 21.5483265 12.2851017 20.6839103 11.9281515 20.1200088 11.0852159 20.12 10.15 20.1254255 8.88036943 21.1504049 7.8509336 22.42 7.84L22.42 7.84zM23.13 84.55C22.312127 84.6036277 21.4976585 84.7004293 20.69 84.84 19.69 84.99 18.52 85.15 17.64 85.23 17.2148827 85.3261315 16.919743 85.7130661 16.9394224 86.1484724 16.9591018 86.5838788 17.2879439 86.9426108 17.72 87L17.8 87C18.73 86.92 19.9 86.75 20.94 86.6 21.98 86.45 22.82 86.33 23.13 86.33 23.6270563 86.33 24.03 85.9270563 24.03 85.43 24.03 84.9329437 23.6270563 84.53 23.13 84.53L23.13 84.55z" transform="translate(8 7)"/></g></svg>