<svg width="28" height="28" xmlns="http://www.w3.org/2000/svg" xmlns:xlink="http://www.w3.org/1999/xlink"><defs><circle id="a" cx="14" cy="14" r="14"/></defs><g fill="none" fill-rule="evenodd"><mask id="b" fill="#fff"><use xlink:href="#a"/></mask><use fill="#3B7A9E" xlink:href="#a"/><path d="M24.7143104,24.5686629 C24.7143104,26.9313889 23.1607371,28.8571725 21.2673197,28.8571725 L7.44699072,28.8571725 C5.55357328,28.8571725 4,26.9313889 4,24.5686629 C4,20.3125194 5.05189858,15.3928707 9.29185899,15.3928707 C10.6026864,16.6713321 12.3828225,17.4643018 14.3571552,17.4643018 C16.3314879,17.4643018 18.111624,16.6713321 19.4224514,15.3928707 C23.6624118,15.3928707 24.7143104,20.3125194 24.7143104,24.5686629 Z M20.5714483,10.2142931 C20.5714483,13.6451008 17.7879629,16.4285862 14.3571552,16.4285862 C10.9263475,16.4285862 8.14286208,13.6451008 8.14286208,10.2142931 C8.14286208,6.78348546 10.9263475,4 14.3571552,4 C17.7879629,4 20.5714483,6.78348546 20.5714483,10.2142931 Z" fill="#efefef" mask="url(#b)"/></g></svg>