<svg width="76" height="14" xmlns="http://www.w3.org/2000/svg"><g fill="none" fill-rule="evenodd"><path d="M8.66400669,4 L20.156384,4 L20.156384,7.17222313 L8.66400669,7.17222313 L8.66400669,4 Z M2.27678571,4 L5.90943371,4 L5.90943371,7.17222313 L2.27678571,7.17222313 L2.27678571,4 Z M8.66400669,14.3708975 L20.156384,14.3708975 L20.156384,17.5431207 L8.66400669,17.5431207 L8.66400669,14.3708975 Z M2.27678571,14.3708975 L5.90943371,14.3708975 L5.90943371,17.5431207 L2.27678571,17.5431207 L2.27678571,14.3708975 Z M0,9.18544876 L11.4923773,9.18544876 L11.4923773,12.3576719 L0,12.3576719 L0,9.18544876 Z M14.3161849,9.18544876 L17.9488329,9.18544876 L17.9488329,12.3576719 L14.3161849,12.3576719 L14.3161849,9.18544876 Z" fill="#FDFEFF" transform="translate(0 -4)"/><path d="M34.464,11.68 L32.88,7.472 C32.7519994,7.14666504 32.621334,6.73333584 32.488,6.232 C32.429333,6.48266792 32.3653337,6.71333228 32.296,6.924 C32.2266663,7.13466772 32.162667,7.3199992 32.104,7.48 L30.52,11.68 L34.464,11.68 Z M38.008,16 L36.56,16 C36.3946658,16 36.2613338,15.9586671 36.16,15.876 C36.0586662,15.7933329 35.9813336,15.6906673 35.928,15.568 L34.968,13.024 L30.008,13.024 L29.048,15.568 C29.0053331,15.6746672 28.9306672,15.7733329 28.824,15.864 C28.7173328,15.9546671 28.5840008,16 28.424,16 L26.976,16 L31.544,4.48 L33.44,4.48 L38.008,16 Z M45.58,7.84 L45.58,16 L44.54,16 C44.3106655,16 44.1640003,15.8906678 44.1,15.672 L43.972,14.912 C43.8013325,15.0933342 43.6213343,15.2586659 43.432,15.408 C43.2426657,15.5573341 43.0413344,15.6853328 42.828,15.792 C42.6146656,15.8986672 42.3866679,15.981333 42.144,16.04 C41.9013321,16.098667 41.6413347,16.128 41.364,16.128 C40.9159978,16.128 40.521335,16.0533341 40.18,15.904 C39.838665,15.7546659 39.5520012,15.5440014 39.32,15.272 C39.0879988,14.9999986 38.9133339,14.6733352 38.796,14.292 C38.6786661,13.9106648 38.62,13.490669 38.62,13.032 L38.62,7.84 L40.34,7.84 L40.34,13.032 C40.34,13.5813361 40.4666654,14.0079985 40.72,14.312 C40.9733346,14.6160015 41.3586641,14.768 41.876,14.768 C42.2546686,14.768 42.6079984,14.6813342 42.936,14.508 C43.2640016,14.3346658 43.5719986,14.0960015 43.86,13.792 L43.86,7.84 L45.58,7.84 Z M50.152,16.128 C49.4746633,16.128 48.9533352,15.9373352 48.588,15.556 C48.2226648,15.1746648 48.04,14.6373368 48.04,13.944 L48.04,9.192 L47.144,9.192 C47.0479995,9.192 46.9653337,9.16133364 46.896,9.1 C46.8266663,9.03866636 46.792,8.94666728 46.792,8.824 L46.792,8.128 L48.112,7.936 L48.488,5.576 C48.5146668,5.48533288 48.5599997,5.41200028 48.624,5.356 C48.6880003,5.29999972 48.7733328,5.272 48.88,5.272 L49.76,5.272 L49.76,7.952 L52.024,7.952 L52.024,9.192 L49.76,9.192 L49.76,13.824 C49.76,14.1173348 49.8319993,14.3413326 49.976,14.496 C50.1200007,14.6506674 50.3119988,14.728 50.552,14.728 C50.685334,14.728 50.7999995,14.7106668 50.896,14.676 C50.9920005,14.6413332 51.0746663,14.6040002 51.144,14.564 C51.2133337,14.5239998 51.2733331,14.4866668 51.324,14.452 C51.3746669,14.4173332 51.4239998,14.4 51.472,14.4 C51.5680005,14.4 51.645333,14.4533328 51.704,14.56 L52.216,15.4 C51.949332,15.6346678 51.6346685,15.814666 51.272,15.94 C50.9093315,16.065334 50.5360019,16.128 50.152,16.128 Z M54.964,8.808 C55.3000017,8.47733168 55.667998,8.212001 56.068,8.012 C56.468002,7.811999 56.934664,7.712 57.468,7.712 C57.9160022,7.712 58.3093316,7.78666592 58.648,7.936 C58.9866684,8.08533408 59.2719988,8.29599864 59.504,8.568 C59.7360012,8.84000136 59.9106661,9.16666476 60.028,9.548 C60.1453339,9.92933524 60.204,10.349331 60.204,10.808 L60.204,16 L58.492,16 L58.492,10.808 C58.492,10.2586639 58.3653346,9.83200152 58.112,9.528 C57.8586654,9.22399848 57.4733359,9.072 56.956,9.072 C56.5719981,9.072 56.2160016,9.15999912 55.888,9.336 C55.5599984,9.51200088 55.2520014,9.75199848 54.964,10.056 L54.964,16 L53.244,16 L53.244,4.16 L54.964,4.16 L54.964,8.808 Z M65.608,7.712 C66.2106697,7.712 66.7559976,7.81066568 67.244,8.008 C67.7320024,8.20533432 68.1479983,8.48533152 68.492,8.848 C68.8360017,9.21066848 69.1013324,9.65066408 69.288,10.168 C69.4746676,10.6853359 69.568,11.2666634 69.568,11.912 C69.568,12.5573366 69.4746676,13.1386641 69.288,13.656 C69.1013324,14.1733359 68.8360017,14.6146648 68.492,14.98 C68.1479983,15.3453352 67.7320024,15.6266657 67.244,15.824 C66.7559976,16.0213343 66.2106697,16.12 65.608,16.12 C64.999997,16.12 64.4520024,16.0213343 63.964,15.824 C63.4759976,15.6266657 63.0586684,15.3453352 62.712,14.98 C62.3653316,14.6146648 62.0986676,14.1733359 61.912,13.656 C61.7253324,13.1386641 61.632,12.5573366 61.632,11.912 C61.632,11.2666634 61.7253324,10.6853359 61.912,10.168 C62.0986676,9.65066408 62.3653316,9.21066848 62.712,8.848 C63.0586684,8.48533152 63.4759976,8.20533432 63.964,8.008 C64.4520024,7.81066568 64.999997,7.712 65.608,7.712 Z M65.608,14.776 C66.3440037,14.776 66.8919982,14.5293358 67.252,14.036 C67.6120018,13.5426642 67.792,12.8373379 67.792,11.92 C67.792,11.0026621 67.6120018,10.2946692 67.252,9.796 C66.8919982,9.29733084 66.3440037,9.048 65.608,9.048 C64.8613296,9.048 64.3066685,9.29733084 63.944,9.796 C63.5813315,10.2946692 63.4,11.0026621 63.4,11.92 C63.4,12.8373379 63.5813315,13.5426642 63.944,14.036 C64.3066685,14.5293358 64.8613296,14.776 65.608,14.776 Z M72.7,9.352 C72.9560013,8.83466408 73.2653315,8.42800148 73.628,8.132 C73.9906685,7.83599852 74.4253308,7.688 74.932,7.688 C75.1080009,7.688 75.2733326,7.7079998 75.428,7.748 C75.5826674,7.7880002 75.7213327,7.8479996 75.844,7.928 L75.724,9.224 C75.7026666,9.31466712 75.6693336,9.37733316 75.624,9.412 C75.5786664,9.44666684 75.518667,9.464 75.444,9.464 C75.3639996,9.464 75.2493341,9.44933348 75.1,9.42 C74.9506659,9.39066652 74.7933342,9.376 74.628,9.376 C74.3879988,9.376 74.1760009,9.41066632 73.992,9.48 C73.8079991,9.54933368 73.6426674,9.650666 73.496,9.784 C73.3493326,9.917334 73.2200006,10.079999 73.108,10.272 C72.9959994,10.464001 72.8920005,10.6826654 72.796,10.928 L72.796,16 L71.076,16 L71.076,7.84 L72.076,7.84 C72.2573342,7.84 72.3826663,7.873333 72.452,7.94 C72.5213337,8.006667 72.5693332,8.12266584 72.596,8.288 L72.7,9.352 Z" fill="#FFFFFF" transform="translate(0 -4)"/></g></svg>