<svg width="64" height="44" xmlns="http://www.w3.org/2000/svg"><g fill="none" fill-rule="evenodd"><path d="M0,4 L64,4 L64,42 C64,43.1045695 63.1045695,44 62,44 L2,44 C0.8954305,44 1.3527075e-16,43.1045695 0,42 L0,4 Z" fill="#DEE0E2"/><path d="M2,0 L62,0 C63.1045695,-2.02906125e-16 64,0.8954305 64,2 L64,4 L0,4 L0,2 C-1.3527075e-16,0.8954305 0.8954305,2.02906125e-16 2,0 Z" fill="#6F777B"/><path fill="#BFC1C3" d="M8 9H39V12H8zM8 24H39V27H8zM8 14H39V17H8zM8 29H39V32H8zM8 19H39V22H8zM8 34H39V37H8z"/><path fill="#056C99" d="M46 9H58V12H46z"/><path fill="#6F777B" d="M46 14H58V17H46zM46 19H58V22H46zM46 24H58V27H46z"/></g></svg>