<?xml version="1.0" encoding="UTF-8"?>
<svg width="32px" height="32px" viewBox="0 0 32 32" version="1.1" xmlns="http://www.w3.org/2000/svg" xmlns:xlink="http://www.w3.org/1999/xlink">
    <!-- Generator: Sketch 50 (54983) - http://www.bohemiancoding.com/sketch -->
    <title>icon-answer</title>
    <desc>Created with Sketch.</desc>
    <defs></defs>
    <g id="icon-answer" stroke="none" stroke-width="1" fill="none" fill-rule="evenodd">
        <path d="M14.32,20.18 L21,13.5 L19.82,12.32 L14.32,17.8 L12.18,15.64 L11,16.82 L14.32,20.18 Z M16,8.5 C15.7733322,8.5 15.5800008,8.5799992 15.42,8.74 C15.2599992,8.9000008 15.18,9.0933322 15.18,9.32 C15.18,9.5466678 15.2599992,9.7466658 15.42,9.92 C15.5800008,10.0933342 15.7733322,10.18 16,10.18 C16.2266678,10.18 16.4199992,10.0933342 16.58,9.92 C16.7400008,9.7466658 16.82,9.5466678 16.82,9.32 C16.82,9.0933322 16.7400008,8.9000008 16.58,8.74 C16.4199992,8.5799992 16.2266678,8.5 16,8.5 Z M21.82,8.5 C22.2733356,8.5 22.666665,8.666665 23,9 C23.333335,9.333335 23.5,9.7266644 23.5,10.18 L23.5,21.82 C23.5,22.2733356 23.333335,22.666665 23,23 C22.666665,23.333335 22.2733356,23.5 21.82,23.5 L10.18,23.5 C9.7266644,23.5 9.333335,23.333335 9,23 C8.666665,22.666665 8.5,22.2733356 8.5,21.82 L8.5,10.18 C8.5,9.7266644 8.666665,9.333335 9,9 C9.333335,8.666665 9.7266644,8.5 10.18,8.5 L13.66,8.5 C13.8333342,8.0066642 14.1299979,7.6033349 14.55,7.29 C14.9700021,6.9766651 15.4533306,6.82 16,6.82 C16.5466694,6.82 17.0299979,6.9766651 17.45,7.29 C17.8700021,7.6033349 18.1666658,8.0066642 18.34,8.5 L21.82,8.5 Z" id="assignment_turned_in---material" fill="#4A4A4A"></path>
    </g>
</svg>