<svg width="397" height="135" viewBox="0 0 397 135" xmlns="http://www.w3.org/2000/svg"><title>Artboard</title><defs><radialGradient cy="0%" fx="50%" fy="0%" r="70.711%" id="a"><stop offset="0%"/><stop stop-color="#F5F5F5" offset="100%"/></radialGradient></defs><g transform="translate(-65 -85)" fill="none" fill-rule="evenodd"><g opacity=".16"><path fill="#000" fill-rule="nonzero" d="M435.987 163.139l9.705 36.222-36.222 9.706-135.457-78.206 13.04-3.494-3.285-12.264 12.274-3.29-2.967-11.072 10.808-2.896-3.353-12.912z"/><path d="M439.853.03L208.03 62.148l62.116 231.822 231.822-62.116z"/><g><path d="M203.69 86.358l13.212 3.54-2.875 10.729 10.901 2.92-3.292 12.289L234 119.148l-3.377 12.601-106.254 61.562-26.516-45.928L203.69 86.358zM97.833 207.816a9.959 9.959 0 0 1-13.62-3.65l-16.546-28.659a9.959 9.959 0 0 1 3.65-13.62l22.412-12.94 26.517 45.929-22.413 12.94z" fill="#000" fill-rule="nonzero"/><path d="M64.244 1.186L2.128 233.008l231.822 62.117 62.116-231.823z"/></g></g><rect fill="url(#a)" opacity=".078" x="405.041" y="217.379" width="56" height="2.43" rx="1.215"/><rect fill="url(#a)" opacity=".08" x="65.041" y="217.379" width="56" height="2.43" rx="1.215"/></g></svg>