<?xml version="1.0" encoding="UTF-8"?>
<svg width="32px" height="32px" viewBox="0 0 32 32" version="1.1" xmlns="http://www.w3.org/2000/svg" xmlns:xlink="http://www.w3.org/1999/xlink">
    <!-- Generator: Sketch 49.1 (51147) - http://www.bohemiancoding.com/sketch -->
    <title>icon-saving</title>
    <desc>Created with Sketch.</desc>
    <defs></defs>
    <g id="icon-saving" stroke="none" stroke-width="1" fill="none" fill-rule="evenodd">
        <path d="M16,10.25 L16,8 L13,11 L16,14 L16,11.75 C18.4825,11.75 20.5,13.7675 20.5,16.25 C20.5,17.0075 20.3125,17.7275 19.975,18.35 L21.07,19.445 C21.655,18.5225 22,17.4275 22,16.25 C22,12.935 19.315,10.25 16,10.25 Z M16,20.75 C13.5175,20.75 11.5,18.7325 11.5,16.25 C11.5,15.4925 11.6875,14.7725 12.025,14.15 L10.93,13.055 C10.345,13.9775 10,15.0725 10,16.25 C10,19.565 12.685,22.25 16,22.25 L16,24.5 L19,21.5 L16,18.5 L16,20.75 Z" id="Shape" fill="#4A4A4A" fill-rule="nonzero" transform="translate(16.000000, 16.250000) rotate(0.000000) translate(-16.000000, -16.250000) "></path>
    </g>
</svg>