<?xml version="1.0" encoding="UTF-8"?>
<svg width="28px" height="19px" viewBox="0 0 28 19" version="1.1" xmlns="http://www.w3.org/2000/svg" xmlns:xlink="http://www.w3.org/1999/xlink">
    <!-- Generator: Sketch 64 (93537) - https://sketch.com -->
    <title>Author logo</title>
    <desc>Created with Sketch.</desc>
    <g id="Sections-Survey" stroke="none" stroke-width="1" fill="none" fill-rule="evenodd">
        <g id="1.2---Content-page" transform="translate(-20.000000, -19.000000)" fill="#888888">
            <g id="Author-logo" transform="translate(20.000000, 19.000000)">
                <path d="M28,14.5496048 L28,19 L12.0355014,19 L12.0355014,14.5496048 L28,14.5496048 Z M8.20901924,14.5496048 L8.20901924,19 L3.16276968,19 L3.16276968,14.5496048 L8.20901924,14.5496048 Z M15.9644986,7.27480239 L15.9644986,11.7251976 L0,11.7251976 L0,7.27480239 L15.9644986,7.27480239 Z M24.9334069,7.27480239 L24.9334069,11.7251976 L19.8871573,11.7251976 L19.8871573,7.27480239 L24.9334069,7.27480239 Z M28,0 L28,4.45039523 L12.0355014,4.45039523 L12.0355014,0 L28,0 Z M8.20901924,0 L8.20901924,4.45039523 L3.16276968,4.45039523 L3.16276968,0 L8.20901924,0 Z" id="Combined-Shape"></path>
            </g>
        </g>
    </g>
</svg>