<?xml version="1.0" encoding="UTF-8"?>
<svg xmlns="http://www.w3.org/2000/svg" xmlns:xlink="http://www.w3.org/1999/xlink" width="24pt" height="24pt" viewBox="0 0 32 32" version="1.1">
<g id="surface1">
<path style=" stroke:none;fill-rule:nonzero;fill:rgb(100%,100%,100%);fill-opacity:1;" d="M 17.398438 8.5 C 13.300781 8.398438 9.800781 11.699219 9.699219 15.800781 C 9.699219 15.898438 9.699219 15.898438 9.699219 16 L 7.199219 16 L 10.5 19.300781 L 13.898438 15.898438 L 11.398438 15.898438 C 11.398438 12.699219 14 10.101562 17.199219 10.101562 C 17.199219 10.101562 17.300781 10.101562 17.300781 10.101562 C 20.398438 10.199219 23 12.699219 23.101562 15.898438 C 23.101562 19.101562 20.601562 21.800781 17.300781 21.800781 C 15.699219 21.800781 14.199219 21.199219 13.101562 20.101562 L 12 21.300781 C 14.898438 24.199219 19.699219 24.199219 22.601562 21.300781 C 24.101562 19.800781 24.898438 17.800781 24.800781 15.800781 C 24.601562 11.800781 21.398438 8.601562 17.398438 8.5 Z M 16.398438 12.699219 L 16.398438 16.898438 L 20 19 L 20.601562 18 L 17.699219 16.300781 L 17.699219 12.699219 Z M 16.398438 12.699219 "/>
</g>
</svg>
