<?xml version="1.0" encoding="UTF-8"?>
<svg width="32px" height="32px" viewBox="0 0 32 32" version="1.1" xmlns="http://www.w3.org/2000/svg" xmlns:xlink="http://www.w3.org/1999/xlink">
    <!-- Generator: Sketch 52.5 (67469) - http://www.bohemiancoding.com/sketch -->
    <title>icon-survey-intro</title>
    <desc>Created with Sketch.</desc>
    <g id="icon-survey-intro" stroke="none" stroke-width="1" fill="none" fill-rule="evenodd">
        <path d="M17.6559871,13.827422 L21.3662626,13.827422 L17.6559871,10.2836641 L17.6559871,13.827422 Z M12.9820036,9.32421875 L18.3466444,9.32421875 L22.3620941,13.1929501 L22.3620941,22.003341 C22.3620941,22.3541077 22.2282471,22.6532866 21.9605492,22.9008867 C21.6928512,23.1484867 21.3769723,23.2722849 21.012903,23.2722849 L12.9820036,23.2722849 C12.6179343,23.2722849 12.3020555,23.1484867 12.0343575,22.9008867 C11.7666595,22.6532866 11.6328125,22.3541077 11.6328125,22.003341 L11.6649361,10.5931626 C11.6649361,10.2423959 11.7934292,9.943217 12.0504193,9.69561696 C12.3074093,9.44801692 12.6179343,9.32421875 12.9820036,9.32421875 Z M13.7786688,15.7617877 L13.7786688,16.8347159 L20.2162378,16.8347159 L20.2162378,15.7617877 L13.7786688,15.7617877 Z M13.7786688,17.9076441 L13.7786688,18.9805722 L20.2162378,18.9805722 L20.2162378,17.9076441 L13.7786688,17.9076441 Z M13.7786688,20.0535004 L13.7786688,21.1264285 L20.2162378,21.1264285 L20.2162378,20.0535004 L13.7786688,20.0535004 Z" id="Combined-Shape" fill="#4A4A4A"></path>
    </g>
</svg>