<?xml version="1.0" encoding="UTF-8"?>
<svg width="50px" height="39px" viewBox="0 0 50 39" version="1.1" xmlns="http://www.w3.org/2000/svg" xmlns:xlink="http://www.w3.org/1999/xlink">
    <!-- Generator: Sketch 62 (91390) - https://sketch.com -->
    <title>Artboard</title>
    <desc>Created with Sketch.</desc>
    <g id="Artboard" stroke="none" stroke-width="1" fill="none" fill-rule="evenodd">
        <g id="logo" transform="translate(3.000000, 5.000000)" fill="#2680DB" fill-rule="nonzero">
            <path d="M18.5523115,0 L43.1610372,0 L43.1610372,6.79270848 L18.5523115,6.79270848 L18.5523115,0 Z M4.87530068,0 L12.6539209,0 L12.6539209,6.79270848 L4.87530068,6.79270848 L4.87530068,0 Z M18.5523115,22.2072914 L43.1610372,22.2072914 L43.1610372,29 L18.5523115,29 L18.5523115,22.2072914 Z M4.87530068,22.2072914 L12.6539209,22.2072914 L12.6539209,29 L4.87530068,29 L4.87530068,22.2072914 Z M-3.55271368e-15,11.1036457 L24.6087256,11.1036457 L24.6087256,17.8963542 L-3.55271368e-15,17.8963542 L-3.55271368e-15,11.1036457 Z M30.655369,11.1036457 L38.4339892,11.1036457 L38.4339892,17.8963542 L30.655369,17.8963542 L30.655369,11.1036457 Z" id="Combined-Shape"></path>
        </g>
    </g>
</svg>