<?xml version="1.0" encoding="UTF-8"?>
<svg width="48px" height="32px" viewBox="0 0 48 32" version="1.1" xmlns="http://www.w3.org/2000/svg" xmlns:xlink="http://www.w3.org/1999/xlink">
    <!-- Generator: Sketch 49.3 (51167) - http://www.bohemiancoding.com/sketch -->
    <title>icon-piping</title>
    <desc>Created with Sketch.</desc>
    <defs></defs>
    <g id="icon-piping" stroke="none" stroke-width="1" fill="none" fill-rule="evenodd">
        <polygon id="Shape" fill="#111111" fill-rule="nonzero" points="31.653125 14 36.653125 19 41.653125 14"></polygon>
        <polygon id="Combined-Shape" fill="#111111" fill-rule="nonzero" points="7.653125 25 3.653125 25 3.653125 7 7.653125 7 7.653125 9 5.653125 9 5.653125 23 7.653125 23"></polygon>
        <path d="M14.8686415,9.99686718 L10.153125,22 L12.0821999,22 L13.0424505,19.4279001 L18.400992,19.4279001 L19.3612426,22 L21.2903175,22 L16.5833747,9.99686718 L14.8686415,9.99686718 Z M15.7260081,12.2860361 L17.7665407,17.7131668 L13.6854755,17.7131668 L15.7260081,12.2860361 Z" id="Shape" fill="#111111" fill-rule="nonzero"></path>
        <polygon id="Combined-Shape" fill="#111111" fill-rule="nonzero" points="25.653125 23 25.653125 9 23.653125 9 23.653125 7 27.653125 7 27.653125 25 23.653125 25 23.653125 23"></polygon>
    </g>
</svg>