<?xml version="1.0" encoding="UTF-8"?>
<svg width="32px" height="32px" viewBox="0 0 32 32" version="1.1" xmlns="http://www.w3.org/2000/svg" xmlns:xlink="http://www.w3.org/1999/xlink">
    <!-- Generator: Sketch 50 (54983) - http://www.bohemiancoding.com/sketch -->
    <title>icon-bold</title>
    <desc>Created with Sketch.</desc>
    <defs></defs>
    <g id="icon-bold" stroke="none" stroke-width="1" fill="none" fill-rule="evenodd">
        <path d="M18.7642857,15.82 C19.5957143,15.2457143 20.1785714,14.3028571 20.1785714,13.4285714 C20.1785714,11.4914286 18.6785714,10 16.75,10 L11.3928571,10 L11.3928571,22 L17.4271429,22 C19.2185714,22 20.6071429,20.5428571 20.6071429,18.7514286 C20.6071429,17.4485714 19.87,16.3342857 18.7642857,15.82 Z M13.9642857,12.1428571 L16.5357143,12.1428571 C17.2471429,12.1428571 17.8214286,12.7171429 17.8214286,13.4285714 C17.8214286,14.14 17.2471429,14.7142857 16.5357143,14.7142857 L13.9642857,14.7142857 L13.9642857,12.1428571 Z M16.9642857,19.8571429 L13.9642857,19.8571429 L13.9642857,17.2857143 L16.9642857,17.2857143 C17.6757143,17.2857143 18.25,17.86 18.25,18.5714286 C18.25,19.2828571 17.6757143,19.8571429 16.9642857,19.8571429 Z" id="Shape" fill="#4A4A4A" fill-rule="nonzero"></path>
    </g>
</svg>