<?xml version="1.0" encoding="UTF-8"?>
<svg width="32px" height="32px" viewBox="0 0 32 32" version="1.1" xmlns="http://www.w3.org/2000/svg" xmlns:xlink="http://www.w3.org/1999/xlink">
    <!-- Generator: Sketch 50 (54983) - http://www.bohemiancoding.com/sketch -->
    <title>icon-link</title>
    <desc>Created with Sketch.</desc>
    <defs></defs>
    <g id="icon-link" stroke="none" stroke-width="1" fill="none" fill-rule="evenodd">
        <path d="M20.18,11.82 C20.9266704,11.82 21.6199968,12.0066648 22.26,12.38 C22.9000032,12.7533352 23.4033315,13.2599968 23.77,13.9 C24.1366685,14.5400032 24.32,15.2399962 24.32,16 C24.32,16.7600038 24.1366685,17.4599968 23.77,18.1 C23.4033315,18.7400032 22.9000032,19.2466648 22.26,19.62 C21.6199968,19.9933352 20.9266704,20.18 20.18,20.18 L16.82,20.18 L16.82,18.58 L20.18,18.58 C20.6333356,18.58 21.059998,18.4633345 21.46,18.23 C21.860002,17.9966655 22.1766655,17.680002 22.41,17.28 C22.6433345,16.879998 22.76,16.4533356 22.76,16 C22.76,15.5466644 22.6433345,15.120002 22.41,14.72 C22.1766655,14.319998 21.860002,14.0033345 21.46,13.77 C21.059998,13.5366655 20.6333356,13.42 20.18,13.42 L16.82,13.42 L16.82,11.82 L20.18,11.82 Z M12.68,16.82 L12.68,15.18 L19.32,15.18 L19.32,16.82 L12.68,16.82 Z M9.24,16 C9.24,16.4533356 9.3566655,16.879998 9.59,17.28 C9.8233345,17.680002 10.139998,17.9966655 10.54,18.23 C10.940002,18.4633345 11.3666644,18.58 11.82,18.58 L15.18,18.58 L15.18,20.18 L11.82,20.18 C11.0733296,20.18 10.3800032,19.9933352 9.74,19.62 C9.0999968,19.2466648 8.5966685,18.7400032 8.23,18.1 C7.8633315,17.4599968 7.68,16.7600038 7.68,16 C7.68,15.2399962 7.8633315,14.5400032 8.23,13.9 C8.5966685,13.2599968 9.0999968,12.7533352 9.74,12.38 C10.3800032,12.0066648 11.0733296,11.82 11.82,11.82 L15.18,11.82 L15.18,13.42 L11.82,13.42 C11.3666644,13.42 10.940002,13.5366655 10.54,13.77 C10.139998,14.0033345 9.8233345,14.319998 9.59,14.72 C9.3566655,15.120002 9.24,15.5466644 9.24,16 Z" id="insert_link---material" fill="#4A4A4A"></path>
    </g>
</svg>