<?xml version="1.0" encoding="UTF-8"?>
<svg width="32px" height="32px" viewBox="0 0 32 32" version="1.1" xmlns="http://www.w3.org/2000/svg" xmlns:xlink="http://www.w3.org/1999/xlink">
    <!-- Generator: Sketch 52.5 (67469) - http://www.bohemiancoding.com/sketch -->
    <title>icon-hyperlink</title>
    <desc>Created with Sketch.</desc>
    <g id="icon-hyperlink" stroke="none" stroke-width="1" fill="none" fill-rule="evenodd">
        <path d="M6.427,16.0119727 C6.23899906,16.1039731 6.03300112,16.1759724 5.809,16.2279727 C6.03300112,16.2799729 6.23899906,16.3519722 6.427,16.4439727 L8.605,17.5659727 C8.69700046,17.6099729 8.7629998,17.6659723 8.803,17.7339727 C8.8430002,17.801973 8.863,17.8759723 8.863,17.9559727 L8.863,19.0119727 L4.105,16.5279727 L4.105,15.9279727 L8.863,13.4499727 L8.863,14.5059727 C8.863,14.5859731 8.8430002,14.6589723 8.803,14.7249727 C8.7629998,14.790973 8.69700046,14.8479724 8.605,14.8959727 L6.427,16.0119727 Z M14.143,17.6439727 C13.7149979,17.6639728 13.3550015,17.7009724 13.063,17.7549727 C12.7709985,17.8089729 12.5370009,17.8779722 12.361,17.9619727 C12.1849991,18.0459731 12.0590004,18.1439721 11.983,18.2559727 C11.9069996,18.3679732 11.869,18.489972 11.869,18.6219727 C11.869,18.881974 11.9459992,19.0679721 12.1,19.1799727 C12.2540008,19.2919732 12.4549988,19.3479727 12.703,19.3479727 C13.0070015,19.3479727 13.2699989,19.2929732 13.492,19.1829727 C13.7140011,19.0729721 13.9309989,18.9059738 14.143,18.6819727 L14.143,17.6439727 Z M10.747,14.9739727 C11.4550035,14.3259694 12.306995,14.0019727 13.303,14.0019727 C13.6630018,14.0019727 13.9849986,14.0609721 14.269,14.1789727 C14.5530014,14.2969732 14.792999,14.4609716 14.989,14.6709727 C15.185001,14.8809737 15.3339995,15.1319712 15.436,15.4239727 C15.5380005,15.7159741 15.589,16.0359709 15.589,16.3839727 L15.589,20.2719727 L14.917,20.2719727 C14.7769993,20.2719727 14.6690004,20.2509729 14.593,20.2089727 C14.5169996,20.1669724 14.4570002,20.0819733 14.413,19.9539727 L14.281,19.5099727 C14.1249992,19.6499734 13.9730007,19.7729721 13.825,19.8789727 C13.6769993,19.9849732 13.5230008,20.0739723 13.363,20.1459727 C13.2029992,20.217973 13.0320009,20.2729725 12.85,20.3109727 C12.6679991,20.3489728 12.4670011,20.3679727 12.247,20.3679727 C11.9869987,20.3679727 11.7470011,20.332973 11.527,20.2629727 C11.3069989,20.1929723 11.1170008,20.0879734 10.957,19.9479727 C10.7969992,19.807972 10.6730004,19.6339737 10.585,19.4259727 C10.4969996,19.2179716 10.453,18.975974 10.453,18.6999727 C10.453,18.5439719 10.4789997,18.3889734 10.531,18.2349727 C10.5830003,18.0809719 10.6679994,17.9339734 10.786,17.7939727 C10.9040006,17.653972 11.0569991,17.5219733 11.245,17.3979727 C11.4330009,17.273972 11.6639986,17.1659731 11.938,17.0739727 C12.2120014,16.9819722 12.5309982,16.9069729 12.895,16.8489727 C13.2590018,16.7909724 13.6749977,16.7559727 14.143,16.7439727 L14.143,16.3839727 C14.143,15.9719706 14.0550009,15.6669736 13.879,15.4689727 C13.7029991,15.2709717 13.4490017,15.1719727 13.117,15.1719727 C12.8769988,15.1719727 12.6780008,15.1999724 12.52,15.2559727 C12.3619992,15.3119729 12.2230006,15.3749723 12.103,15.4449727 C11.9829994,15.514973 11.8740005,15.5779724 11.776,15.6339727 C11.6779995,15.6899729 11.5690006,15.7179727 11.449,15.7179727 C11.3449995,15.7179727 11.2570004,15.6909729 11.185,15.6369727 C11.1129996,15.5829724 11.0550002,15.519973 11.011,15.4479727 L10.747,14.9739727 Z M18.013,20.2899727 C17.9449997,20.4739736 17.8360007,20.6119722 17.686,20.7039727 C17.5359992,20.7959731 17.3830008,20.8419727 17.227,20.8419727 L16.597,20.8419727 L20.101,11.8779727 C20.1650003,11.7099718 20.2629993,11.5809731 20.395,11.4909727 C20.5270007,11.4009722 20.6809991,11.3559727 20.857,11.3559727 L21.493,11.3559727 L18.013,20.2899727 Z M27.895,15.9279727 L27.895,16.5279727 L23.137,19.0119727 L23.137,17.9559727 C23.137,17.8759723 23.1569998,17.801973 23.197,17.7339727 C23.2370002,17.6659723 23.3029995,17.6099729 23.395,17.5659727 L25.573,16.4439727 C25.7610009,16.3519722 25.9669989,16.2799729 26.191,16.2279727 C25.9669989,16.1759724 25.7610009,16.1039731 25.573,16.0119727 L23.395,14.8959727 C23.3029995,14.8479724 23.2370002,14.790973 23.197,14.7249727 C23.1569998,14.6589723 23.137,14.5859731 23.137,14.5059727 L23.137,13.4499727 L27.895,15.9279727 Z" id="&lt;a/&gt;" fill="#4A4A4A"></path>
    </g>
</svg>