<?xml version="1.0" encoding="UTF-8"?>
<svg width="32px" height="32px" viewBox="0 0 32 32" version="1.1" xmlns="http://www.w3.org/2000/svg" xmlns:xlink="http://www.w3.org/1999/xlink">
    <!-- Generator: Sketch 50 (54983) - http://www.bohemiancoding.com/sketch -->
    <title>icon-list</title>
    <desc>Created with Sketch.</desc>
    <defs></defs>
    <g id="icon-list" stroke="none" stroke-width="1" fill="none" fill-rule="evenodd">
        <path d="M9.5,9.5 C8.67,9.5 8,10.17 8,11 C8,11.83 8.67,12.5 9.5,12.5 C10.33,12.5 11,11.83 11,11 C11,10.17 10.33,9.5 9.5,9.5 Z M12,10 L12,12 L24,12 L24,10 L12,10 Z" id="Shape" fill="#4A4A4A" fill-rule="nonzero"></path>
        <path d="M9.5,14.5 C8.67,14.5 8,15.17 8,16 C8,16.83 8.67,17.5 9.5,17.5 C10.33,17.5 11,16.83 11,16 C11,15.17 10.33,14.5 9.5,14.5 Z M12,15 L12,17 L24,17 L24,15 L12,15 Z" id="Shape-Copy" fill="#4A4A4A" fill-rule="nonzero"></path>
        <path d="M9.5,19.5 C8.67,19.5 8,20.17 8,21 C8,21.83 8.67,22.5 9.5,22.5 C10.33,22.5 11,21.83 11,21 C11,20.17 10.33,19.5 9.5,19.5 Z M12,20 L12,22 L24,22 L24,20 L12,20 Z" id="Shape-Copy-2" fill="#4A4A4A" fill-rule="nonzero"></path>
    </g>
</svg>