<svg width="32" height="32" viewBox="0 0 32 32" xmlns="http://www.w3.org/2000/svg">
    <g fill="#4A4A4A" fill-rule="evenodd">
        <g fill-rule="nonzero">
            <path d="M9.627 23.886H5.875V7h3.752v1.876H7.751V22.01h1.876zM25.251 22.01V8.876h-1.876V7h3.752v16.886h-3.752V22.01z"></path>
        </g>
        <g transform="translate(11.708 9.917)">
            <ellipse cx="5.104" cy="2.188" rx="5.104" ry="2.188"></ellipse>
            <path d="M.001 5.173A.957.957 0 0 0 0 5.22C0 6.43 2.285 7.41 5.104 7.41c2.82 0 5.104-.98 5.104-2.188a.958.958 0 0 0 0-.052v1.51c0 1.209-2.285 2.188-5.104 2.188S0 7.887 0 6.68V5.19l.001-.018z"></path>
            <path d="M.001 2.985A.957.957 0 0 0 0 3.034c0 1.208 2.285 2.187 5.104 2.187 2.82 0 5.104-.979 5.104-2.187a.958.958 0 0 0 0-.052v1.51c0 1.208-2.285 2.188-5.104 2.188S0 5.7 0 4.492V3.004l.001-.019zM.001 7.36A.957.957 0 0 0 0 7.41c0 1.208 2.285 2.187 5.104 2.187 2.82 0 5.104-.979 5.104-2.187a.958.958 0 0 0 0-.052v1.51c0 1.208-2.285 2.188-5.104 2.188S0 10.075 0 8.867V7.38l.001-.019z"></path>
        </g>
    </g>
</svg>