<svg width="32" height="32" viewBox="0 0 32 32" xmlns="http://www.w3.org/2000/svg">
    <g fill="#4A4A4A" fill-rule="nonzero">
        <path d="M8.667 24H5V7.5h3.667v1.833H6.833v12.834h1.834zM25.167 22.167V9.333h-1.834V7.5H27V24h-3.667v-1.833zM14.812 20.525c-.678 0-1.057-.28-1.456-.639-.3-.28-.479-.878-.479-1.656 0-.718.18-1.496.499-2.214.559-1.277 1.636-2.394 2.155-2.993l-.12-.14c-.439.44-1.197.64-1.935.64h-.978c-.818 0-1.077.238-1.097.578.02.259.459.478.638.578.14.08.44.38.44.898 0 .519-.24.818-.879.818-.538 0-1.077-.519-1.077-1.556 0-.818.499-1.656.778-1.975.4-.44.838-.958 2.275-.958 2.433 0 2.673-.1 2.892-.1.26 0 .46.12.28.4-1.098 1.735-1.656 2.473-1.656 4.847 0 1.317.538 1.955 1.037 1.955.858 0 1.357-.339 1.676-.798.818-1.177.997-2.015.997-3.431.06-.698-.08-1.018-.299-1.217-.1-.1-.28-.479-.28-.738 0-.28.38-1.018 1.338-1.018.758 0 1.077.838 1.077 1.696 0 1.317-.24 2.155-1.437 4.09-.977 1.596-2.513 2.933-4.389 2.933z"></path>
    </g>
</svg>