<?xml version="1.0" encoding="UTF-8"?>
<svg width="16px" height="16px" viewBox="0 0 16 16" version="1.1" xmlns="http://www.w3.org/2000/svg" xmlns:xlink="http://www.w3.org/1999/xlink">
    <!-- Generator: Sketch 52.6 (67491) - http://www.bohemiancoding.com/sketch -->
    <title>icon-check copy</title>
    <desc>Created with Sketch.</desc>
    <g id="icon-check-copy" stroke="none" stroke-width="1" fill="none" fill-rule="evenodd">
        <path d="M6.38461538,12.0192308 L13.5961538,4.80769231 L12.4615385,3.63461538 L6.38461538,9.73076923 L3.53846154,6.86538462 L2.40384615,8 L6.38461538,12.0192308 Z M8,0 C9.46154577,0 10.8140963,0.365380962 12.0576923,1.09615385 C13.2628265,1.788465 14.211535,2.73717346 14.9038462,3.94230769 C15.634619,5.18590365 16,6.53845423 16,8 C16,9.46154577 15.634619,10.8140963 14.9038462,12.0576923 C14.211535,13.2628265 13.2628265,14.211535 12.0576923,14.9038462 C10.8140963,15.634619 9.46154577,16 8,16 C6.53845423,16 5.18590365,15.634619 3.94230769,14.9038462 C2.73717346,14.1987144 1.788465,13.2435958 1.09615385,12.0384615 C0.365380962,10.7948656 0,9.44872519 0,8 C0,6.55127481 0.365380962,5.20513442 1.09615385,3.96153846 C1.80128558,2.75640423 2.75640423,1.80128558 3.96153846,1.09615385 C5.20513442,0.365380962 6.55127481,0 8,0 Z" id="check_circle---material" fill="#65B409"></path>
    </g>
</svg>