<?xml version="1.0" encoding="UTF-8"?>
<svg width="32px" height="32px" viewBox="0 0 32 32" version="1.1" xmlns="http://www.w3.org/2000/svg" xmlns:xlink="http://www.w3.org/1999/xlink">
    <!-- Generator: Sketch 51.3 (57544) - http://www.bohemiancoding.com/sketch -->
    <title>icon-error</title>
    <desc>Created with Sketch.</desc>
    <defs></defs>
    <g id="icon-error" stroke="none" stroke-width="1" fill="none" fill-rule="evenodd">
        <path d="M16.32,23 C17.520006,23 18.6399948,22.6933364 19.68,22.08 C20.6933384,21.4933304 21.4933304,20.6933384 22.08,19.68 C22.6933364,18.6399948 23,17.520006 23,16.32 C23,15.119994 22.6933364,14.0000052 22.08,12.96 C21.4933304,11.9466616 20.6933384,11.1466696 19.68,10.56 C18.6399948,9.9466636 17.520006,9.64 16.32,9.64 C15.119994,9.64 14.0000052,9.9466636 12.96,10.56 C11.9466616,11.1466696 11.1466696,11.9466616 10.56,12.96 C9.9466636,14.0000052 9.64,15.119994 9.64,16.32 C9.64,17.520006 9.9466636,18.6399948 10.56,19.68 C11.1466696,20.6933384 11.9466616,21.4933304 12.96,22.08 C14.0000052,22.6933364 15.119994,23 16.32,23 Z M16.32,8 C17.8400076,8 19.2466602,8.3799962 20.54,9.14 C21.7933396,9.8600036 22.7799964,10.8466604 23.5,12.1 C24.2600038,13.3933398 24.64,14.7999924 24.64,16.32 C24.64,17.8400076 24.2600038,19.2466602 23.5,20.54 C22.7799964,21.7933396 21.7933396,22.7799964 20.54,23.5 C19.2466602,24.2600038 17.8400076,24.64 16.32,24.64 C14.7999924,24.64 13.3933398,24.2600038 12.1,23.5 C10.8466604,22.766663 9.8600036,21.7733396 9.14,20.52 C8.3799962,19.2266602 8,17.8266742 8,16.32 C8,14.8133258 8.3799962,13.4133398 9.14,12.12 C9.873337,10.8666604 10.8666604,9.873337 12.12,9.14 C13.4133398,8.3799962 14.8133258,8 16.32,8 Z M15.5,12.14 L17.14,12.14 L17.14,17.14 L15.5,17.14 L15.5,12.14 Z M15.5,18.82 L17.14,18.82 L17.14,20.5 L15.5,20.5 L15.5,18.82 Z" id="error_outline---material" fill="#4A4A4A"></path>
    </g>
</svg>