<?xml version="1.0" encoding="UTF-8"?>
<svg width="32px" height="32px" viewBox="0 0 32 32" version="1.1" xmlns="http://www.w3.org/2000/svg" xmlns:xlink="http://www.w3.org/1999/xlink">
    <!-- Generator: Sketch 52.4 (67378) - http://www.bohemiancoding.com/sketch -->
    <title>icon-info</title>
    <desc>Created with Sketch.</desc>
    <g id="icon-info" stroke="none" stroke-width="1" fill="none" fill-rule="evenodd">
        <path d="M15.1045085,13.3204686 L15.1045085,11.5198235 L16.8954915,11.5198235 L16.8954915,13.3204686 L15.1045085,13.3204686 Z M16,23.1597079 C17.310482,23.1597079 18.5335802,22.831022 19.6693312,22.1736403 C20.7759605,21.5448405 21.649602,20.687399 22.2902821,19.6012902 C22.960084,18.4865996 23.2949799,17.2861815 23.2949799,16 C23.2949799,14.7138185 22.960084,13.5134004 22.2902821,12.3987098 C21.649602,11.312601 20.7759605,10.4551595 19.6693312,9.82635968 C18.5335802,9.16897802 17.310482,8.84029212 16,8.84029212 C14.689518,8.84029212 13.4664198,9.16897802 12.3306688,9.82635968 C11.2240395,10.4551595 10.350398,11.312601 9.7097179,12.3987098 C9.03991599,13.5134004 8.70502006,14.7138185 8.70502006,16 C8.70502006,17.2861815 9.03991599,18.4865996 9.7097179,19.6012902 C10.350398,20.687399 11.2240395,21.5448405 12.3306688,22.1736403 C13.4664198,22.831022 14.689518,23.1597079 16,23.1597079 Z M16,7.08251953 C17.6599439,7.08251953 19.1960969,7.48980423 20.6085053,8.30438585 C21.9772309,9.07609474 23.0547222,10.1336059 23.8410114,11.476951 C24.6709833,12.8631688 25.085963,14.3708368 25.085963,16 C25.085963,17.6291632 24.6709833,19.1368312 23.8410114,20.523049 C23.0547222,21.8663941 21.9772309,22.9239053 20.6085053,23.6956142 C19.1960969,24.5101958 17.6599439,24.9174805 16,24.9174805 C14.3400561,24.9174805 12.8039031,24.5101958 11.3914947,23.6956142 C10.0227691,22.9096143 8.94527782,21.8449579 8.15898863,20.5016127 C7.3290167,19.1153949 6.91403696,17.6148723 6.91403696,16 C6.91403696,14.3851277 7.3290167,12.8846051 8.15898863,11.4983873 C8.95983873,10.1550421 10.0446103,9.09038565 11.413336,8.30438585 C12.8257443,7.48980423 14.3546171,7.08251953 16,7.08251953 Z M15.1045085,20.4801765 L15.1045085,15.1211137 L16.8954915,15.1211137 L16.8954915,20.4801765 L15.1045085,20.4801765 Z" id="" fill="#4A4A4A"></path>
    </g>
</svg>