<?xml version="1.0" encoding="UTF-8"?>
<svg width="42px" height="12px" viewBox="0 0 42 12" version="1.1" xmlns="http://www.w3.org/2000/svg" xmlns:xlink="http://www.w3.org/1999/xlink">
    <!-- Generator: Sketch 52.4 (67378) - http://www.bohemiancoding.com/sketch -->
    <title>currency</title>
    <desc>Created with Sketch.</desc>
    <g id="Page-1" stroke="none" stroke-width="1" fill="none" fill-rule="evenodd">
        <g id="currency">
            <rect id="Rectangle-6" stroke="#9B9B9B" x="0.740469" y="0.5" width="40" height="11" rx="1"></rect>
            <path d="M11.9572316,0.5 L11.9572316,11.5" id="Line" stroke="#9B9B9B" stroke-linecap="square"></path>
            <path d="M3.73663301,5.95757051 C3.73663301,5.87957012 3.76063277,5.81357078 3.80863301,5.75957051 C3.85663325,5.70557024 3.92413258,5.67857051 4.01113301,5.67857051 L4.61413301,5.67857051 L4.61413301,4.50407051 C4.61413301,4.2220691 4.65463261,3.95732175 4.73563301,3.70982051 C4.81663342,3.46231927 4.93963218,3.24632143 5.10463301,3.06182051 C5.26963383,2.87731959 5.47438179,2.73182104 5.71888301,2.62532051 C5.96338423,2.51881998 6.25063136,2.46557051 6.58063301,2.46557051 C6.81463418,2.46557051 7.0231321,2.49482022 7.20613301,2.55332051 C7.38913393,2.6118208 7.55113231,2.69207 7.69213301,2.79407051 C7.83313372,2.89607102 7.95538249,3.01456983 8.05888301,3.14957051 C8.16238353,3.28457118 8.25013265,3.43006973 8.32213301,3.58607051 L7.99813301,3.79307051 C7.92013262,3.8320707 7.84738335,3.84857054 7.77988301,3.84257051 C7.71238267,3.83657048 7.64863331,3.79907085 7.58863301,3.73007051 C7.53163272,3.6490701 7.47238332,3.57407085 7.41088301,3.50507051 C7.3493827,3.43607016 7.2796334,3.37532077 7.20163301,3.32282051 C7.12363262,3.27032025 7.03438351,3.22907066 6.93388301,3.19907051 C6.83338251,3.16907036 6.71563368,3.15407051 6.58063301,3.15407051 C6.39163207,3.15407051 6.22588372,3.18557019 6.08338301,3.24857051 C5.9408823,3.31157082 5.82163349,3.40156992 5.72563301,3.51857051 C5.62963253,3.63557109 5.55763325,3.77656968 5.50963301,3.94157051 C5.46163277,4.10657133 5.43763301,4.29106949 5.43763301,4.49507051 L5.43763301,5.67857051 L7.41763301,5.67857051 L7.41763301,6.00257051 C7.41763301,6.05657078 7.39588323,6.10607029 7.35238301,6.15107051 C7.30888279,6.19607074 7.25263335,6.21857051 7.18363301,6.21857051 L5.43763301,6.21857051 L5.43763301,7.31207051 C5.43763301,7.53707164 5.39488344,7.73131969 5.30938301,7.89482051 C5.22388258,8.05832133 5.10613376,8.20756984 4.95613301,8.34257051 C5.04013343,8.32757043 5.12563257,8.31482056 5.21263301,8.30432051 C5.29963345,8.29382046 5.38663258,8.28857051 5.47363301,8.28857051 L8.52013301,8.28857051 L8.52013301,8.63057051 C8.52013301,8.67257072 8.51188309,8.71382031 8.49538301,8.75432051 C8.47888293,8.79482071 8.45488317,8.83232034 8.42338301,8.86682051 C8.39188285,8.90132068 8.35513322,8.9290704 8.31313301,8.95007051 C8.2711328,8.97107062 8.22313328,8.98157051 8.16913301,8.98157051 L3.83113301,8.98157051 L3.83113301,8.46407051 C3.93313352,8.43407036 4.03138254,8.39357077 4.12588301,8.34257051 C4.22038348,8.29157025 4.30363265,8.22782089 4.37563301,8.15132051 C4.44763337,8.07482013 4.50538279,7.98482103 4.54888301,7.88132051 C4.59238323,7.77781999 4.61413301,7.6570712 4.61413301,7.51907051 L4.61413301,6.21857051 L3.73663301,6.21857051 L3.73663301,5.95757051 Z" id="£" fill="#9B9B9B"></path>
        </g>
    </g>
</svg>