<?xml version="1.0" encoding="UTF-8"?>
<svg width="41px" height="13px" viewBox="0 0 41 13" version="1.1" xmlns="http://www.w3.org/2000/svg" xmlns:xlink="http://www.w3.org/1999/xlink">
    <!-- Generator: Sketch 52.4 (67378) - http://www.bohemiancoding.com/sketch -->
    <title>currency</title>
    <desc>Created with Sketch.</desc>
    <g id="Page-1" stroke="none" stroke-width="1" fill="none" fill-rule="evenodd">
        <g id="currency" transform="translate(0.500000, 1.296387)">
            <rect id="Rectangle-6" stroke="#9B9B9B" transform="translate(20.000000, 5.500000) rotate(-180.000000) translate(-20.000000, -5.500000) " x="3.55271368e-15" y="0" width="40" height="11" rx="1"></rect>
            <path d="M10,5.32907052e-15 L10,11" id="Line-Copy" stroke="#9B9B9B" stroke-linecap="square" transform="translate(10.000000, 5.500000) rotate(-180.000000) translate(-10.000000, -5.500000) "></path>
            <path d="M2.44442655,5.74399683 C2.44442655,5.6376387 2.47648991,5.54614081 2.5406176,5.4695004 C2.6047453,5.39285998 2.70249946,5.35454035 2.83388302,5.35454035 L3.33595342,5.35454035 L3.33595342,4.24717013 C3.33595342,3.95312121 3.38052931,3.67393532 3.46968245,3.4096041 C3.55883558,3.14527288 3.69256327,2.91379103 3.87086954,2.71515159 C4.0491758,2.51651216 4.27283733,2.35932346 4.54186082,2.2435808 C4.8108843,2.12783814 5.12682575,2.06996767 5.48969465,2.06996767 C5.73682087,2.06996767 5.95970036,2.10203104 6.1583398,2.16615873 C6.35697923,2.23028642 6.53371876,2.31709212 6.68856367,2.42657842 C6.84340859,2.53606472 6.97791832,2.66510022 7.09209689,2.81368877 C7.20627546,2.96227733 7.30559369,3.12259415 7.39005455,3.29464406 L6.92552213,3.5902556 C6.81603583,3.64656284 6.7120254,3.67158791 6.61348773,3.66533155 C6.51495005,3.65907519 6.42501623,3.60902505 6.34368354,3.51517965 C6.28424812,3.44635969 6.22559562,3.38301499 6.16772429,3.32514366 C6.10985296,3.26727233 6.04807233,3.2172222 5.98238055,3.17499177 C5.91668877,3.13276134 5.84395967,3.10069797 5.76419108,3.07880071 C5.68442248,3.05690345 5.59292459,3.04595498 5.48969465,3.04595498 C5.1674921,3.04595498 4.92662584,3.15152948 4.76708866,3.36268163 C4.60755147,3.57383379 4.52778408,3.86709628 4.52778408,4.24247789 L4.52778408,5.35454035 L6.44691297,5.35454035 L6.44691297,5.81438053 C6.44691297,5.88945685 6.41563164,5.95827578 6.35306804,6.02083938 C6.29050443,6.08340298 6.2123011,6.11468432 6.1184557,6.11468432 L4.52778408,6.11468432 L4.52778408,7.02498017 C4.52778408,7.23144006 4.48946444,7.41521788 4.41282403,7.57631916 C4.33618362,7.73742043 4.23217319,7.88678879 4.10078963,8.02442872 C4.21340411,7.99940328 4.3260169,7.97985244 4.43863139,7.96577563 C4.55124587,7.95169882 4.6669868,7.94466052 4.78585764,7.94466052 L7.5355142,7.94466052 L7.5355142,8.43265418 C7.5355142,8.48896142 7.5237837,8.54683188 7.50032235,8.60626731 C7.476861,8.66570273 7.44323357,8.71966302 7.39943905,8.76814982 C7.35564453,8.81663661 7.30246626,8.85573827 7.23990266,8.88545598 C7.17733906,8.91517369 7.10852013,8.93003233 7.03344381,8.93003233 L2.53827148,8.93003233 L2.53827148,8.20273409 C2.64150142,8.17770865 2.74160169,8.14251715 2.83857527,8.09715854 C2.93554885,8.05179993 3.02079048,7.99392947 3.09430271,7.92354541 C3.16781495,7.85316136 3.22646744,7.77026583 3.27026196,7.67485634 C3.31405648,7.57944685 3.33595342,7.46761608 3.33595342,7.3393607 L3.33595342,6.11468432 L2.44442655,6.11468432 L2.44442655,5.74399683 Z" id="£" fill="#9B9B9B" transform="translate(4.989970, 5.500000) rotate(-360.000000) translate(-4.989970, -5.500000) "></path>
        </g>
    </g>
</svg>