
<svg width="42px" height="12px" viewBox="0 0 42 12" version="1.1" xmlns="http://www.w3.org/2000/svg" xmlns:xlink="http://www.w3.org/1999/xlink">
    <!-- Generator: Sketch 48 (47235) - http://www.bohemiancoding.com/sketch -->
    <desc>Created with Sketch.</desc>
    <defs></defs>
    <g id="Page-1" stroke="none" stroke-width="1" fill="none" fill-rule="evenodd">
        <g id="number">
            <rect id="Rectangle-6" stroke="#9B9B9B" x="0.740469" y="0.5" width="40" height="11" rx="1"></rect>
            <g id="123" transform="translate(3.240469, 3.000000)" fill="#9B9B9B">
                <path d="M3.58707331,5.456 L3.58707331,6 L0.51507331,6 L0.51507331,5.456 L1.74307331,5.456 L1.74307331,1.548 C1.74307331,1.43066608 1.74707327,1.3120006 1.75507331,1.192 L0.73507331,2.068 C0.70040647,2.09733348 0.66574015,2.1153333 0.63107331,2.122 C0.59640647,2.1286667 0.56440679,2.12933336 0.53507331,2.124 C0.50573983,2.11866664 0.47840677,2.10800008 0.45307331,2.092 C0.42773985,2.07599992 0.40840671,2.05866676 0.39507331,2.04 L0.17107331,1.732 L1.87907331,0.256 L2.45907331,0.256 L2.45907331,5.456 L3.58707331,5.456 Z M8.10307331,5.324 C8.18040703,5.324 8.24173975,5.34666644 8.28707331,5.392 C8.33240687,5.43733356 8.35507331,5.49599964 8.35507331,5.568 L8.35507331,6 L4.53107331,6 L4.53107331,5.756 C4.53107331,5.70533308 4.54173987,5.6533336 4.56307331,5.6 C4.58440675,5.5466664 4.61773975,5.49733356 4.66307331,5.452 L6.49907331,3.608 C6.65107407,3.45333256 6.78973935,3.30466738 6.91507331,3.162 C7.04040727,3.01933262 7.14707287,2.87600072 7.23507331,2.732 C7.32307375,2.58799928 7.39107307,2.44200074 7.43907331,2.294 C7.48707355,2.14599926 7.51107331,1.98800084 7.51107331,1.82 C7.51107331,1.65199916 7.48440691,1.5046673 7.43107331,1.378 C7.37773971,1.2513327 7.30507377,1.14666708 7.21307331,1.064 C7.12107285,0.98133292 7.01240727,0.91933354 6.88707331,0.878 C6.76173935,0.83666646 6.62707403,0.816 6.48307331,0.816 C6.33640591,0.816 6.20174059,0.83733312 6.07907331,0.88 C5.95640603,0.92266688 5.84774045,0.98199962 5.75307331,1.058 C5.65840617,1.13400038 5.57907363,1.22399948 5.51507331,1.328 C5.45107299,1.43200052 5.40574011,1.54666604 5.37907331,1.672 C5.34707315,1.7653338 5.30374025,1.82733318 5.24907331,1.858 C5.19440637,1.88866682 5.11774047,1.8973334 5.01907331,1.884 L4.64707331,1.82 C4.68440683,1.55866536 4.75707277,1.32733434 4.86507331,1.126 C4.97307385,0.92466566 5.10907249,0.75600068 5.27307331,0.62 C5.43707413,0.48399932 5.62440559,0.38066702 5.83507331,0.31 C6.04574103,0.23933298 6.27373875,0.204 6.51907331,0.204 C6.76174119,0.204 6.98840559,0.23999964 7.19907331,0.312 C7.40974103,0.38400036 7.59240587,0.48866598 7.74707331,0.626 C7.90174075,0.76333402 8.02307287,0.93066568 8.11107331,1.128 C8.19907375,1.32533432 8.24307331,1.54933208 8.24307331,1.8 C8.24307331,2.0133344 8.21107363,2.21133242 8.14707331,2.394 C8.08307299,2.57666758 7.99640719,2.75066584 7.88707331,2.916 C7.77773943,3.08133416 7.65174069,3.24266588 7.50907331,3.4 C7.36640593,3.55733412 7.21507411,3.7159992 7.05507331,3.876 L5.54307331,5.42 C5.64974051,5.39066652 5.75773943,5.36733342 5.86707331,5.35 C5.97640719,5.33266658 6.08173947,5.324 6.18307331,5.324 L8.10307331,5.324 Z M9.31507331,1.82 C9.35240683,1.55866536 9.42440611,1.32733434 9.53107331,1.126 C9.63774051,0.92466566 9.77307249,0.75600068 9.93707331,0.62 C10.1010741,0.48399932 10.2890722,0.38066702 10.5010733,0.31 C10.7130744,0.23933298 10.9417387,0.204 11.1870733,0.204 C11.4297412,0.204 11.6537389,0.23866632 11.8590733,0.308 C12.0644077,0.37733368 12.2410726,0.47599936 12.3890733,0.604 C12.537074,0.73200064 12.6524062,0.88666576 12.7350733,1.068 C12.8177404,1.24933424 12.8590733,1.45066556 12.8590733,1.672 C12.8590733,1.85333424 12.8357402,2.01533262 12.7890733,2.158 C12.7424064,2.30066738 12.6757404,2.4253328 12.5890733,2.532 C12.5024062,2.6386672 12.3977406,2.72933296 12.2750733,2.804 C12.152406,2.87866704 12.0150741,2.93999976 11.8630733,2.988 C12.2364085,3.08400048 12.5170724,3.2486655 12.7050733,3.482 C12.8930742,3.7153345 12.9870733,4.00666492 12.9870733,4.356 C12.9870733,4.62000132 12.9370738,4.85733228 12.8370733,5.068 C12.7370728,5.27866772 12.6004075,5.45799926 12.4270733,5.606 C12.2537391,5.75400074 12.0517411,5.86733294 11.8210733,5.946 C11.5904055,6.02466706 11.3430746,6.064 11.0790733,6.064 C10.7750718,6.064 10.5150744,6.02600038 10.2990733,5.95 C10.0830722,5.87399962 9.90040739,5.769334 9.75107331,5.636 C9.60173923,5.502666 9.47907379,5.34466758 9.38307331,5.162 C9.28707283,4.97933242 9.20574031,4.7813344 9.13907331,4.568 L9.44707331,4.44 C9.52707371,4.40533316 9.60507293,4.39599992 9.68107331,4.412 C9.75707369,4.42800008 9.81240647,4.47199964 9.84707331,4.544 C9.88174015,4.61866704 9.92507305,4.70799948 9.97707331,4.812 C10.0290736,4.91600052 10.1004062,5.01599952 10.1910733,5.112 C10.2817404,5.20800048 10.3970726,5.289333 10.5370733,5.356 C10.677074,5.422667 10.8550722,5.456 11.0710733,5.456 C11.2710743,5.456 11.4464059,5.42333366 11.5970733,5.358 C11.7477407,5.29266634 11.8730728,5.20800052 11.9730733,5.104 C12.0730738,4.99999948 12.1484064,4.88400064 12.1990733,4.756 C12.2497402,4.62799936 12.2750733,4.50133396 12.2750733,4.376 C12.2750733,4.22133256 12.2550735,4.08000064 12.2150733,3.952 C12.1750731,3.82399936 12.1004072,3.7133338 11.9910733,3.62 C11.8817394,3.5266662 11.7317409,3.4533336 11.5410733,3.4 C11.3504057,3.3466664 11.1057415,3.32 10.8070733,3.32 L10.8070733,2.804 C11.0524079,2.80133332 11.2610724,2.77466692 11.4330733,2.724 C11.6050742,2.67333308 11.7450728,2.60400044 11.8530733,2.516 C11.9610738,2.42799956 12.0397397,2.32266728 12.0890733,2.2 C12.1384069,2.07733272 12.1630733,1.94133408 12.1630733,1.792 C12.1630733,1.62666584 12.1370736,1.48266728 12.0850733,1.36 C12.033073,1.23733272 11.9617404,1.1360004 11.8710733,1.056 C11.7804062,0.9759996 11.6730739,0.9160002 11.5490733,0.876 C11.4250727,0.8359998 11.291074,0.816 11.1470733,0.816 C11.0030726,0.816 10.8690739,0.83733312 10.7450733,0.88 C10.6210727,0.92266688 10.5117404,0.98199962 10.4170733,1.058 C10.3224062,1.13400038 10.2430736,1.22399948 10.1790733,1.328 C10.115073,1.43200052 10.0697401,1.54666604 10.0430733,1.672 C10.0084065,1.7653338 9.96507357,1.82733318 9.91307331,1.858 C9.86107305,1.88866682 9.78574047,1.8973334 9.68707331,1.884 L9.31507331,1.82 Z"></path>
            </g>
            <path d="M17.442815,2.5 L17.442815,9.5" id="Line" stroke="#979797" stroke-width="0.5" stroke-linecap="square"></path>
        </g>
    </g>
</svg>
