<?xml version="1.0" encoding="UTF-8"?>
<svg width="13px" height="13px" viewBox="0 0 13 13" version="1.1" xmlns="http://www.w3.org/2000/svg" xmlns:xlink="http://www.w3.org/1999/xlink">
    <title>Group 16</title>
    <defs>
        <polygon id="path-1" points="3.86014781 5.52274422 1.72654918 3.34601044 1 4.08202834 3.86014781 7 10 0.736017897 9.27856737 0"></polygon>
        <rect id="path-3" x="0" y="0" width="25.7936508" height="24.8015873"></rect>
    </defs>
    <g id="OR-answer-option" stroke="none" stroke-width="1" fill="none" fill-rule="evenodd">
        <g id="Quesiton-page---answer-menu-2" transform="translate(-673.000000, -821.000000)">
            <g id="Group-16" transform="translate(673.000000, 821.000000)">
                <g id="ic_check" transform="translate(1.000000, 3.000000)">
                    <mask id="mask-2" fill="white">
                        <use xlink:href="#path-1"></use>
                    </mask>
                    <g id="Mask"></g>
                    <g id="🎨-Color" mask="url(#mask-2)">
                        <g transform="translate(-8.000000, -9.000000)">
                            <mask id="mask-4" fill="white">
                                <use xlink:href="#path-3"></use>
                            </mask>
                            <use id="Black" stroke="none" fill="#666666" fill-rule="evenodd" xlink:href="#path-3"></use>
                        </g>
                    </g>
                </g>
                <path d="M6.5,12 C7.50086044,12 8.43498283,11.7475075 9.30239521,11.242515 C10.1475662,10.7594786 10.8147965,10.1008026 11.3041061,9.26646707 C11.815657,8.41017536 12.0714286,7.48802889 12.0714286,6.5 C12.0714286,5.51197111 11.815657,4.58982464 11.3041061,3.73353293 C10.8147965,2.89919743 10.1475662,2.24052138 9.30239521,1.75748503 C8.43498283,1.25249249 7.50086044,1 6.5,1 C5.49913956,1 4.56501717,1.25249249 3.69760479,1.75748503 C2.85243376,2.24052138 2.18520347,2.89919743 1.69589393,3.73353293 C1.18434304,4.58982464 0.928571429,5.51197111 0.928571429,6.5 C0.928571429,7.48802889 1.18434304,8.41017536 1.69589393,9.26646707 C2.18520347,10.1008026 2.85243376,10.7594786 3.69760479,11.242515 C4.56501717,11.7475075 5.49913956,12 6.5,12 Z M6.5,0 C7.68750594,0 8.78645328,0.296872031 9.796875,0.890625 C10.7760466,1.45312781 11.5468722,2.22395344 12.109375,3.203125 C12.703128,4.21354672 13,5.31249406 13,6.5 C13,7.68750594 12.703128,8.78645328 12.109375,9.796875 C11.5468722,10.7760466 10.7760466,11.5468722 9.796875,12.109375 C8.78645328,12.703128 7.68750594,13 6.5,13 C5.31249406,13 4.21354672,12.703128 3.203125,12.109375 C2.22395344,11.5364555 1.45312781,10.7604216 0.890625,9.78125 C0.296872031,8.77082828 0,7.67708922 0,6.5 C0,5.32291078 0.296872031,4.22917172 0.890625,3.21875 C1.46354453,2.23957844 2.23957844,1.46354453 3.21875,0.890625 C4.22917172,0.296872031 5.32291078,0 6.5,0 Z" id="radio_button_checked---material" fill="#666666"></path>
            </g>
        </g>
    </g>
</svg>