<?xml version="1.0" encoding="UTF-8"?>
<svg width="42px" height="12px" viewBox="0 0 42 12" version="1.1" xmlns="http://www.w3.org/2000/svg" xmlns:xlink="http://www.w3.org/1999/xlink">
    <!-- Generator: Sketch 52.4 (67378) - http://www.bohemiancoding.com/sketch -->
    <title>percentage</title>
    <desc>Created with Sketch.</desc>
    <g id="Page-1" stroke="none" stroke-width="1" fill="none" fill-rule="evenodd">
        <g id="percentage">
            <rect id="Rectangle-6" stroke="#9B9B9B" x="0.740469" y="0.5" width="40" height="11" rx="1"></rect>
            <path d="M30.9709034,0.5 L30.9709034,11.5" id="Line-Copy" stroke="#9B9B9B" stroke-linecap="square"></path>
            <path d="M35.3731641,4.47029687 C35.3731641,4.68896463 35.3364978,4.88629599 35.2631641,5.06229687 C35.1898304,5.23829775 35.0918313,5.38829625 34.9691641,5.51229687 C34.8464968,5.63629749 34.7038315,5.73162987 34.5411641,5.79829687 C34.3784966,5.86496387 34.2091649,5.89829687 34.0331641,5.89829687 C33.8411631,5.89829687 33.6638315,5.86496387 33.5011641,5.79829687 C33.3384966,5.73162987 33.1978313,5.63629749 33.0791641,5.51229687 C32.9604968,5.38829625 32.8678311,5.23829775 32.8011641,5.06229687 C32.7344971,4.88629599 32.7011641,4.68896463 32.7011641,4.47029687 C32.7011641,4.24629575 32.7344971,4.04363111 32.8011641,3.86229687 C32.8678311,3.68096263 32.9604968,3.52763083 33.0791641,3.40229687 C33.1978313,3.27696291 33.3384966,3.18029721 33.5011641,3.11229687 C33.6638315,3.04429653 33.8411631,3.01029687 34.0331641,3.01029687 C34.225165,3.01029687 34.4031632,3.04429653 34.5671641,3.11229687 C34.7311649,3.18029721 34.8731635,3.27696291 34.9931641,3.40229687 C35.1131647,3.52763083 35.2064971,3.68096263 35.2731641,3.86229687 C35.3398311,4.04363111 35.3731641,4.24629575 35.3731641,4.47029687 Z M34.6131641,4.47029687 C34.6131641,4.31562943 34.5978309,4.18629739 34.5671641,4.08229687 C34.5364972,3.97829635 34.4951643,3.89429719 34.4431641,3.83029687 C34.3911638,3.76629655 34.3298311,3.72029701 34.2591641,3.69229687 C34.188497,3.66429673 34.1131645,3.65029687 34.0331641,3.65029687 C33.9531637,3.65029687 33.8784977,3.66429673 33.8091641,3.69229687 C33.7398304,3.72029701 33.6804976,3.76629655 33.6311641,3.83029687 C33.5818305,3.89429719 33.5424975,3.97829635 33.5131641,4.08229687 C33.4838306,4.18629739 33.4691641,4.31562943 33.4691641,4.47029687 C33.4691641,4.61963095 33.4838306,4.74429637 33.5131641,4.84429687 C33.5424975,4.94429737 33.5818305,5.02496323 33.6311641,5.08629687 C33.6804976,5.14763051 33.7398304,5.19163007 33.8091641,5.21829687 C33.8784977,5.24496367 33.9531637,5.25829687 34.0331641,5.25829687 C34.1131645,5.25829687 34.188497,5.24496367 34.2591641,5.21829687 C34.3298311,5.19163007 34.3911638,5.14763051 34.4431641,5.08629687 C34.4951643,5.02496323 34.5364972,4.94429737 34.5671641,4.84429687 C34.5978309,4.74429637 34.6131641,4.61963095 34.6131641,4.47029687 Z M37.2971641,3.22629687 C37.3318309,3.18629667 37.3724972,3.15029703 37.4191641,3.11829687 C37.465831,3.08629671 37.5318303,3.07029687 37.6171641,3.07029687 L38.3371641,3.07029687 L34.0411641,8.70629687 C34.0064972,8.74896375 33.9651643,8.78429673 33.9171641,8.81229687 C33.8691638,8.84029701 33.8104977,8.85429687 33.7411641,8.85429687 L33.0051641,8.85429687 L37.2971641,3.22629687 Z M38.6411641,7.49429687 C38.6411641,7.71296463 38.6044978,7.91029599 38.5311641,8.08629687 C38.4578304,8.26229775 38.3598313,8.41229625 38.2371641,8.53629687 C38.1144968,8.66029749 37.9718315,8.75629653 37.8091641,8.82429687 C37.6464966,8.89229721 37.4771649,8.92629687 37.3011641,8.92629687 C37.1091631,8.92629687 36.9318315,8.89229721 36.7691641,8.82429687 C36.6064966,8.75629653 36.4658313,8.66029749 36.3471641,8.53629687 C36.2284968,8.41229625 36.1358311,8.26229775 36.0691641,8.08629687 C36.0024971,7.91029599 35.9691641,7.71296463 35.9691641,7.49429687 C35.9691641,7.27029575 36.0024971,7.06763111 36.0691641,6.88629687 C36.1358311,6.70496263 36.2284968,6.55163083 36.3471641,6.42629687 C36.4658313,6.30096291 36.6064966,6.20429721 36.7691641,6.13629687 C36.9318315,6.06829653 37.1091631,6.03429687 37.3011641,6.03429687 C37.493165,6.03429687 37.6711632,6.06829653 37.8351641,6.13629687 C37.9991649,6.20429721 38.1404968,6.30096291 38.2591641,6.42629687 C38.3778313,6.55163083 38.4711637,6.70496263 38.5391641,6.88629687 C38.6071644,7.06763111 38.6411641,7.27029575 38.6411641,7.49429687 Z M37.8771641,7.49429687 C37.8771641,7.33962943 37.8624975,7.21029739 37.8331641,7.10629687 C37.8038306,7.00229635 37.7631643,6.91829719 37.7111641,6.85429687 C37.6591638,6.79029655 37.5978311,6.74429701 37.5271641,6.71629687 C37.456497,6.68829673 37.3811645,6.67429687 37.3011641,6.67429687 C37.2211637,6.67429687 37.1464977,6.68829673 37.0771641,6.71629687 C37.0078304,6.74429701 36.947831,6.79029655 36.8971641,6.85429687 C36.8464971,6.91829719 36.8071642,7.00229635 36.7791641,7.10629687 C36.7511639,7.21029739 36.7371641,7.33962943 36.7371641,7.49429687 C36.7371641,7.64363095 36.7511639,7.76896303 36.7791641,7.87029687 C36.8071642,7.97163071 36.8464971,8.05296323 36.8971641,8.11429687 C36.947831,8.17563051 37.0078304,8.21963007 37.0771641,8.24629687 C37.1464977,8.27296367 37.2211637,8.28629687 37.3011641,8.28629687 C37.3811645,8.28629687 37.456497,8.27296367 37.5271641,8.24629687 C37.5978311,8.21963007 37.6591638,8.17563051 37.7111641,8.11429687 C37.7631643,8.05296323 37.8038306,7.97163071 37.8331641,7.87029687 C37.8624975,7.76896303 37.8771641,7.64363095 37.8771641,7.49429687 Z" id="%" fill="#9B9B9B"></path>
        </g>
    </g>
</svg>