
<?xml version="1.0" encoding="UTF-8"?>
<svg width="42px" height="13px" viewBox="0 0 42 13" version="1.1" xmlns="http://www.w3.org/2000/svg" xmlns:xlink="http://www.w3.org/1999/xlink">
    <!-- Generator: Sketch 52.4 (67378) - http://www.bohemiancoding.com/sketch -->
    <title>measurement</title>
    <desc>Created with Sketch.</desc>
    <g id="Page-1" stroke="none" stroke-width="1" fill="none" fill-rule="evenodd">
        <g id="measurement" transform="translate(1.000000, 1.245117)">
            <rect id="Rectangle-6" stroke="#9B9B9B" transform="translate(20.000000, 5.500000) rotate(-180.000000) translate(-20.000000, -5.500000) " x="3.55271368e-15" y="0" width="40" height="11" rx="1"></rect>
            <path d="M30,5.32907052e-15 L30,11" id="Line-Copy" stroke="#9B9B9B" stroke-linecap="square" transform="translate(30.000000, 5.500000) rotate(-180.000000) translate(-30.000000, -5.500000) "></path>
            <path d="M37.60843,3.05436297 L37.60843,7.94563703 L36.6080185,7.94563703 L36.6080185,5.1323991 C36.6080185,5.06749512 36.609697,4.99699702 36.6130541,4.92090269 C36.6164112,4.84480837 36.6225658,4.76759617 36.6315181,4.68926377 L35.3323258,7.20372106 C35.2920406,7.28205346 35.2377683,7.34136138 35.1695072,7.38164661 C35.1012461,7.42193184 35.0234744,7.44207416 34.9361897,7.44207416 L34.7817638,7.44207416 C34.6944791,7.44207416 34.6167074,7.42193184 34.5484463,7.38164661 C34.4801852,7.34136138 34.4259129,7.28205346 34.3856276,7.20372106 L33.0864354,4.6825496 C33.0931496,4.76312006 33.0987447,4.84201079 33.1032208,4.91922415 C33.107697,4.99643751 33.109935,5.06749512 33.109935,5.1323991 L33.109935,7.94563703 L32.1095234,7.94563703 L32.1095234,3.05436297 L32.9756516,3.05436297 C33.0248891,3.05436297 33.0679713,3.05548199 33.1048994,3.05772005 C33.1418275,3.05995812 33.1748385,3.06667223 33.2039334,3.07786257 C33.2330283,3.08905291 33.2593252,3.10639768 33.2828249,3.1298974 C33.3063247,3.15339712 33.3292645,3.18640813 33.3516452,3.22893143 L34.6105524,5.70981786 C34.6553138,5.79486446 34.6983959,5.88326684 34.7398002,5.97502765 C34.7812045,6.06678845 34.8209296,6.16078591 34.8589767,6.25702286 C34.8970239,6.15854785 34.936749,6.06231235 34.9781533,5.96831347 C35.0195575,5.8743146 35.0637587,5.78479321 35.1107582,5.69974661 L36.3663083,3.22893143 C36.388689,3.18640813 36.4116288,3.15339712 36.4351285,3.1298974 C36.4586283,3.10639768 36.4849252,3.08905291 36.5140201,3.07786257 C36.5431149,3.06667223 36.576126,3.05995812 36.6130541,3.05772005 C36.6499822,3.05548199 36.6930644,3.05436297 36.7423019,3.05436297 L37.60843,3.05436297 Z" id="M" fill="#9B9B9B"></path>
        </g>
    </g>
</svg>