<?xml version="1.0" encoding="UTF-8"?>
<svg width="32px" height="32px" viewBox="0 0 32 32" version="1.1" xmlns="http://www.w3.org/2000/svg" xmlns:xlink="http://www.w3.org/1999/xlink">
	<!-- Generator: Sketch 52.3 (67297) - http://www.bohemiancoding.com/sketch -->
	<title>
		icon-share
	</title>
	<desc>
		Created with Sketch.
	</desc>
	<g id="icon-share" stroke="none" stroke-width="1" fill="none" fill-rule="evenodd">
		<path d="M19.6445312,19.42 C20.0712001,19.42 20.471196,19.5299989 20.8445312,19.75 C21.2178665,19.9700011 21.5145301,20.2666648 21.7345312,20.64 C21.9545324,21.0133352 22.0645313,21.4133312 22.0645313,21.84 C22.0645313,22.2666688 21.9545324,22.6699981 21.7345312,23.05 C21.5145301,23.4300019 21.2178665,23.7333322 20.8445312,23.96 C20.471196,24.1866678 20.0712001,24.3 19.6445312,24.3 C19.2178624,24.3 18.8178665,24.1866678 18.4445313,23.96 C18.0711961,23.7333322 17.7745324,23.4300019 17.5545313,23.05 C17.3345301,22.6699981 17.2245313,22.2666688 17.2245312,21.84 C17.2245313,21.573332 17.2378645,21.3933338 17.2645313,21.3 L11.3645312,17.86 C10.8845289,18.3000022 10.3112012,18.52 9.64453125,18.52 C9.20452905,18.52 8.79119985,18.4066678 8.40453125,18.18 C8.01786265,17.9533322 7.71119905,17.6466686 7.48453125,17.26 C7.25786345,16.8733314 7.14453125,16.4600022 7.14453125,16.02 C7.14453125,15.5799978 7.25786345,15.1666686 7.48453125,14.78 C7.71119905,14.3933314 8.01786265,14.0866678 8.40453125,13.86 C8.79119985,13.6333322 9.20452905,13.52 9.64453125,13.52 C10.3112012,13.52 10.8845289,13.7399978 11.3645312,14.18 L17.2245312,10.78 C17.1711976,10.513332 17.1445312,10.3200006 17.1445312,10.2 C17.1445312,9.7599978 17.2578635,9.3466686 17.4845312,8.96 C17.711199,8.5733314 18.0178626,8.2666678 18.4045312,8.04 C18.7911998,7.8133322 19.204529,7.7 19.6445312,7.7 C20.0845335,7.7 20.4978627,7.8133322 20.8845313,8.04 C21.2711999,8.2666678 21.5778635,8.5733314 21.8045313,8.96 C22.031199,9.3466686 22.1445312,9.7599978 22.1445312,10.2 C22.1445312,10.6400022 22.031199,11.0533314 21.8045313,11.44 C21.5778635,11.8266686 21.2711999,12.1333322 20.8845313,12.36 C20.4978627,12.5866678 20.0845335,12.7 19.6445312,12.7 C19.0311948,12.7 18.4578672,12.466669 17.9245313,12 L12.0645312,15.44 C12.1178649,15.6800012 12.1445312,15.866666 12.1445312,16 C12.1445312,16.133334 12.1178649,16.333332 12.0645312,16.6 L18.0045312,20.04 C18.4845336,19.6266646 19.0311948,19.42 19.6445312,19.42 Z" id="share---material" fill="#fff">
		</path>
	</g>
</svg>
