
<svg width="29px" height="14px" viewBox="0 0 29 14" version="1.1" xmlns="http://www.w3.org/2000/svg" xmlns:xlink="http://www.w3.org/1999/xlink">
    <!-- Generator: Sketch 48 (47235) - http://www.bohemiancoding.com/sketch -->
    <desc>Created with Sketch.</desc>
    <defs>
        <rect id="path-1" x="2" y="0" width="2" height="1"></rect>
        <rect id="path-2" x="7" y="0" width="2" height="1"></rect>
        <rect id="path-3" x="2" y="8" width="2" height="2"></rect>
        <rect id="path-4" x="18" y="8" width="2" height="2"></rect>
        <rect id="path-5" x="2" y="0" width="2" height="1"></rect>
        <rect id="path-6" x="7" y="0" width="2" height="1"></rect>
    </defs>
    <g id="Page-1" stroke="none" stroke-width="1" fill="none" fill-rule="evenodd">
        <g id="date_range-copy" transform="translate(1.000000, 0.000000)">
            <g id="date-copy">
                <path d="M1,1.5 L10,1.5 C10.8284271,1.5 11.5,2.17157288 11.5,3 L11.5,12 C11.5,12.8284271 10.8284271,13.5 10,13.5 L1,13.5 C0.171572875,13.5 -0.5,12.8284271 -0.5,12 L-0.5,3 C-0.5,2.17157288 0.171572875,1.5 1,1.5 Z" id="Rectangle-6" stroke="#9B9B9B"></path>
                <rect id="Rectangle-2" fill="#9B9B9B" x="0" y="2" width="11" height="4"></rect>
                <g id="Rectangle">
                    <use fill="#D8D8D8" fill-rule="evenodd" xlink:href="#path-1"></use>
                    <rect stroke="#979797" stroke-width="1" x="2.5" y="0.5" width="1" height="1"></rect>
                </g>
                <g id="Rectangle-Copy">
                    <use fill="#D8D8D8" fill-rule="evenodd" xlink:href="#path-2"></use>
                    <rect stroke="#979797" stroke-width="1" x="7.5" y="0.5" width="1" height="1"></rect>
                </g>
            </g>
            <g id="Rectangle-3">
                <use fill="#D8D8D8" fill-rule="evenodd" xlink:href="#path-3"></use>
                <rect stroke="#979797" stroke-width="1" x="2.5" y="8.5" width="1" height="1"></rect>
            </g>
            <g id="Rectangle-3-Copy">
                <use fill="#D8D8D8" fill-rule="evenodd" xlink:href="#path-4"></use>
                <rect stroke="#979797" stroke-width="1" x="18.5" y="8.5" width="1" height="1"></rect>
            </g>
            <g id="date-copy-2" transform="translate(16.000000, 0.000000)">
                <path d="M1,1.5 L10,1.5 C10.8284271,1.5 11.5,2.17157288 11.5,3 L11.5,12 C11.5,12.8284271 10.8284271,13.5 10,13.5 L1,13.5 C0.171572875,13.5 -0.5,12.8284271 -0.5,12 L-0.5,3 C-0.5,2.17157288 0.171572875,1.5 1,1.5 Z" id="Rectangle-6" stroke="#9B9B9B"></path>
                <rect id="Rectangle-2" fill="#9B9B9B" x="0" y="2" width="11" height="4"></rect>
                <g id="Rectangle">
                    <use fill="#D8D8D8" fill-rule="evenodd" xlink:href="#path-5"></use>
                    <rect stroke="#979797" stroke-width="1" x="2.5" y="0.5" width="1" height="1"></rect>
                </g>
                <g id="Rectangle-Copy">
                    <use fill="#D8D8D8" fill-rule="evenodd" xlink:href="#path-6"></use>
                    <rect stroke="#979797" stroke-width="1" x="7.5" y="0.5" width="1" height="1"></rect>
                </g>
            </g>
        </g>
    </g>
</svg>
