<?xml version="1.0" encoding="UTF-8"?>
<svg width="32px" height="32px" viewBox="0 0 32 32" version="1.1" xmlns="http://www.w3.org/2000/svg" xmlns:xlink="http://www.w3.org/1999/xlink">
    <!-- Generator: Sketch 49.3 (51167) - http://www.bohemiancoding.com/sketch -->
    <title>icon-cog</title>
    <desc>Created with Sketch.</desc>
    <defs></defs>
    <g id="icon-cog" stroke="none" stroke-width="1" fill="none" fill-rule="evenodd">
        <path d="M16.001703,18.625 C14.5112855,18.625 13.3030633,17.4497474 13.3030633,16 C13.3030633,14.5502526 14.5112855,13.375 16.001703,13.375 C17.4921206,13.375 18.7003427,14.5502526 18.7003427,16 C18.7003427,17.4497474 17.4921206,18.625 16.001703,18.625 Z M21.7305296,16.7275 C21.7613712,16.4875 21.7845024,16.2475 21.7845024,16 C21.7845024,15.7525 21.7613712,15.505 21.7305296,15.25 L23.3574239,14.0275 C23.5039215,13.915 23.5424734,13.7125 23.4499486,13.5475 L21.9078688,10.9525 C21.815344,10.7875 21.6071633,10.72 21.4375344,10.7875 L19.5176451,11.5375 C19.1167043,11.245 18.7003427,10.99 18.2145876,10.8025 L17.9293028,8.815 C17.8984612,8.635 17.7365429,8.5 17.5437829,8.5 L14.4596232,8.5 C14.2668632,8.5 14.1049448,8.635 14.0741032,8.815 L13.7888185,10.8025 C13.3030633,10.99 12.8867018,11.245 12.485761,11.5375 L10.5658716,10.7875 C10.3962428,10.72 10.1880621,10.7875 10.0955373,10.9525 L8.55345744,13.5475 C8.45322225,13.7125 8.49948465,13.915 8.64598223,14.0275 L10.2728765,15.25 C10.2420349,15.505 10.2189037,15.7525 10.2189037,16 C10.2189037,16.2475 10.2420349,16.4875 10.2728765,16.7275 L8.64598223,17.9725 C8.49948465,18.085 8.45322225,18.2875 8.55345744,18.4525 L10.0955373,21.0475 C10.1880621,21.2125 10.3962428,21.2725 10.5658716,21.2125 L12.485761,20.455 C12.8867018,20.755 13.3030633,21.01 13.7888185,21.1975 L14.0741032,23.185 C14.1049448,23.365 14.2668632,23.5 14.4596232,23.5 L17.5437829,23.5 C17.7365429,23.5 17.8984612,23.365 17.9293028,23.185 L18.2145876,21.1975 C18.7003427,21.0025 19.1167043,20.755 19.5176451,20.455 L21.4375344,21.2125 C21.6071633,21.2725 21.815344,21.2125 21.9078688,21.0475 L23.4499486,18.4525 C23.5424734,18.2875 23.5039215,18.085 23.3574239,17.9725 L21.7305296,16.7275 Z" id="Shape" fill="#FFFFFF" fill-rule="nonzero"></path>
    </g>
</svg>