
<svg width="42px" height="12px" viewBox="0 0 42 12" version="1.1" xmlns="http://www.w3.org/2000/svg" xmlns:xlink="http://www.w3.org/1999/xlink">
    <!-- Generator: Sketch 48 (47235) - http://www.bohemiancoding.com/sketch -->
    <desc>Created with Sketch.</desc>
    <defs></defs>
    <g id="Page-1" stroke="none" stroke-width="1" fill="none" fill-rule="evenodd">
        <g id="select">
            <rect id="Rectangle-6" stroke="#9B9B9B" x="0.740469" y="0.5" width="40" height="11" rx="1"></rect>
            <polygon id="Triangle-2" fill="#9B9B9B" fill-rule="nonzero" points="34 7 32 5 36 5"></polygon>
            <g id="Select" transform="translate(4.000000, 3.000000)" fill="#9B9B9B">
                <path d="M3.42353079,1.164 C3.39953067,1.2040002 3.37353093,1.2339999 3.34553079,1.254 C3.31753065,1.2740001 3.28353099,1.284 3.24353079,1.284 C3.19819723,1.284 3.14486443,1.26133356 3.08353079,1.216 C3.02219715,1.17066644 2.94553125,1.12066694 2.85353079,1.066 C2.76153033,1.01133306 2.65086477,0.96133356 2.52153079,0.916 C2.39219681,0.87066644 2.23553171,0.848 2.05153079,0.848 C1.87819659,0.848 1.72553145,0.8713331 1.59353079,0.918 C1.46153013,0.9646669 1.35086457,1.0279996 1.26153079,1.108 C1.17219701,1.1880004 1.10486435,1.28199946 1.05953079,1.39 C1.01419723,1.49800054 0.99153079,1.61466604 0.99153079,1.74 C0.99153079,1.9000008 1.03086373,2.03266614 1.10953079,2.138 C1.18819785,2.24333386 1.29219681,2.33333296 1.42153079,2.408 C1.55086477,2.48266704 1.69752997,2.54733306 1.86153079,2.602 C2.02553161,2.65666694 2.19352993,2.71333304 2.36553079,2.772 C2.53753165,2.83066696 2.70552997,2.8966663 2.86953079,2.97 C3.03353161,3.0433337 3.18019681,3.13599944 3.30953079,3.248 C3.43886477,3.36000056 3.54286373,3.49733252 3.62153079,3.66 C3.70019785,3.82266748 3.73953079,4.02266548 3.73953079,4.26 C3.73953079,4.51066792 3.69686455,4.7459989 3.61153079,4.966 C3.52619703,5.1860011 3.40153161,5.37733252 3.23753079,5.54 C3.07352997,5.70266748 2.87219865,5.8306662 2.63353079,5.924 C2.39486293,6.0173338 2.12353231,6.064 1.81953079,6.064 C1.44619559,6.064 1.10753231,5.99666734 0.80353079,5.862 C0.49952927,5.72733266 0.23953187,5.54533448 0.02353079,5.316 L0.24753079,4.948 C0.26886423,4.91866652 0.29486397,4.8940001 0.32553079,4.874 C0.35619761,4.8539999 0.39019727,4.844 0.42753079,4.844 C0.46219763,4.844 0.50153057,4.85799986 0.54553079,4.886 C0.58953101,4.91400014 0.63953051,4.94933312 0.69553079,4.992 C0.75153107,5.03466688 0.81553043,5.08133308 0.88753079,5.132 C0.95953115,5.18266692 1.04153033,5.22933312 1.13353079,5.272 C1.22553125,5.31466688 1.33019687,5.34999986 1.44753079,5.378 C1.56486471,5.40600014 1.69686339,5.42 1.84353079,5.42 C2.02753171,5.42 2.19153007,5.39466692 2.33553079,5.344 C2.47953151,5.29333308 2.60153029,5.22200046 2.70153079,5.13 C2.80153129,5.03799954 2.87819719,4.92800064 2.93153079,4.8 C2.98486439,4.67199936 3.01153079,4.52933412 3.01153079,4.372 C3.01153079,4.1986658 2.97219785,4.05666722 2.89353079,3.946 C2.81486373,3.83533278 2.71153143,3.74266704 2.58353079,3.668 C2.45553015,3.59333296 2.30886495,3.53000026 2.14353079,3.478 C1.97819663,3.42599974 1.81019831,3.37266694 1.63953079,3.318 C1.46886327,3.26333306 1.30086495,3.20000036 1.13553079,3.128 C0.97019663,3.05599964 0.82353143,2.96266724 0.69553079,2.848 C0.56753015,2.73333276 0.46419785,2.59000086 0.38553079,2.418 C0.30686373,2.24599914 0.26753079,2.0333346 0.26753079,1.78 C0.26753079,1.57733232 0.30686373,1.38133428 0.38553079,1.192 C0.46419785,1.00266572 0.57886337,0.8346674 0.72953079,0.688 C0.88019821,0.5413326 1.06552969,0.42400044 1.28553079,0.336 C1.50553189,0.24799956 1.75819603,0.204 2.04353079,0.204 C2.36353239,0.204 2.65486281,0.25466616 2.91753079,0.356 C3.18019877,0.45733384 3.41152979,0.60399904 3.61153079,0.796 L3.42353079,1.164 Z M7.35153079,3.532 C7.35153079,3.36666584 7.32819769,3.21533402 7.28153079,3.078 C7.23486389,2.94066598 7.16686457,2.8220005 7.07753079,2.722 C6.98819701,2.6219995 6.87953143,2.54466694 6.75153079,2.49 C6.62353015,2.43533306 6.47819827,2.408 6.31553079,2.408 C5.97419575,2.408 5.70419845,2.50733234 5.50553079,2.706 C5.30686313,2.90466766 5.18353103,3.17999824 5.13553079,3.532 L7.35153079,3.532 Z M7.92753079,5.432 C7.83953035,5.5386672 7.73419807,5.63133294 7.61153079,5.71 C7.48886351,5.78866706 7.35753149,5.85333308 7.21753079,5.904 C7.07753009,5.95466692 6.93286487,5.99266654 6.78353079,6.018 C6.63419671,6.04333346 6.48619819,6.056 6.33953079,6.056 C6.05952939,6.056 5.80153197,6.00866714 5.56553079,5.914 C5.32952961,5.81933286 5.12553165,5.68066758 4.95353079,5.498 C4.78152993,5.31533242 4.64753127,5.08933468 4.55153079,4.82 C4.45553031,4.55066532 4.40753079,4.24133508 4.40753079,3.892 C4.40753079,3.60933192 4.45086369,3.34533456 4.53753079,3.1 C4.62419789,2.85466544 4.74886331,2.6420009 4.91153079,2.462 C5.07419827,2.2819991 5.27286295,2.14066718 5.50753079,2.038 C5.74219863,1.93533282 6.00619599,1.884 6.29953079,1.884 C6.54219867,1.884 6.76686309,1.92466626 6.97353079,2.006 C7.18019849,2.08733374 7.35886337,2.2046659 7.50953079,2.358 C7.66019821,2.5113341 7.77819703,2.70066554 7.86353079,2.926 C7.94886455,3.15133446 7.99153079,3.40799856 7.99153079,3.696 C7.99153079,3.80800056 7.97953091,3.88266648 7.95553079,3.92 C7.93153067,3.95733352 7.88619779,3.976 7.81953079,3.976 L5.11153079,3.976 C5.11953083,4.23200128 5.15486381,4.45466572 5.21753079,4.644 C5.28019777,4.83333428 5.36753023,4.9913327 5.47953079,5.118 C5.59153135,5.2446673 5.72486335,5.33933302 5.87953079,5.402 C6.03419823,5.46466698 6.20752983,5.496 6.39953079,5.496 C6.57819835,5.496 6.73219681,5.47533354 6.86153079,5.434 C6.99086477,5.39266646 7.10219699,5.34800024 7.19553079,5.3 C7.28886459,5.25199976 7.36686381,5.20733354 7.42953079,5.166 C7.49219777,5.12466646 7.54619723,5.104 7.59153079,5.104 C7.65019775,5.104 7.69553063,5.12666644 7.72753079,5.172 L7.92753079,5.432 Z M9.59953079,0.108 L9.59953079,6 L8.88753079,6 L8.88753079,0.108 L9.59953079,0.108 Z M13.4635308,3.532 C13.4635308,3.36666584 13.4401977,3.21533402 13.3935308,3.078 C13.3468639,2.94066598 13.2788646,2.8220005 13.1895308,2.722 C13.100197,2.6219995 12.9915314,2.54466694 12.8635308,2.49 C12.7355301,2.43533306 12.5901983,2.408 12.4275308,2.408 C12.0861957,2.408 11.8161984,2.50733234 11.6175308,2.706 C11.4188631,2.90466766 11.295531,3.17999824 11.2475308,3.532 L13.4635308,3.532 Z M14.0395308,5.432 C13.9515303,5.5386672 13.8461981,5.63133294 13.7235308,5.71 C13.6008635,5.78866706 13.4695315,5.85333308 13.3295308,5.904 C13.1895301,5.95466692 13.0448649,5.99266654 12.8955308,6.018 C12.7461967,6.04333346 12.5981982,6.056 12.4515308,6.056 C12.1715294,6.056 11.913532,6.00866714 11.6775308,5.914 C11.4415296,5.81933286 11.2375316,5.68066758 11.0655308,5.498 C10.8935299,5.31533242 10.7595313,5.08933468 10.6635308,4.82 C10.5675303,4.55066532 10.5195308,4.24133508 10.5195308,3.892 C10.5195308,3.60933192 10.5628637,3.34533456 10.6495308,3.1 C10.7361979,2.85466544 10.8608633,2.6420009 11.0235308,2.462 C11.1861983,2.2819991 11.3848629,2.14066718 11.6195308,2.038 C11.8541986,1.93533282 12.118196,1.884 12.4115308,1.884 C12.6541987,1.884 12.8788631,1.92466626 13.0855308,2.006 C13.2921985,2.08733374 13.4708634,2.2046659 13.6215308,2.358 C13.7721982,2.5113341 13.890197,2.70066554 13.9755308,2.926 C14.0608645,3.15133446 14.1035308,3.40799856 14.1035308,3.696 C14.1035308,3.80800056 14.0915309,3.88266648 14.0675308,3.92 C14.0435307,3.95733352 13.9981978,3.976 13.9315308,3.976 L11.2235308,3.976 C11.2315308,4.23200128 11.2668638,4.45466572 11.3295308,4.644 C11.3921978,4.83333428 11.4795302,4.9913327 11.5915308,5.118 C11.7035313,5.2446673 11.8368633,5.33933302 11.9915308,5.402 C12.1461982,5.46466698 12.3195298,5.496 12.5115308,5.496 C12.6901983,5.496 12.8441968,5.47533354 12.9735308,5.434 C13.1028648,5.39266646 13.214197,5.34800024 13.3075308,5.3 C13.4008646,5.25199976 13.4788638,5.20733354 13.5415308,5.166 C13.6041978,5.12466646 13.6581972,5.104 13.7035308,5.104 C13.7621977,5.104 13.8075306,5.12666644 13.8395308,5.172 L14.0395308,5.432 Z M17.7955308,2.668 C17.7741973,2.69733348 17.7528642,2.71999992 17.7315308,2.736 C17.7101973,2.75200008 17.6808643,2.76 17.6435308,2.76 C17.6035306,2.76 17.559531,2.7433335 17.5115308,2.71 C17.4635305,2.6766665 17.4041978,2.6400002 17.3335308,2.6 C17.2628638,2.5599998 17.176198,2.5233335 17.0735308,2.49 C16.9708636,2.4566665 16.8448649,2.44 16.6955308,2.44 C16.4955298,2.44 16.3195315,2.47533298 16.1675308,2.546 C16.01553,2.61666702 15.888198,2.718666 15.7855308,2.852 C15.6828636,2.985334 15.605531,3.14666572 15.5535308,3.336 C15.5015305,3.52533428 15.4755308,3.73733216 15.4755308,3.972 C15.4755308,4.21733456 15.5035305,4.43533238 15.5595308,4.626 C15.6155311,4.81666762 15.6948636,4.97666602 15.7975308,5.106 C15.900198,5.23533398 16.0241967,5.33399966 16.1695308,5.402 C16.3148648,5.47000034 16.4781965,5.504 16.6595308,5.504 C16.832865,5.504 16.9755302,5.48333354 17.0875308,5.442 C17.1995313,5.40066646 17.2921971,5.35466692 17.3655308,5.304 C17.4388645,5.25333308 17.5001972,5.20733354 17.5495308,5.166 C17.5988644,5.12466646 17.6475305,5.104 17.6955308,5.104 C17.7541977,5.104 17.7995306,5.12666644 17.8315308,5.172 L18.0315308,5.432 C17.9435303,5.54133388 17.8435313,5.63466628 17.7315308,5.712 C17.6195302,5.78933372 17.4988648,5.85399974 17.3695308,5.906 C17.2401968,5.95800026 17.1048648,5.99599988 16.9635308,6.02 C16.8221967,6.04400012 16.6781982,6.056 16.5315308,6.056 C16.2781962,6.056 16.0428652,6.0093338 15.8255308,5.916 C15.6081964,5.8226662 15.4195316,5.68733422 15.2595308,5.51 C15.09953,5.33266578 14.9741979,5.11466796 14.8835308,4.856 C14.7928637,4.59733204 14.7475308,4.30266832 14.7475308,3.972 C14.7475308,3.67066516 14.7895304,3.39200128 14.8735308,3.136 C14.9575312,2.87999872 15.0801966,2.65933426 15.2415308,2.474 C15.4028649,2.28866574 15.6015296,2.14400052 15.8375308,2.04 C16.073532,1.93599948 16.3448626,1.884 16.6515308,1.884 C16.9368655,1.884 17.1881964,1.92999954 17.4055308,2.022 C17.6228652,2.11400046 17.8155299,2.24399916 17.9835308,2.412 L17.7955308,2.668 Z M20.0395308,6.064 C19.7195292,6.064 19.4735316,5.97466756 19.3015308,5.796 C19.1295299,5.61733244 19.0435308,5.36000168 19.0435308,5.024 L19.0435308,2.544 L18.5555308,2.544 C18.5128639,2.544 18.4768643,2.53133346 18.4475308,2.506 C18.4181973,2.48066654 18.4035308,2.4413336 18.4035308,2.388 L18.4035308,2.104 L19.0675308,2.02 L19.2315308,0.768 C19.2395308,0.7279998 19.2575306,0.69533346 19.2855308,0.67 C19.3135309,0.64466654 19.3501972,0.632 19.3955308,0.632 L19.7555308,0.632 L19.7555308,2.028 L20.9275308,2.028 L20.9275308,2.544 L19.7555308,2.544 L19.7555308,4.976 C19.7555308,5.14666752 19.7968637,5.27333292 19.8795308,5.356 C19.9621979,5.43866708 20.0688635,5.48 20.1995308,5.48 C20.2741978,5.48 20.3388638,5.4700001 20.3935308,5.45 C20.4481977,5.4299999 20.4955306,5.40800012 20.5355308,5.384 C20.575531,5.35999988 20.6095306,5.3380001 20.6375308,5.318 C20.6655309,5.2979999 20.6901973,5.288 20.7115308,5.288 C20.7488643,5.288 20.7821973,5.31066644 20.8115308,5.356 L21.0195308,5.696 C20.8968635,5.81066724 20.748865,5.90066634 20.5755308,5.966 C20.4021966,6.03133366 20.2235317,6.064 20.0395308,6.064 Z"></path>
            </g>
        </g>
    </g>
</svg>
