
<svg width="42px" height="12px" viewBox="0 0 42 12" version="1.1" xmlns="http://www.w3.org/2000/svg" xmlns:xlink="http://www.w3.org/1999/xlink">
    <!-- Generator: Sketch 48 (47235) - http://www.bohemiancoding.com/sketch -->
    <desc>Created with Sketch.</desc>
    <defs></defs>
    <g id="Page-1" stroke="none" stroke-width="1" fill="none" fill-rule="evenodd">
        <g id="textfield" transform="translate(1.000000, 0.000000)">
            <rect id="Rectangle-6" stroke="#9B9B9B" x="0.29912" y="0.5" width="40" height="11" rx="1"></rect>
            <g id="abc" transform="translate(2.799120, 3.000000)" fill="#9B9B9B">
                <path d="M3.09707331,4.176 C2.76907167,4.18666672 2.48974113,4.21266646 2.25907331,4.254 C2.02840549,4.29533354 1.84040737,4.349333 1.69507331,4.416 C1.54973925,4.482667 1.44440697,4.56133288 1.37907331,4.652 C1.31373965,4.74266712 1.28107331,4.84399944 1.28107331,4.956 C1.28107331,5.0626672 1.29840647,5.15466628 1.33307331,5.232 C1.36774015,5.30933372 1.41507301,5.37266642 1.47507331,5.422 C1.53507361,5.47133358 1.60573957,5.50733322 1.68707331,5.53 C1.76840705,5.55266678 1.85573951,5.564 1.94907331,5.564 C2.07440727,5.564 2.18907279,5.55133346 2.29307331,5.526 C2.39707383,5.50066654 2.49507285,5.46400024 2.58707331,5.416 C2.67907377,5.36799976 2.76707289,5.310667 2.85107331,5.244 C2.93507373,5.177333 3.01707291,5.10133376 3.09707331,5.016 L3.09707331,4.176 Z M0.79707331,2.52 C1.02107443,2.30399892 1.26240535,2.1426672 1.52107331,2.036 C1.77974127,1.9293328 2.06640507,1.876 2.38107331,1.876 C2.60774111,1.876 2.80907243,1.91333296 2.98507331,1.988 C3.16107419,2.06266704 3.30907271,2.166666 3.42907331,2.3 C3.54907391,2.433334 3.63973967,2.59466572 3.70107331,2.784 C3.76240695,2.97333428 3.79307331,3.1813322 3.79307331,3.408 L3.79307331,6 L3.47707331,6 C3.40773963,6 3.35440683,5.98866678 3.31707331,5.966 C3.27973979,5.94333322 3.25040675,5.898667 3.22907331,5.832 L3.14907331,5.448 C3.04240611,5.54666716 2.93840715,5.63399962 2.83707331,5.71 C2.73573947,5.78600038 2.62907387,5.84999974 2.51707331,5.902 C2.40507275,5.95400026 2.28574061,5.99399986 2.15907331,6.022 C2.03240601,6.05000014 1.89174075,6.064 1.73707331,6.064 C1.57973919,6.064 1.43174067,6.04200022 1.29307331,5.998 C1.15440595,5.95399978 1.03374049,5.88800044 0.93107331,5.8 C0.82840613,5.71199956 0.74707361,5.60066734 0.68707331,5.466 C0.62707301,5.33133266 0.59707331,5.17200092 0.59707331,4.988 C0.59707331,4.8279992 0.64107287,4.67400074 0.72907331,4.526 C0.81707375,4.37799926 0.95973899,4.24666724 1.15707331,4.132 C1.35440763,4.01733276 1.61173839,3.9233337 1.92907331,3.85 C2.24640823,3.7766663 2.63573767,3.73466672 3.09707331,3.724 L3.09707331,3.408 C3.09707331,3.09333176 3.02907399,2.85533414 2.89307331,2.694 C2.75707263,2.53266586 2.55840795,2.452 2.29707331,2.452 C2.12107243,2.452 1.97374057,2.47399978 1.85507331,2.518 C1.73640605,2.56200022 1.63374041,2.61133306 1.54707331,2.666 C1.46040621,2.72066694 1.38574029,2.76999978 1.32307331,2.814 C1.26040633,2.85800022 1.19840695,2.88 1.13707331,2.88 C1.08907307,2.88 1.04774015,2.86733346 1.01307331,2.842 C0.97840647,2.81666654 0.94907343,2.78533352 0.92507331,2.748 L0.79707331,2.52 Z M5.59307331,5.024 C5.72374063,5.20000088 5.86707253,5.32399964 6.02307331,5.396 C6.17907409,5.46800036 6.35040571,5.504 6.53707331,5.504 C6.91840855,5.504 7.21040563,5.36933468 7.41307331,5.1 C7.61574099,4.83066532 7.71707331,4.429336 7.71707331,3.896 C7.71707331,3.39999752 7.62707421,3.0353345 7.44707331,2.802 C7.26707241,2.5686655 7.01040831,2.452 6.67707331,2.452 C6.44507215,2.452 6.24307417,2.5053328 6.07107331,2.612 C5.89907245,2.7186672 5.73974071,2.86933236 5.59307331,3.064 L5.59307331,5.024 Z M5.59307331,2.532 C5.76374083,2.33466568 5.95640557,2.17733392 6.17107331,2.06 C6.38574105,1.94266608 6.63307191,1.884 6.91307331,1.884 C7.15040783,1.884 7.36440569,1.92933288 7.55507331,2.02 C7.74574093,2.11066712 7.90773931,2.24199914 8.04107331,2.414 C8.17440731,2.58600086 8.27640629,2.79466544 8.34707331,3.04 C8.41774033,3.28533456 8.45307331,3.5613318 8.45307331,3.868 C8.45307331,4.19600164 8.41307371,4.49466532 8.33307331,4.764 C8.25307291,5.03333468 8.13774073,5.26333238 7.98707331,5.454 C7.83640589,5.64466762 7.65307439,5.79266614 7.43707331,5.898 C7.22107223,6.00333386 6.97840799,6.056 6.70907331,6.056 C6.44240531,6.056 6.21774089,6.0060005 6.03507331,5.906 C5.85240573,5.8059995 5.69307399,5.66400092 5.55707331,5.48 L5.52107331,5.848 C5.49973987,5.94933384 5.43840715,6 5.33707331,6 L4.87707331,6 L4.87707331,0.108 L5.59307331,0.108 L5.59307331,2.532 Z M12.1770733,2.668 C12.1557399,2.69733348 12.1344068,2.71999992 12.1130733,2.736 C12.0917399,2.75200008 12.0624068,2.76 12.0250733,2.76 C11.9850731,2.76 11.9410736,2.7433335 11.8930733,2.71 C11.8450731,2.6766665 11.7857403,2.6400002 11.7150733,2.6 C11.6444063,2.5599998 11.5577405,2.5233335 11.4550733,2.49 C11.3524061,2.4566665 11.2264074,2.44 11.0770733,2.44 C10.8770723,2.44 10.7010741,2.47533298 10.5490733,2.546 C10.3970726,2.61666702 10.2697405,2.718666 10.1670733,2.852 C10.0644061,2.985334 9.98707357,3.14666572 9.93507331,3.336 C9.88307305,3.52533428 9.85707331,3.73733216 9.85707331,3.972 C9.85707331,4.21733456 9.88507303,4.43533238 9.94107331,4.626 C9.99707359,4.81666762 10.0764061,4.97666602 10.1790733,5.106 C10.2817405,5.23533398 10.4057392,5.33399966 10.5510733,5.402 C10.6964074,5.47000034 10.8597391,5.504 11.0410733,5.504 C11.2144075,5.504 11.3570728,5.48333354 11.4690733,5.442 C11.5810739,5.40066646 11.6737396,5.35466692 11.7470733,5.304 C11.820407,5.25333308 11.8817397,5.20733354 11.9310733,5.166 C11.9804069,5.12466646 12.0290731,5.104 12.0770733,5.104 C12.1357403,5.104 12.1810731,5.12666644 12.2130733,5.172 L12.4130733,5.432 C12.3250729,5.54133388 12.2250739,5.63466628 12.1130733,5.712 C12.0010728,5.78933372 11.8804073,5.85399974 11.7510733,5.906 C11.6217393,5.95800026 11.4864074,5.99599988 11.3450733,6.02 C11.2037393,6.04400012 11.0597407,6.056 10.9130733,6.056 C10.6597387,6.056 10.4244077,6.0093338 10.2070733,5.916 C9.98973889,5.8226662 9.80107411,5.68733422 9.64107331,5.51 C9.48107251,5.33266578 9.35574043,5.11466796 9.26507331,4.856 C9.17440619,4.59733204 9.12907331,4.30266832 9.12907331,3.972 C9.12907331,3.67066516 9.17107289,3.39200128 9.25507331,3.136 C9.33907373,2.87999872 9.46173917,2.65933426 9.62307331,2.474 C9.78440745,2.28866574 9.98307213,2.14400052 10.2190733,2.04 C10.4550745,1.93599948 10.7264051,1.884 11.0330733,1.884 C11.3184081,1.884 11.5697389,1.92999954 11.7870733,2.022 C12.0044077,2.11400046 12.1970725,2.24399916 12.3650733,2.412 L12.1770733,2.668 Z"></path>
            </g>
            <path d="M16,2 L16,9" id="Line" stroke="#979797" stroke-width="0.5" stroke-linecap="square"></path>
        </g>
    </g>
</svg>
