<?xml version="1.0" encoding="UTF-8"?>
<svg width="32px" height="32px" viewBox="0 0 32 32" version="1.1" xmlns="http://www.w3.org/2000/svg" xmlns:xlink="http://www.w3.org/1999/xlink">
    <!-- Generator: Sketch 52 (66869) - http://www.bohemiancoding.com/sketch -->
    <title>icon-design</title>
    <desc>Created with Sketch.</desc>
    <g id="icon-design" stroke="none" stroke-width="1" fill="none" fill-rule="evenodd">
        <path d="M23.26,9.86 C23.4200008,10.0200008 23.5,10.2166655 23.5,10.45 C23.5,10.6833345 23.4200008,10.8799992 23.26,11.04 L15.8,18.5 L13.5,16.2 L20.96,8.74 C21.1200008,8.5799992 21.3166655,8.5 21.55,8.5 C21.7833345,8.5 21.9799992,8.5799992 22.14,8.74 L23.26,9.86 Z M11.82,17.68 C12.2600022,17.68 12.6733314,17.7933322 13.06,18.02 C13.4466686,18.2466678 13.7533322,18.5533314 13.98,18.94 C14.2066678,19.3266686 14.32,19.7399978 14.32,20.18 C14.32,20.780003 14.1700015,21.3333308 13.87,21.84 C13.5699985,22.3466692 13.1666692,22.7499985 12.66,23.05 C12.1533308,23.3500015 11.5966697,23.5 10.99,23.5 C10.3833303,23.5 9.7766697,23.3466682 9.17,23.04 C8.5633303,22.7333318 8.0666686,22.3266692 7.68,21.82 C7.9333346,21.82 8.1866654,21.7566673 8.44,21.63 C8.6933346,21.5033327 8.8999992,21.3266678 9.06,21.1 C9.2333342,20.833332 9.32,20.5266684 9.32,20.18 C9.32,19.7399978 9.4333322,19.3266686 9.66,18.94 C9.8866678,18.5533314 10.1933314,18.2466678 10.58,18.02 C10.9666686,17.7933322 11.3799978,17.68 11.82,17.68 Z" id="brush---material" fill="#4A4A4A"></path>
    </g>
</svg>