<?xml version="1.0" encoding="UTF-8"?>
<svg width="32px" height="32px" viewBox="0 0 32 32" version="1.1" xmlns="http://www.w3.org/2000/svg" xmlns:xlink="http://www.w3.org/1999/xlink">
    <!-- Generator: Sketch 49.3 (51167) - http://www.bohemiancoding.com/sketch -->
    <title>icon-add-page</title>
    <desc>Created with Sketch.</desc>
    <defs></defs>
    <g id="icon-add-page" stroke="none" stroke-width="1" fill="none" fill-rule="evenodd">
        <path d="M17.9405553,12.4257813 L23.8982674,12.4257813 L17.9405553,6.4690904 L17.9405553,12.4257813 Z M20.1695815,20.008231 L20.1695815,17.9484598 L17.0314174,17.9484598 L17.0314174,14.8082533 L14.9685826,14.8082533 L14.9685826,17.9484598 L11.8304185,17.9484598 L11.8304185,20.008231 L14.9685826,20.008231 L14.9685826,23.1484375 L17.0314174,23.1484375 L17.0314174,20.008231 L20.1706027,20.008231 L20.1695815,20.008231 Z M18.2466518,5.27734375 L24.9355469,11.7211496 L24.9355469,24.6087612 C24.9355469,25.1785937 24.7088393,25.6738783 24.2564453,26.0935938 C23.8030301,26.5122879 23.2811942,26.7226562 22.6888951,26.7226562 L9.31110491,26.7226562 C8.7188058,26.7226562 8.19696987,26.5133092 7.74355469,26.0935938 C7.29116071,25.6738783 7.06445312,25.1785937 7.06445312,24.6087612 L7.1165346,7.39123884 C7.1165346,6.82140625 7.33405134,6.32612165 7.77010603,5.90640625 C8.20513951,5.48771205 8.7188058,5.27734375 9.31110491,5.27734375 L18.2466518,5.27734375 Z" id="Shape" fill="#4A4A4A" fill-rule="nonzero"></path>
    </g>
</svg>