<?xml version="1.0" encoding="UTF-8"?>
<svg width="32px" height="32px" viewBox="0 0 32 32" version="1.1" xmlns="http://www.w3.org/2000/svg" xmlns:xlink="http://www.w3.org/1999/xlink">
	<g id="icon-view" stroke="none" stroke-width="1" fill="none" fill-rule="evenodd">
		<path d="M17.68,8.5 L23.5,8.5 L23.5,14.32 L21.82,14.32 L21.82,11.36 L13.66,19.52 L12.48,18.34 L20.64,10.18 L17.68,10.18 L17.68,8.5 Z M21.82,21.82 L21.82,16 L23.5,16 L23.5,21.82 C23.5,22.2733356 23.333335,22.666665 23,23 C22.666665,23.333335 22.2733356,23.5 21.82,23.5 L10.18,23.5 C9.713331,23.5 9.3166683,23.333335 8.99,23 C8.6633317,22.666665 8.5,22.2733356 8.5,21.82 L8.5,10.18 C8.5,9.7266644 8.6633317,9.333335 8.99,9 C9.3166683,8.666665 9.713331,8.5 10.18,8.5 L16,8.5 L16,10.18 L10.18,10.18 L10.18,21.82 L21.82,21.82 Z" id="launch---material" fill="#fff">
		</path>
	</g>
</svg>
