<?xml version="1.0" encoding="UTF-8"?>
<svg width="32px" height="32px" viewBox="0 0 32 32" version="1.1" xmlns="http://www.w3.org/2000/svg" xmlns:xlink="http://www.w3.org/1999/xlink">
    <!-- Generator: Sketch 49.3 (51167) - http://www.bohemiancoding.com/sketch -->
    <title>icon-share</title>
    <desc>Created with Sketch.</desc>
    <defs></defs>
    <g id="icon-share" stroke="none" stroke-width="1" fill="none" fill-rule="evenodd">
        <path d="M22.142874,18.5055738 L22.142874,21.1071394 C22.142874,22.7042395 20.8471135,24 19.2500134,24 L10.8928606,24 C9.29576047,24 8,22.7042395 8,21.1071394 L8,12.7499866 C8,11.1528865 9.29576047,9.857126 10.8928606,9.857126 L13.4542476,9.857126 C13.6250067,9.857126 13.7756765,9.99775117 13.7756765,10.178555 C13.7756765,10.3392694 13.6651853,10.4698499 13.5145155,10.4999839 C13.0122828,10.670743 12.5602733,10.8716361 12.1785764,11.1026632 C12.1283531,11.1227525 12.0781299,11.1428418 12.0178619,11.1428418 L10.8928606,11.1428418 C10.008931,11.1428418 9.28571582,11.866057 9.28571582,12.7499866 L9.28571582,21.1071394 C9.28571582,21.991069 10.008931,22.7142842 10.8928606,22.7142842 L19.2500134,22.7142842 C20.133943,22.7142842 20.8571582,21.991069 20.8571582,21.1071394 L20.8571582,18.9575833 C20.8571582,18.8370474 20.9274708,18.7265562 21.037962,18.6662883 C21.2388551,18.5758864 21.4196589,18.4453059 21.5803733,18.2946361 C21.6707752,18.2042342 21.8114004,18.1640555 21.9319363,18.2142788 C22.0524721,18.2645021 22.142874,18.3749933 22.142874,18.5055738 Z M24.5234572,13.523425 L20.6663097,17.3805725 C20.5457739,17.511153 20.3850594,17.5714209 20.2143003,17.5714209 C20.133943,17.5714209 20.0435411,17.5513316 19.9631839,17.5211976 C19.7321568,17.4207511 19.5714424,17.189724 19.5714424,16.928563 L19.5714424,14.9999893 L17.9642976,14.9999893 C15.7544735,14.9999893 14.3482219,15.4218648 13.5647388,16.3158391 C12.7511217,17.249992 12.51005,18.7566902 12.8214343,21.0669608 C12.8415236,21.207586 12.7511217,21.3482111 12.6205412,21.4084791 C12.5803626,21.4185237 12.540184,21.4285684 12.5000054,21.4285684 C12.3995588,21.4285684 12.2991123,21.3783451 12.2388443,21.2979879 C12.1685318,21.1975413 10.5714316,18.937494 10.5714316,16.928563 C10.5714316,14.2365955 11.4151826,11.1428418 17.9642976,11.1428418 L19.5714424,11.1428418 L19.5714424,9.21426809 C19.5714424,8.95310706 19.7321568,8.72208 19.9631839,8.62163345 C20.0435411,8.59149949 20.133943,8.57141018 20.2143003,8.57141018 C20.3850594,8.57141018 20.5457739,8.64172276 20.6663097,8.76225862 L24.5234572,12.6194061 C24.7745736,12.8705224 24.7745736,13.2723086 24.5234572,13.523425 Z" id="share-square-o---FontAwesome" fill="#4A4A4A"></path>
    </g>
</svg>