<?xml version="1.0" encoding="UTF-8"?>
<svg width="32px" height="32px" viewBox="0 0 32 32" version="1.1" xmlns="http://www.w3.org/2000/svg" xmlns:xlink="http://www.w3.org/1999/xlink">
    <!-- Generator: Sketch 49.3 (51167) - http://www.bohemiancoding.com/sketch -->
    <title>icon-preview</title>
    <desc>Created with Sketch.</desc>
    <defs></defs>
    <g id="icon-preview" stroke="none" stroke-width="1" fill="none" fill-rule="evenodd">
        <path d="M16,10.0869565 C12.1363636,10.0869565 8.83681818,12.6503505 7.5,16.2687747 C8.83681818,19.887199 12.1363636,22.4505929 16,22.4505929 C19.8636364,22.4505929 23.1631818,19.887199 24.5,16.2687747 C23.1631818,12.6503505 19.8636364,10.0869565 16,10.0869565 Z M16,20.1324111 C13.8672727,20.1324111 12.1363636,18.401502 12.1363636,16.2687747 C12.1363636,14.1360474 13.8672727,12.4051383 16,12.4051383 C18.1327273,12.4051383 19.8636364,14.1360474 19.8636364,16.2687747 C19.8636364,18.401502 18.1327273,20.1324111 16,20.1324111 Z M16,13.9505929 C14.7172727,13.9505929 13.6818182,14.9860474 13.6818182,16.2687747 C13.6818182,17.551502 14.7172727,18.5869565 16,18.5869565 C17.2827273,18.5869565 18.3181818,17.551502 18.3181818,16.2687747 C18.3181818,14.9860474 17.2827273,13.9505929 16,13.9505929 Z" id="Shape" fill="#FFFFFF" fill-rule="nonzero"></path>
    </g>
</svg>