<?xml version="1.0" encoding="UTF-8"?>
<svg width="32px" height="32px" viewBox="0 0 32 32" version="1.1" xmlns="http://www.w3.org/2000/svg" xmlns:xlink="http://www.w3.org/1999/xlink">
    <!-- Generator: Sketch 52.6 (67491) - http://www.bohemiancoding.com/sketch -->
    <title>icon-questionnaire</title>
    <desc>Created with Sketch.</desc>
    <g id="icon-questionnaire" stroke="none" stroke-width="1" fill="none" fill-rule="evenodd">
        <path d="M21.8566794,13.0760113 L21.8654863,13.0848182 L21.8654863,21.8654863 C21.8654863,22.2635452 21.7191433,22.603061 21.4264529,22.8840438 C21.1337625,23.1650265 20.788393,23.3055158 20.390334,23.3055158 L11.609666,23.3055158 C11.211607,23.3055158 10.8662375,23.1650265 10.5735471,22.8840438 C10.2808567,22.603061 10.1345137,22.2635452 10.1345137,21.8654863 L10.1433206,18.9239887 L10.1345137,18.9151818 L10.1345137,10.1345137 C10.1345137,9.7364548 10.2808567,9.39693903 10.5735471,9.11595625 C10.8662375,8.83497346 11.211607,8.69448418 11.609666,8.69448418 L20.390334,8.69448418 C20.788393,8.69448418 21.1337625,8.83497346 21.4264529,9.11595625 C21.7191433,9.39693903 21.8654863,9.7364548 21.8654863,10.1345137 L21.8566794,13.0760113 Z" id="Path" fill="#4A4A4A"></path>
        <path d="M14.5410665,6.92963955 C14.7946427,6.3717327 15.356758,5.99047852 16,5.99047852 C16.643242,5.99047852 17.2053573,6.3717327 17.4589335,6.92963955 L19.5,6.92963955 L19.5,10.4593288 L12.5,10.4593288 L12.5,6.92963955 L13,6.92963955 L14.5410665,6.92963955 Z" id="Path" stroke="#FFFFFF" fill="#4A4A4A"></path>
        <g id="Group" transform="translate(11.000000, 13.000000)" fill="#FFFFFF">
            <polygon id="Path" points="2.77274209 0.571485156 8.99627615 0.571485156 8.99627615 1.46665101 2.77274209 1.46665101"></polygon>
            <polygon id="Path" points="2.77274209 5.02600098 2.77274209 4.13083512 8.99627615 4.13083512 8.99627615 5.02600098"></polygon>
            <polygon id="Path" points="2.77274209 3.23566926 2.77274209 2.36181687 8.99627615 2.36181687 8.99627615 3.23566926"></polygon>
            <polygon id="Path" points="1.00372385 1.46665101 1.00372385 0.571485156 1.8988897 0.571485156 1.8988897 1.46665101"></polygon>
            <polygon id="Path" points="1.00372385 5.02600098 1.00372385 4.13083512 1.8988897 4.13083512 1.8988897 5.02600098"></polygon>
            <polygon id="Path" points="1.00372385 3.23566926 1.00372385 2.36181687 1.8988897 2.36181687 1.8988897 3.23566926"></polygon>
            <polygon id="Path" points="2.77274209 2.33662187 8.99627615 2.33662187 8.99627615 3.23178773 2.77274209 3.23178773"></polygon>
            <polygon id="Path" points="2.77274209 6.7911377 2.77274209 5.89597184 8.99627615 5.89597184 8.99627615 6.7911377"></polygon>
            <polygon id="Path" points="2.77274209 5.00080598 2.77274209 4.12695359 8.99627615 4.12695359 8.99627615 5.00080598"></polygon>
            <polygon id="Path" points="1.00372385 3.23178773 1.00372385 2.33662187 1.8988897 2.33662187 1.8988897 3.23178773"></polygon>
            <polygon id="Path" points="1.00372385 6.7911377 1.00372385 5.89597184 1.8988897 5.89597184 1.8988897 6.7911377"></polygon>
            <polygon id="Path" points="1.00372385 5.00080598 1.00372385 4.12695359 1.8988897 4.12695359 1.8988897 5.00080598"></polygon>
        </g>
    </g>
</svg>