
<svg width="42px" height="12px" viewBox="0 0 42 12" version="1.1" xmlns="http://www.w3.org/2000/svg" xmlns:xlink="http://www.w3.org/1999/xlink">
    <!-- Generator: Sketch 48 (47235) - http://www.bohemiancoding.com/sketch -->
    <desc>Created with Sketch.</desc>
    <defs></defs>
    <g id="Page-1" stroke="none" stroke-width="1" fill="none" fill-rule="evenodd">
        <g id="currency">
            <rect id="Rectangle-6" stroke="#9B9B9B" x="0.740469" y="0.5" width="40" height="11" rx="1"></rect>
            <path d="M3.216,5.976 C3.216,5.89799961 3.23999976,5.83200027 3.288,5.778 C3.33600024,5.72399973 3.40349957,5.697 3.4905,5.697 L4.0935,5.697 L4.0935,4.5225 C4.0935,4.24049859 4.1339996,3.97575124 4.215,3.72825 C4.29600041,3.48074876 4.41899917,3.26475092 4.584,3.08025 C4.74900082,2.89574908 4.95374878,2.75025053 5.19825,2.64375 C5.44275122,2.53724947 5.72999835,2.484 6.06,2.484 C6.29400117,2.484 6.50249909,2.51324971 6.6855,2.57175 C6.86850092,2.63025029 7.0304993,2.71049949 7.1715,2.8125 C7.31250071,2.91450051 7.43474948,3.03299932 7.53825,3.168 C7.64175052,3.30300067 7.72949964,3.44849922 7.8015,3.6045 L7.4775,3.8115 C7.39949961,3.85050019 7.32675034,3.86700003 7.25925,3.861 C7.19174966,3.85499997 7.1280003,3.81750034 7.068,3.7485 C7.01099971,3.66749959 6.95175031,3.59250034 6.89025,3.5235 C6.82874969,3.45449965 6.75900039,3.39375026 6.681,3.34125 C6.60299961,3.28874974 6.5137505,3.24750015 6.41325,3.2175 C6.3127495,3.18749985 6.19500067,3.1725 6.06,3.1725 C5.87099906,3.1725 5.70525071,3.20399968 5.56275,3.267 C5.42024929,3.33000031 5.30100048,3.41999941 5.205,3.537 C5.10899952,3.65400058 5.03700024,3.79499917 4.989,3.96 C4.94099976,4.12500082 4.917,4.30949898 4.917,4.5135 L4.917,5.697 L6.897,5.697 L6.897,6.021 C6.897,6.07500027 6.87525022,6.12449978 6.83175,6.1695 C6.78824978,6.21450023 6.73200034,6.237 6.663,6.237 L4.917,6.237 L4.917,7.3305 C4.917,7.55550113 4.87425043,7.74974918 4.78875,7.91325 C4.70324957,8.07675082 4.58550075,8.22599933 4.4355,8.361 C4.51950042,8.34599992 4.60499956,8.33325005 4.692,8.32275 C4.77900044,8.31224995 4.86599957,8.307 4.953,8.307 L7.9995,8.307 L7.9995,8.649 C7.9995,8.69100021 7.99125008,8.7322498 7.97475,8.77275 C7.95824992,8.8132502 7.93425016,8.85074983 7.90275,8.88525 C7.87124984,8.91975017 7.83450021,8.94749989 7.7925,8.9685 C7.75049979,8.98950011 7.70250027,9 7.6485,9 L3.3105,9 L3.3105,8.4825 C3.41250051,8.45249985 3.51074953,8.41200026 3.60525,8.361 C3.69975047,8.30999974 3.78299964,8.24625038 3.855,8.16975 C3.92700036,8.09324962 3.98474978,8.00325052 4.02825,7.89975 C4.07175022,7.79624948 4.0935,7.67550069 4.0935,7.5375 L4.0935,6.237 L3.216,6.237 L3.216,5.976 Z" id="£" fill="#9B9B9B"></path>
        </g>
    </g>
</svg>
