<?xml version="1.0" encoding="UTF-8"?>
<svg width="41px" height="13px" viewBox="0 0 41 13" version="1.1" xmlns="http://www.w3.org/2000/svg" xmlns:xlink="http://www.w3.org/1999/xlink">
    <!-- Generator: Sketch 52.4 (67378) - http://www.bohemiancoding.com/sketch -->
    <title>percentage</title>
    <desc>Created with Sketch.</desc>
    <g id="Page-1" stroke="none" stroke-width="1" fill="none" fill-rule="evenodd">
        <g id="percentage" transform="translate(0.500000, 1.326660)">
            <rect id="Rectangle-6" stroke="#9B9B9B" transform="translate(20.000000, 5.500000) rotate(-180.000000) translate(-20.000000, -5.500000) " x="3.55271368e-15" y="0" width="40" height="11" rx="1"></rect>
            <path d="M30,5.32907052e-15 L30,11" id="Line-Copy" stroke="#9B9B9B" stroke-linecap="square" transform="translate(30.000000, 5.500000) rotate(-180.000000) translate(-30.000000, -5.500000) "></path>
            <path d="M34.6025556,4.03082417 C34.6025556,4.23839089 34.5649346,4.42779267 34.4896917,4.59903522 C34.4144488,4.77027776 34.3145588,4.91751819 34.1900188,5.04076093 C34.0654787,5.16400367 33.9208328,5.2593532 33.7560768,5.32681239 C33.5913207,5.39427157 33.4194321,5.42800065 33.2404058,5.42800065 C33.0432174,5.42800065 32.8622479,5.39427157 32.6974918,5.32681239 C32.5327357,5.2593532 32.3900357,5.16400367 32.2693876,5.04076093 C32.1487394,4.91751819 32.0546872,4.77027776 31.987228,4.59903522 C31.9197688,4.42779267 31.8860397,4.23839089 31.8860397,4.03082417 C31.8860397,3.8154737 31.9197688,3.62023418 31.987228,3.44509976 C32.0546872,3.26996534 32.1487394,3.12013037 32.2693876,2.99559033 C32.3900357,2.8710503 32.5327357,2.7744035 32.6974918,2.70564702 C32.8622479,2.63689055 33.0432174,2.60251283 33.2404058,2.60251283 C33.4375942,2.60251283 33.6198609,2.63689055 33.7872116,2.70564702 C33.9545623,2.7744035 34.0985595,2.8710503 34.2192077,2.99559033 C34.3398558,3.12013037 34.4339081,3.26996534 34.5013673,3.44509976 C34.5688265,3.62023418 34.6025556,3.8154737 34.6025556,4.03082417 Z M33.6762937,4.03082417 C33.6762937,3.89850038 33.6652669,3.78888086 33.6432129,3.70196229 C33.621159,3.61504373 33.5906731,3.54563965 33.5517543,3.49374797 C33.5128355,3.44185629 33.4667824,3.40553266 33.4135934,3.38477599 C33.3604044,3.36401931 33.3026758,3.35364113 33.2404058,3.35364113 C33.1781358,3.35364113 33.1210558,3.36401931 33.0691641,3.38477599 C33.0172724,3.40553266 32.9731651,3.44185629 32.936841,3.49374797 C32.9005168,3.54563965 32.8719768,3.61504373 32.8512201,3.70196229 C32.8304635,3.78888086 32.8200853,3.89850038 32.8200853,4.03082417 C32.8200853,4.1553642 32.8304635,4.259146 32.8512201,4.34217269 C32.8719768,4.42519938 32.9005168,4.49136027 32.936841,4.54065737 C32.9731651,4.58995447 33.0172724,4.62498082 33.0691641,4.6457375 C33.1210558,4.66649417 33.1781358,4.67687235 33.2404058,4.67687235 C33.3026758,4.67687235 33.3604044,4.66649417 33.4135934,4.6457375 C33.4667824,4.62498082 33.5128355,4.58995447 33.5517543,4.54065737 C33.5906731,4.49136027 33.621159,4.42519938 33.6432129,4.34217269 C33.6652669,4.259146 33.6762937,4.1553642 33.6762937,4.03082417 Z M36.3850258,2.83602422 C36.4239446,2.79191629 36.4719437,2.75105221 36.5290245,2.71343074 C36.5861054,2.67580927 36.665239,2.65699882 36.7664278,2.65699882 L37.6459873,2.65699882 L33.3727289,8.15619207 C33.3338101,8.20548916 33.2851624,8.24635325 33.2267843,8.27878555 C33.1684061,8.31121785 33.0977048,8.32743376 33.0146781,8.32743376 L32.1117674,8.32743376 L36.3850258,2.83602422 Z M37.8639313,6.99641883 C37.8639313,7.20398555 37.8263104,7.39403597 37.7510675,7.56657581 C37.6758245,7.73911564 37.5759345,7.88700471 37.4513945,8.01024745 C37.3268545,8.13349019 37.1822086,8.22883972 37.0174525,8.2962989 C36.8526964,8.36375809 36.6808078,8.39748717 36.5017815,8.39748717 C36.3045931,8.39748717 36.1236236,8.36375809 35.9588675,8.2962989 C35.7941115,8.22883972 35.6514115,8.13349019 35.5307633,8.01024745 C35.4101152,7.88700471 35.3160629,7.73911564 35.2486037,7.56657581 C35.1811445,7.39403597 35.1474155,7.20398555 35.1474155,6.99641883 C35.1474155,6.78106836 35.1811445,6.58582884 35.2486037,6.41069442 C35.3160629,6.23556001 35.4101152,6.08572503 35.5307633,5.961185 C35.6514115,5.83664497 35.7941115,5.73999816 35.9588675,5.67124169 C36.1236236,5.60248521 36.3045931,5.56810749 36.5017815,5.56810749 C36.6989699,5.56810749 36.8812367,5.60248521 37.0485874,5.67124169 C37.215938,5.73999816 37.3599353,5.83664497 37.4805834,5.961185 C37.6012316,6.08572503 37.6952839,6.23556001 37.762743,6.41069442 C37.8302022,6.58582884 37.8639313,6.78106836 37.8639313,6.99641883 Z M36.9376695,6.99641883 C36.9376695,6.86668963 36.9266426,6.75836737 36.9045887,6.67144881 C36.8825347,6.58453025 36.8520488,6.51512617 36.8131301,6.46323449 C36.7742113,6.41134281 36.7281581,6.37501918 36.6749691,6.3542625 C36.6217802,6.33350583 36.5640515,6.32312765 36.5017815,6.32312765 C36.4395115,6.32312765 36.3824315,6.33350583 36.3305398,6.3542625 C36.2786482,6.37501918 36.2345409,6.41134281 36.1982167,6.46323449 C36.1618925,6.51512617 36.1333526,6.58453025 36.1125959,6.67144881 C36.0918392,6.75836737 36.081461,6.86668963 36.081461,6.99641883 C36.081461,7.12095886 36.0918392,7.22474066 36.1125959,7.30776735 C36.1333526,7.39079404 36.1618925,7.45695494 36.1982167,7.50625203 C36.2345409,7.55554913 36.2786482,7.59057549 36.3305398,7.61133216 C36.3824315,7.63208883 36.4395115,7.64246701 36.5017815,7.64246701 C36.5640515,7.64246701 36.6217802,7.63208883 36.6749691,7.61133216 C36.7281581,7.59057549 36.7742113,7.55554913 36.8131301,7.50625203 C36.8520488,7.45695494 36.8825347,7.39079404 36.9045887,7.30776735 C36.9266426,7.22474066 36.9376695,7.12095886 36.9376695,6.99641883 Z" id="%" fill="#9B9B9B"></path>
        </g>
    </g>
</svg>