<?xml version="1.0" encoding="UTF-8"?>
<svg width="20px" height="20px" viewBox="0 0 20 20" version="1.1" xmlns="http://www.w3.org/2000/svg" xmlns:xlink="http://www.w3.org/1999/xlink">
    <!-- Generator: Sketch 53.2 (72643) - https://sketchapp.com -->
    <title>Artboard</title>
    <desc>Created with Sketch.</desc>
    <g id="Artboard" stroke="none" stroke-width="1" fill="none" fill-rule="evenodd">
        <g id="Group-10" transform="translate(3.000000, 3.000000)">
            <g id="Group-11">
                <circle id="Oval" stroke="#999999" cx="7.00024414" cy="7.00024414" r="7.00024414"></circle>
                <path d="M9.29924414,4.70124414 C9.70991286,4.70124414 10.0912424,4.80390978 10.4432441,5.00924414 C10.7952459,5.2145785 11.0720765,5.49324238 11.2737441,5.84524414 C11.4754118,6.1972459 11.5762441,6.58224205 11.5762441,7.00024414 C11.5762441,7.41824623 11.4754118,7.80324238 11.2737441,8.15524414 C11.0720765,8.5072459 10.7952459,8.78590978 10.4432441,8.99124414 C10.0912424,9.1965785 9.70991286,9.29924414 9.29924414,9.29924414 L7.45124414,9.29924414 L7.45124414,8.41924414 L9.29924414,8.41924414 C9.54857872,8.41924414 9.78324304,8.35507812 10.0032441,8.22674414 C10.2232452,8.09841017 10.3974102,7.92424524 10.5257441,7.70424414 C10.6540781,7.48424304 10.7182441,7.24957872 10.7182441,7.00024414 C10.7182441,6.75090956 10.6540781,6.51624524 10.5257441,6.29624414 C10.3974102,6.07624304 10.2232452,5.90207812 10.0032441,5.77374414 C9.78324304,5.64541017 9.54857872,5.58124414 9.29924414,5.58124414 L7.45124414,5.58124414 L7.45124414,4.70124414 L9.29924414,4.70124414 Z M5.17424414,7.45124414 L5.17424414,6.54924414 L8.82624414,6.54924414 L8.82624414,7.45124414 L5.17424414,7.45124414 Z M3.28224414,7.00024414 C3.28224414,7.24957872 3.34641017,7.48424304 3.47474414,7.70424414 C3.60307812,7.92424524 3.77724304,8.09841017 3.99724414,8.22674414 C4.21724524,8.35507812 4.45190956,8.41924414 4.70124414,8.41924414 L6.54924414,8.41924414 L6.54924414,9.29924414 L4.70124414,9.29924414 C4.29057542,9.29924414 3.9092459,9.1965785 3.55724414,8.99124414 C3.20524238,8.78590978 2.92841182,8.5072459 2.72674414,8.15524414 C2.52507647,7.80324238 2.42424414,7.41824623 2.42424414,7.00024414 C2.42424414,6.58224205 2.52507647,6.1972459 2.72674414,5.84524414 C2.92841182,5.49324238 3.20524238,5.2145785 3.55724414,5.00924414 C3.9092459,4.80390978 4.29057542,4.70124414 4.70124414,4.70124414 L6.54924414,4.70124414 L6.54924414,5.58124414 L4.70124414,5.58124414 C4.45190956,5.58124414 4.21724524,5.64541017 3.99724414,5.77374414 C3.77724304,5.90207812 3.60307812,6.07624304 3.47474414,6.29624414 C3.34641017,6.51624524 3.28224414,6.75090956 3.28224414,7.00024414 Z" id="" fill="#999999" fill-rule="nonzero"></path>
            </g>
        </g>
    </g>
</svg>