<?xml version="1.0" encoding="UTF-8"?>
<svg width="32px" height="32px" viewBox="0 0 32 32" version="1.1" xmlns="http://www.w3.org/2000/svg" xmlns:xlink="http://www.w3.org/1999/xlink">
	<g id="icon-section" stroke="none" stroke-width="1" fill="none" fill-rule="evenodd">
		<path d="M22.68,21 L22.68,12.68 L9.32,12.68 L9.32,21 L22.68,21 Z M22.68,11 C23.1333356,11 23.5199984,11.166665 23.84,11.5 C24.1600016,11.833335 24.32,12.2266644 24.32,12.68 L24.32,21 C24.32,21.4533356 24.1600016,21.846665 23.84,22.18 C23.5199984,22.513335 23.1333356,22.68 22.68,22.68 L9.32,22.68 C8.8666644,22.68 8.4800016,22.513335 8.16,22.18 C7.8399984,21.846665 7.68,21.4533356 7.68,21 L7.68,11 C7.68,10.5466644 7.8399984,10.153335 8.16,9.82 C8.4800016,9.486665 8.8666644,9.32 9.32,9.32 L14.32,9.32 L16,11 L22.68,11 Z" fill="#fff">
		</path>
	</g>
</svg>
