<?xml version="1.0" encoding="UTF-8"?>
<svg width="32px" height="32px" viewBox="0 -6 20 32" version="1.1" xmlns="http://www.w3.org/2000/svg" xmlns:xlink="http://www.w3.org/1999/xlink">
    <!-- Generator: Sketch 51.2 (57519) - http://www.bohemiancoding.com/sketch -->
    <desc>Created with Sketch.</desc>
    <defs></defs>
    <g id="icon-metadata" stroke="none" stroke-width="1" fill="none" fill-rule="evenodd">
        <g id="icon-metadata" fill="#FFFFFF">
            <path d="M10,9 C12.3515625,9 14.7109375,8.578125 16,7.671875 L16,9 C16,10.1015625 13.3125,11 10,11 C6.6875,11 4,10.1015625 4,9 L4,7.671875 C5.2890625,8.578125 7.6484375,9 10,9 Z M10,15 C12.3515625,15 14.7109375,14.578125 16,13.671875 L16,15 C16,16.1015625 13.3125,17 10,17 C6.6875,17 4,16.1015625 4,15 L4,13.671875 C5.2890625,14.578125 7.6484375,15 10,15 Z M10,12 C12.3515625,12 14.7109375,11.578125 16,10.671875 L16,12 C16,13.1015625 13.3125,14 10,14 C6.6875,14 4,13.1015625 4,12 L4,10.671875 C5.2890625,11.578125 7.6484375,12 10,12 Z M10,3 C13.3125,3 16,3.8984375 16,5 L16,6 C16,7.1015625 13.3125,8 10,8 C6.6875,8 4,7.1015625 4,6 L4,5 C4,3.8984375 6.6875,3 10,3 Z" id="database---FontAwesome"></path>
        </g>
    </g>
</svg>