<svg width="76px" height="75px" viewBox="0 0 76 75" version="1.1" xmlns="http://www.w3.org/2000/svg" xmlns:xlink="http://www.w3.org/1999/xlink">
    <!-- Generator: Sketch 50.2 (55047) - http://www.bohemiancoding.com/sketch -->
    <desc>Created with Sketch.</desc>
    <defs></defs>
    <g id="Empty-&amp;-Loading-states" stroke="none" stroke-width="1" fill="none" fill-rule="evenodd">
        <g id="Page-error" transform="translate(-615.000000, -305.000000)" fill="#CCCCCC">
            <g id="Group-3" transform="translate(615.000000, 305.000000)">
                <path d="M40.05,29.25 L51.6,29.25 L40.05,17.8 L40.05,29.25 Z M25.5,14.7 L42.2,14.7 L54.7,27.2 L54.7,52.2 C54.7,53.333339 54.2833375,54.299996 53.45,55.1 C52.6166625,55.900004 51.633339,56.3 50.5,56.3 L25.5,56.3 C24.366661,56.3 23.3833375,55.900004 22.55,55.1 C21.7166625,54.299996 21.3,53.333339 21.3,52.2 L21.4,18.8 C21.4,17.666661 21.799996,16.700004 22.6,15.9 C23.400004,15.099996 24.366661,14.7 25.5,14.7 Z" id=""></path>
                <path d="M38,67.56 C43.400027,67.56 48.4399766,66.1800138 53.12,63.42 C57.6800228,60.7799868 61.2799868,57.1800228 63.92,52.62 C66.6800138,47.9399766 68.06,42.900027 68.06,37.5 C68.06,34.1999835 67.4900057,30.9600159 66.35,27.78 C65.2099943,24.5999841 63.6200102,21.6900132 61.58,19.05 L19.55,61.08 C22.2500135,63.1200102 25.1749842,64.7099943 28.325,65.85 C31.4750158,66.9900057 34.6999835,67.56 38,67.56 Z M7.94,37.5 C7.94,40.8000165 8.5099943,44.0249842 9.65,47.175 C10.7900057,50.3250157 12.3799898,53.2499865 14.42,55.95 L56.45,13.92 C53.8099868,11.8799898 50.9000159,10.2900057 47.72,9.15 C44.5399841,8.0099943 41.3000165,7.44 38,7.44 C32.599973,7.44 27.5600234,8.8199862 22.88,11.58 C18.3199772,14.2200132 14.7200132,17.8199772 12.08,22.38 C9.3199862,27.0600234 7.94,32.099973 7.94,37.5 Z M38,0.06 C44.7800339,0.06 51.0799709,1.7699829 56.9,5.19 C62.5400282,8.4900165 67.0099835,12.9599718 70.31,18.6 C73.7300171,24.4200291 75.44,30.7199661 75.44,37.5 C75.44,44.2800339 73.7300171,50.5799709 70.31,56.4 C67.0099835,62.0400282 62.5400282,66.5099835 56.9,69.81 C51.0799709,73.2300171 44.7800339,74.94 38,74.94 C31.2199661,74.94 24.9200291,73.2300171 19.1,69.81 C13.4599718,66.4499832 8.9900165,61.9500282 5.69,56.31 C2.2699829,50.4899709 0.56,44.2200336 0.56,37.5 C0.56,30.7799664 2.2699829,24.5100291 5.69,18.69 C9.0500168,13.0499718 13.5499718,8.5500168 19.19,5.19 C25.0100291,1.7699829 31.2799664,0.06 38,0.06 Z" id="do_not_disturb_alt---material"></path>
            </g>
        </g>
    </g>
</svg>