<svg width="12" height="14" viewBox="0 0 12 14" fill="none" xmlns="http://www.w3.org/2000/svg">
<path d="M1.6665 13.6666C1.39984 13.6666 1.1665 13.5666 0.966504 13.3666C0.766504 13.1666 0.666504 12.9333 0.666504 12.6666V1.33331C0.666504 1.06665 0.766504 0.833313 0.966504 0.633313C1.1665 0.433313 1.39984 0.333313 1.6665 0.333313H7.2665C7.39984 0.333313 7.53317 0.366646 7.6665 0.39998C7.79984 0.433313 7.89984 0.533313 7.99984 0.633313L11.0332 3.66665C11.1332 3.76665 11.1998 3.86665 11.2665 3.99998C11.3332 4.13331 11.3332 4.26665 11.3332 4.39998V12.6666C11.3332 12.9333 11.2332 13.1666 11.0332 13.3666C10.8332 13.5666 10.5998 13.6666 10.3332 13.6666H1.6665Z" fill="white"/>
<path d="M6.16667 9.875C6.08333 9.79167 6.04167 9.66667 6.04167 9.54167C6.04167 9.41667 6.08333 9.29167 6.16667 9.20833L7.41667 7.95833H2.45833C2.33333 7.95833 2.20833 7.91667 2.125 7.83333C2.04167 7.75 2 7.625 2 7.5C2 7.375 2.04167 7.25 2.125 7.16667C2.20833 7.08333 2.33333 7.04167 2.45833 7.04167H7.375L6.125 5.79167C6.04167 5.70833 6 5.58333 6 5.45833C6 5.33333 6.04167 5.20833 6.125 5.125C6.20833 5.04167 6.33333 5 6.45833 5C6.58333 5 6.70833 5.04167 6.79167 5.125L8.83333 7.16667C8.875 7.20833 8.91667 7.25 8.95833 7.33333C8.95833 7.375 9 7.45833 9 7.5C9 7.54167 9 7.625 8.95833 7.66667C8.95833 7.70833 8.91667 7.75 8.83333 7.83333L6.79167 9.875C6.70833 9.95833 6.58333 10 6.45833 10C6.375 10 6.29167 9.95833 6.16667 9.875Z" fill="#333333"/>
</svg>
