<?xml version="1.0" encoding="UTF-8"?>
<svg width="48px" height="48px" viewBox="0 0 48 48" version="1.1" xmlns="http://www.w3.org/2000/svg" xmlns:xlink="http://www.w3.org/1999/xlink">
    <!-- Generator: Sketch 52.6 (67491) - http://www.bohemiancoding.com/sketch -->
    <title>icon-questionnaire</title>
    <desc>Created with Sketch.</desc>
    <g id="icon-questionnaire" stroke="none" stroke-width="1" fill="none" fill-rule="evenodd">
        <path d="M14.4142298,8.34364519 L14.4142298,13.2762677 L32.4142298,13.2762677 L32.4142298,8.34364519 L33.8544056,8.34364519 C34.8009863,8.34364519 35.6222719,8.67772747 36.3182871,9.34590206 C37.0143023,10.0140767 37.3623047,10.8214422 37.3623047,11.7680228 L37.341362,18.7628783 L37.3623047,18.783821 L37.3623047,39.6641726 C37.3623047,40.6107532 37.0143023,41.4181187 36.3182871,42.0862933 C35.6222719,42.7544679 34.8009863,43.0885502 33.8544056,43.0885502 L12.974054,43.0885502 C12.0274734,43.0885502 11.2061878,42.7544679 10.5101726,42.0862933 C9.81415736,41.4181187 9.46615498,40.6107532 9.46615498,39.6641726 L9.48709766,32.6693171 L9.46615498,32.6483744 L9.46615498,11.7680228 C9.46615498,10.8214422 9.81415736,10.0140767 10.5101726,9.34590206 C11.2061878,8.67772747 12.0274734,8.34364519 12.974054,8.34364519 L14.4142298,8.34364519 Z M19.6393808,20.8253222 L19.6393808,23.7229247 L33.017342,23.7229247 L33.017342,20.8253222 L19.6393808,20.8253222 Z M13.9131664,23.7229247 L16.8107689,23.7229247 L16.8107689,20.8253222 L13.9131664,20.8253222 L13.9131664,23.7229247 Z M19.6393808,26.5389723 L19.6393808,29.4365748 L33.017342,29.4365748 L33.017342,26.5389723 L19.6393808,26.5389723 Z M13.9131664,29.4365748 L16.8107689,29.4365748 L16.8107689,26.5389723 L13.9131664,26.5389723 L13.9131664,29.4365748 Z M19.6393808,35.1627891 L33.017342,35.1627891 L33.017342,32.3341772 L19.6393808,32.3341772 L19.6393808,35.1627891 Z M13.9131664,35.1627891 L16.8107689,35.1627891 L16.8107689,32.3341772 L13.9131664,32.3341772 L13.9131664,35.1627891 Z" id="Shape" fill="#6F777B"></path>
        <path d="M20.8220889,5.33585576 C21.0092562,4.07218172 22.0985069,3.10253906 23.4142298,3.10253906 C24.7299528,3.10253906 25.8192035,4.07218172 26.0063708,5.33585576 L30.5482035,5.33585576 L30.5482035,11.3514346 L16.2802562,11.3514346 L16.2802562,5.33585576 L20.8220889,5.33585576 Z" id="Path" fill="#6F777B"></path>
    </g>
</svg>