<?xml version="1.0" encoding="utf-8"?>

<!-- Generator: Adobe Illustrator 26.0.3, SVG Export Plug-In . SVG Version: 6.00 Build 0)  -->
<svg width="32px" height="32px" version="1.1" id="Layer_1" xmlns="http://www.w3.org/2000/svg" xmlns:xlink="http://www.w3.org/1999/xlink" x="0px" y="0px"
     viewBox="0 0 32 32" >

    <g transform="translate(5.000000, 3.000000)">
        <polygon fill="#707071" points="18.3,7.7 18.3,5.7 14.8,5.7 13.8,4.7 9.2,4.7 12.1,7.7    "/>
        <polygon fill="#707071"  points="17.3,8.7 13.1,8.7 17.3,13  "/>
        <path fill="#707071" d="M17.3,15.7l-6.8-7l-1-1l-1.9-2L3.3,1.3L1.9,2.7l2.9,3H4.3v2h2.4l1,1H5.3v12c0,1.1,0.9,2,2,2h8c1.1,0,2-0.9,2-2v-2.1
            l3.4,3.5l1.4-1.4L17.3,15.7z"/>
    </g>
</svg>
