<?xml version="1.0" encoding="UTF-8"?>
<svg viewBox="0 0 32 32" version="1.1" xmlns="http://www.w3.org/2000/svg" xmlns:xlink="http://www.w3.org/1999/xlink">
    <!-- Generator: Sketch 64 (93537) - https://sketch.com -->
    <title>Section_Icon</title>
    <desc>Created with Sketch.</desc>
    <g id="Sections-Survey-q-codes" stroke="none" stroke-width="1" fill="none" fill-rule="evenodd">
        <g id="1.2---Content-page" transform="translate(0.000000, 0.000000)" fill="#888888" fill-rule="nonzero">
            <g id="settings_input_component-24px-(1)" transform="translate(9.000000, 9.000000)">
                <path d="M12.7251462,1.51578947 L9.40070175,1.51578947 C9.06666667,0.636631579 8.19181287,-5.55111512e-17 7.15789474,-5.55111512e-17 C6.1239766,-5.55111512e-17 5.24912281,0.636631579 4.91508772,1.51578947 L1.59064327,1.51578947 C0.715789474,1.51578947 0,2.19789474 0,3.03157895 L0,13.6421053 C0,14.4757895 0.715789474,15.1578947 1.59064327,15.1578947 L12.7251462,15.1578947 C13.6,15.1578947 14.3157895,14.4757895 14.3157895,13.6421053 L14.3157895,3.03157895 C14.3157895,2.19789474 13.6,1.51578947 12.7251462,1.51578947 L12.7251462,1.51578947 Z M7.57894737,1.68421053 C8.04210527,1.68421053 8.42105263,2.06315789 8.42105263,2.52631579 C8.42105263,2.98947368 8.04210527,3.36842105 7.57894737,3.36842105 C7.11578947,3.36842105 6.73684211,2.98947368 6.73684211,2.52631579 C6.73684211,2.06315789 7.11578947,1.68421053 7.57894737,1.68421053 L7.57894737,1.68421053 Z M9.26315789,12.6315789 L3.36842105,12.6315789 L3.36842105,10.9473684 L9.26315789,10.9473684 L9.26315789,12.6315789 L9.26315789,12.6315789 Z M10.9473684,9.26315789 L3.36842105,9.26315789 L3.36842105,7.57894737 L10.9473684,7.57894737 L10.9473684,9.26315789 L10.9473684,9.26315789 Z M10.9473684,6.73684211 L3.36842105,6.73684211 L3.36842105,5.05263158 L10.9473684,5.05263158 L10.9473684,6.73684211 L10.9473684,6.73684211 Z" id="path-1"></path>
            </g>
        </g>
    </g>
</svg>