<?xml version="1.0" encoding="UTF-8"?>
<svg viewBox="0 0 32 32" version="1.1" xmlns="http://www.w3.org/2000/svg" xmlns:xlink="http://www.w3.org/1999/xlink">
   
    <g id="icon-summarypage" stroke="none" stroke-width="1" fill="none" fill-rule="evenodd">
        <path d="M16.7200148,13.804833 L20.7766834,13.804833 L16.7200148,9.78328702 L16.7200148,13.804833 Z M11.609666,8.69448418 L17.4751522,8.69448418 L21.8654863,13.0848182 L21.8654863,21.8654863 C21.8654863,22.2635452 21.7191433,22.603061 21.4264529,22.8840438 C21.1337625,23.1650265 20.788393,23.3055158 20.390334,23.3055158 L11.609666,23.3055158 C11.211607,23.3055158 10.8662375,23.1650265 10.5735471,22.8840438 C10.2808567,22.603061 10.1345137,22.2635452 10.1345137,21.8654863 L10.1696364,10.1345137 C10.1696364,9.7364548 10.3101257,9.39693903 10.5911085,9.11595625 C10.8720913,8.83497346 11.211607,8.69448418 11.609666,8.69448418 Z M13.0903477,18.5784842 L13.0903477,19.8664842 L19.2923477,19.8664842 L19.2923477,18.5784842 L13.0903477,18.5784842 Z M13.0903477,16.1144842 L13.0903477,17.3954842 L19.2923477,17.3954842 L19.2923477,16.1144842 L13.0903477,16.1144842 Z" id="Combined-Shape" fill="#4A4A4A"></path>
    </g>
</svg>