<?xml version="1.0" standalone="no"?>
<!DOCTYPE svg PUBLIC "-//W3C//DTD SVG 20010904//EN"
 "http://www.w3.org/TR/2001/REC-SVG-20010904/DTD/svg10.dtd">
<svg version="1.0" xmlns="http://www.w3.org/2000/svg"
 width="734.000000pt" height="778.000000pt" viewBox="0 0 734.000000 778.000000"
 preserveAspectRatio="xMidYMid meet">

<g transform="translate(0.000000,778.000000) scale(0.100000,-0.100000)"
fill="#000000" stroke="none">
<path d="M3711 7504 c-57 -48 -772 -891 -965 -1138 -64 -81 -74 -100 -66 -116
22 -41 46 -45 298 -48 l242 -4 0 -982 0 -982 48 -47 48 -47 438 0 437 0 50 42
49 41 0 988 0 987 248 4 c259 3 284 7 297 49 8 26 -35 82 -340 448 -537 643
-703 831 -736 831 -10 0 -31 -12 -48 -26z"/>
<path d="M1294 5860 c-169 -6 -185 -8 -235 -33 -30 -15 -89 -58 -131 -97 -99
-91 -114 -127 -128 -322 -6 -89 -10 -734 -10 -1698 l0 -1555 47 -80 c56 -96
125 -164 218 -216 l70 -39 536 0 c295 0 678 -3 852 -7 l317 -6 0 -357 0 -357
-512 -6 c-281 -4 -726 -7 -989 -7 -262 0 -484 -3 -493 -6 -14 -5 -16 -42 -16
-304 0 -262 2 -299 16 -304 20 -8 5832 -8 5862 0 l22 6 -2 302 -3 301 -765 6
c-421 3 -879 7 -1017 8 l-253 1 0 358 0 359 323 6 c177 4 560 7 851 7 l528 0
70 37 c97 51 168 119 222 212 l45 79 3 1618 c3 1941 11 1811 -120 1947 -154
158 -83 148 -1184 154 l-888 5 0 -191 0 -191 888 0 887 0 14 -22 c26 -42 30
-240 30 -1565 l1 -1323 -2596 0 -2597 0 6 1403 c6 1401 7 1455 39 1495 8 9
200 12 899 12 l889 0 0 190 0 190 -757 -2 c-417 -1 -839 -4 -939 -8z"/>
</g>
</svg>