<?xml version="1.0" encoding="UTF-8"?>
<svg width="32px" height="32px" viewBox="0 0 32 32" version="1.1" xmlns="http://www.w3.org/2000/svg" xmlns:xlink="http://www.w3.org/1999/xlink">
    <!-- Generator: Sketch 52.6 (67491) - http://www.bohemiancoding.com/sketch -->
    <title>Artboard</title>
    <desc>Created with Sketch.</desc>
    <g id="Artboard" stroke="none" stroke-width="1" fill="none" fill-rule="evenodd">
        <path d="M14.811,12.725 L14.811,10.289 L17.189,10.289 L17.189,12.725 L14.811,12.725 Z M16,26.036 C17.7400087,26.036 19.3639925,25.5913378 20.872,24.702 C22.3413407,23.8513291 23.5013291,22.6913407 24.352,21.222 C25.2413378,19.7139925 25.686,18.0900087 25.686,16.35 C25.686,14.6099913 25.2413378,12.9860075 24.352,11.478 C23.5013291,10.0086593 22.3413407,8.84867092 20.872,7.998 C19.3639925,7.10866222 17.7400087,6.664 16,6.664 C14.2599913,6.664 12.6360075,7.10866222 11.128,7.998 C9.65865932,8.84867092 8.49867092,10.0086593 7.648,11.478 C6.75866222,12.9860075 6.314,14.6099913 6.314,16.35 C6.314,18.0900087 6.75866222,19.7139925 7.648,21.222 C8.49867092,22.6913407 9.65865932,23.8513291 11.128,24.702 C12.6360075,25.5913378 14.2599913,26.036 16,26.036 Z M16,4.286 C18.204011,4.286 20.2436573,4.83699449 22.119,5.939 C23.9363424,6.98300522 25.3669948,8.41365758 26.411,10.231 C27.5130055,12.1063427 28.064,14.145989 28.064,16.35 C28.064,18.554011 27.5130055,20.5936573 26.411,22.469 C25.3669948,24.2863424 23.9363424,25.7169948 22.119,26.761 C20.2436573,27.8630055 18.204011,28.414 16,28.414 C13.795989,28.414 11.7563427,27.8630055 9.881,26.761 C8.06365758,25.6976614 6.63300522,24.2573424 5.589,22.44 C4.48699449,20.5646573 3.936,18.5346776 3.936,16.35 C3.936,14.1653224 4.48699449,12.1353427 5.589,10.26 C6.65233865,8.44265758 8.09265758,7.00233865 9.91,5.939 C11.7853427,4.83699449 13.8153224,4.286 16,4.286 Z M14.811,22.411 L14.811,15.161 L17.189,15.161 L17.189,22.411 L14.811,22.411 Z" id="" fill="#C3C3C3"></path>
    </g>
</svg>