<?xml version="1.0" encoding="UTF-8"?>
<svg xmlns="http://www.w3.org/2000/svg" xmlns:xlink="http://www.w3.org/1999/xlink" width="9px" height="9px" viewBox="-6 -3 32 24" version="1.1">
<g id="surface1">
<path style=" stroke:none;fill-rule:nonzero;fill:rgb(0%,0%,0%);fill-opacity:1;" d="M 13.484375 4.0625 L 13.484375 2.515625 L 5.644531 2.515625 L 5.644531 4.0625 Z M 10.355469 10.355469 L 10.355469 8.773438 L 5.644531 8.773438 L 5.644531 10.355469 Z M 13.484375 7.226562 L 13.484375 5.644531 L 5.644531 5.644531 L 5.644531 7.226562 Z M 14.292969 0.160156 C 14.710938 0.160156 15.074219 0.3125 15.378906 0.621094 C 15.6875 0.929688 15.839844 1.289062 15.839844 1.707031 L 15.839844 11.128906 C 15.839844 11.546875 15.6875 11.914062 15.378906 12.234375 C 15.070312 12.550781 14.710938 12.710938 14.292969 12.710938 L 4.871094 12.710938 C 4.453125 12.710938 4.085938 12.550781 3.769531 12.234375 C 3.449219 11.914062 3.289062 11.546875 3.289062 11.128906 L 3.289062 1.707031 C 3.289062 1.289062 3.449219 0.929688 3.769531 0.621094 C 4.085938 0.3125 4.453125 0.160156 4.871094 0.160156 Z M 1.707031 3.289062 L 1.707031 14.292969 L 12.710938 14.292969 L 12.710938 15.839844 L 1.707031 15.839844 C 1.289062 15.839844 0.925781 15.6875 0.621094 15.378906 C 0.3125 15.070312 0.160156 14.710938 0.160156 14.292969 L 0.160156 3.289062 Z M 1.707031 3.289062 "/>
</g>
</svg>
