<svg width="20px" height="20px" viewBox="6 0 20 20" version="1.1" xmlns="http://www.w3.org/2000/svg" xmlns:xlink="http://www.w3.org/1999/xlink">
    <!-- Generator: Sketch 51.2 (57519) - http://www.bohemiancoding.com/sketch -->
    <desc>Created with Sketch.</desc>
    <defs></defs>
    <g id="Symbols" stroke="none" stroke-width="1" fill="none" fill-rule="evenodd">
        <g id="Icon/info" fill="#222222">
            <g id="info" transform="translate(1.000000, 1.000000)">
                <path d="M9.82,6.5 L9.82,4.82 L8.18,4.82 L8.18,6.5 L9.82,6.5 Z M9.82,13.18 L9.82,8.18 L8.18,8.18 L8.18,13.18 L9.82,13.18 Z M9,0.68 C10.5200076,0.68 11.9266602,1.0599962 13.22,1.82 C14.4733396,2.5400036 15.4599964,3.5266604 16.18,4.78 C16.9400038,6.0733398 17.32,7.4799924 17.32,9 C17.32,10.5200076 16.9400038,11.9266602 16.18,13.22 C15.4599964,14.4733396 14.4733396,15.4599964 13.22,16.18 C11.9266602,16.9400038 10.5200076,17.32 9,17.32 C7.4799924,17.32 6.0733398,16.9400038 4.78,16.18 C3.5266604,15.446663 2.5400036,14.4533396 1.82,13.2 C1.0599962,11.9066602 0.68,10.5066742 0.68,9 C0.68,7.4933258 1.0599962,6.0933398 1.82,4.8 C2.553337,3.5466604 3.5466604,2.553337 4.8,1.82 C6.0933398,1.0599962 7.4933258,0.68 9,0.68 Z"></path>
            </g>
        </g>
    </g>
</svg>