<svg width="29px" height="29px" viewBox="0 0 29 29" version="1.1" xmlns="http://www.w3.org/2000/svg" xmlns:xlink="http://www.w3.org/1999/xlink">
	<!-- Generator: Sketch 49 (51002) - http://www.bohemiancoding.com/sketch -->
	<desc>
		Created with Sketch.
	</desc>
	<defs>
	</defs>
	<g id="Page-1" stroke="none" stroke-width="1" fill="none" fill-rule="evenodd">
		<g id="Artboard" fill="#D0021B">
			<path d="M15.5404203,9.89554113 L15.5404203,7.03909627 L12.751986,7.03909627 L12.751986,9.89554113 L15.5404203,9.89554113 Z M15.5404203,21.25331 L15.5404203,12.751986 L12.751986,12.751986 L12.751986,21.25331 L15.5404203,21.25331 Z M14.1462031,0 C16.7306185,0 19.1223004,0.646094162 21.3213206,1.93830187 C23.4523298,3.16249865 25.1299076,4.84007647 26.3541044,6.97108567 C27.6463121,9.17010581 28.2924063,11.5617877 28.2924063,14.1462031 C28.2924063,16.7306185 27.6463121,19.1223004 26.3541044,21.3213206 C25.1299076,23.4523298 23.4523298,25.1299076 21.3213206,26.3541044 C19.1223004,27.6463121 16.7306185,28.2924063 14.1462031,28.2924063 C11.5617877,28.2924063 9.17010581,27.6463121 6.97108567,26.3541044 C4.84007647,25.1072373 3.16249865,23.4183245 1.93830187,21.2873153 C0.646094162,19.0882951 0,16.7079482 0,14.1462031 C0,11.584458 0.646094162,9.20411111 1.93830187,7.00509097 C3.18516896,4.87408177 4.87408177,3.18516896 7.00509097,1.93830187 C9.20411111,0.646094162 11.584458,0 14.1462031,0 Z" id="info---material">
			</path>
		</g>
	</g>
</svg>
