<?xml version="1.0" encoding="UTF-8"?>
<svg width="32px" height="32px" viewBox="0 0 32 32" version="1.1" xmlns="http://www.w3.org/2000/svg" xmlns:xlink="http://www.w3.org/1999/xlink">
    <!-- Generator: Sketch 53.2 (72643) - https://sketchapp.com -->
    <title>Artboard</title>
    <desc>Created with Sketch.</desc>
    <g id="Artboard" stroke="none" stroke-width="1" fill="none" fill-rule="evenodd">
        <path d="M16,28.8461538 C18.3077038,28.8461538 20.4615285,28.2564162 22.4615385,27.0769231 C24.4102662,25.9487123 25.9487123,24.4102662 27.0769231,22.4615385 C28.2564162,20.4615285 28.8461538,18.3077038 28.8461538,16 C28.8461538,13.6922962 28.2564162,11.5384715 27.0769231,9.53846154 C25.9487123,7.58973385 24.4102662,6.05128769 22.4615385,4.92307692 C20.4615285,3.74358385 18.3077038,3.15384615 16,3.15384615 C13.6922962,3.15384615 11.5384715,3.74358385 9.53846154,4.92307692 C7.58973385,6.05128769 6.05128769,7.58973385 4.92307692,9.53846154 C3.74358385,11.5384715 3.15384615,13.6922962 3.15384615,16 C3.15384615,18.3077038 3.74358385,20.4615285 4.92307692,22.4615385 C6.05128769,24.4102662 7.58973385,25.9487123 9.53846154,27.0769231 C11.5384715,28.2564162 13.6922962,28.8461538 16,28.8461538 Z M16,0 C18.9230915,0 21.6281927,0.730761923 24.1153846,2.19230769 C26.5256531,3.57693 28.42307,5.47434692 29.8076923,7.88461538 C31.2692381,10.3718073 32,13.0769085 32,16 C32,18.9230915 31.2692381,21.6281927 29.8076923,24.1153846 C28.42307,26.5256531 26.5256531,28.42307 24.1153846,29.8076923 C21.6281927,31.2692381 18.9230915,32 16,32 C13.0769085,32 10.3718073,31.2692381 7.88461538,29.8076923 C5.47434692,28.3974288 3.57693,26.4871915 2.19230769,24.0769231 C0.730761923,21.5897312 0,18.8974504 0,16 C0,13.1025496 0.730761923,10.4102688 2.19230769,7.92307692 C3.60257115,5.51280846 5.51280846,3.60257115 7.92307692,2.19230769 C10.4102688,0.730761923 13.1025496,0 16,0 Z M14.4230769,7.96153846 L17.5769231,7.96153846 L17.5769231,17.5769231 L14.4230769,17.5769231 L14.4230769,7.96153846 Z M14.4230769,20.8076923 L17.5769231,20.8076923 L17.5769231,24.0384615 L14.4230769,24.0384615 L14.4230769,20.8076923 Z" id="" fill="#CCCCCC" fill-rule="nonzero"></path>
    </g>
</svg>