<?xml version="1.0" encoding="UTF-8"?>
<svg width="32px" height="32px" viewBox="0 0 32 32" version="1.1" xmlns="http://www.w3.org/2000/svg" xmlns:xlink="http://www.w3.org/1999/xlink">
    <!-- Generator: Sketch 62 (91390) - https://sketch.com -->
    <title>Artboard</title>
    <desc>Created with Sketch.</desc>
    <g id="Artboard" stroke="none" stroke-width="1" fill="none" fill-rule="evenodd">
        <g id="icon-qcode" transform="translate(8.833333, 8.833333)" fill="#000000" fill-rule="nonzero">
            <path d="M2.63157895,0.657894737 C2.63157895,0.296052632 2.33552632,0 1.97368421,0 C1.61184211,0 1.31578947,0.296052632 1.31578947,0.657894737 L1.31578947,3.28947368 L0.657894737,3.28947368 C0.296052632,3.28947368 0,3.58552632 0,3.94736842 L0,7.23684211 L3.94736842,7.23684211 L3.94736842,3.94736842 C3.94736842,3.58552632 3.65131579,3.28947368 3.28947368,3.28947368 L2.63157895,3.28947368 L2.63157895,0.657894737 Z M5.26315789,9.86842105 C5.26315789,10.7236842 5.81578947,11.4473684 6.57894737,11.7236842 L6.57894737,13.8157895 C6.57894737,14.1776316 6.875,14.4736842 7.23684211,14.4736842 C7.59868421,14.4736842 7.89473684,14.1776316 7.89473684,13.8157895 L7.89473684,11.7236842 C8.65789474,11.4539474 9.21052632,10.7302632 9.21052632,9.86842105 L9.21052632,8.55263158 L5.26315789,8.55263158 L5.26315789,9.86842105 Z M0,9.86842105 C0,10.7236842 0.552631579,11.4473684 1.31578947,11.7236842 L1.31578947,13.8157895 C1.31578947,14.1776316 1.61184211,14.4736842 1.97368421,14.4736842 C2.33552632,14.4736842 2.63157895,14.1776316 2.63157895,13.8157895 L2.63157895,11.7236842 C3.39473684,11.4473684 3.94736842,10.7236842 3.94736842,9.86842105 L3.94736842,8.55263158 L0,8.55263158 L0,9.86842105 Z M13.1578947,3.28947368 L13.1578947,0.657894737 C13.1578947,0.296052632 12.8618421,0 12.5,0 C12.1381579,0 11.8421053,0.296052632 11.8421053,0.657894737 L11.8421053,3.28947368 L11.1842105,3.28947368 C10.8223684,3.28947368 10.5263158,3.58552632 10.5263158,3.94736842 L10.5263158,7.23684211 L14.4736842,7.23684211 L14.4736842,3.94736842 C14.4736842,3.58552632 14.1776316,3.28947368 13.8157895,3.28947368 L13.1578947,3.28947368 Z M7.89473684,0.657894737 C7.89473684,0.296052632 7.59868421,0 7.23684211,0 C6.875,0 6.57894737,0.296052632 6.57894737,0.657894737 L6.57894737,3.28947368 L5.92105263,3.28947368 C5.55921053,3.28947368 5.26315789,3.58552632 5.26315789,3.94736842 L5.26315789,7.23684211 L9.21052632,7.23684211 L9.21052632,3.94736842 C9.21052632,3.58552632 8.91447368,3.28947368 8.55263158,3.28947368 L7.89473684,3.28947368 L7.89473684,0.657894737 Z M10.5263158,9.86842105 C10.5263158,10.7236842 11.0789474,11.4473684 11.8421053,11.7236842 L11.8421053,13.8157895 C11.8421053,14.1776316 12.1381579,14.4736842 12.5,14.4736842 C12.8618421,14.4736842 13.1578947,14.1776316 13.1578947,13.8157895 L13.1578947,11.7236842 C13.9210526,11.4539474 14.4736842,10.7302632 14.4736842,9.86842105 L14.4736842,8.55263158 L10.5263158,8.55263158 L10.5263158,9.86842105 Z" id="Shape"></path>
        </g>
    </g>
</svg>