<?xml version="1.0" encoding="UTF-8"?>
<svg width="32px" height="32px" viewBox="0 0 32 32" version="1.1" xmlns="http://www.w3.org/2000/svg" xmlns:xlink="http://www.w3.org/1999/xlink">
    <!-- Generator: Sketch 55.2 (78181) - https://sketchapp.com -->
    <title>icon-share</title>
    <desc>Created with Sketch.</desc>
    <g id="icon-share" stroke="none" stroke-width="1" fill="none" fill-rule="evenodd">
        <g id="Group" transform="translate(7.000000, 9.000000)" fill="#4A4A4A" fill-rule="nonzero">
            <path d="M9.38426379,6.27815367 C9.66050362,6.01163978 9.89954842,5.70793113 10.1014005,5.3670254 C10.4837701,4.72124552 10.6763614,4.01625658 10.6763614,3.25125742 C10.6763614,2.49220675 10.4866396,1.78375633 10.1071107,1.12590625 C9.90314577,0.772367079 9.66107597,0.459423441 9.3812043,0.186769404 C9.72270338,0.0622560607 10.0835702,-8.8817842e-16 10.4638094,-8.8817842e-16 C11.044394,-8.8817842e-16 11.579814,0.14514397 12.0700854,0.43543626 C12.5603568,0.72572855 12.9506328,1.1224554 13.2409251,1.62562871 C13.5312174,2.12880202 13.6763614,2.67067284 13.6763614,3.25125742 C13.6763614,3.83184204 13.5312174,4.36726194 13.2409251,4.85753344 C12.9506328,5.34780484 12.5603568,5.73808084 12.0700854,6.02837314 C11.579814,6.31866544 11.044394,6.46380944 10.4638094,6.46380944 C10.0847056,6.46380944 9.72485853,6.40192458 9.38426379,6.27815367 Z M11.2661316,7.66071194 C11.8406562,7.71158992 12.4505362,7.81550393 13.0957797,7.97245504 C14.1795376,8.24339454 15.0568522,8.60464174 15.72775,9.05620754 C16.5276665,9.58518464 16.9276188,10.1786621 16.9276188,10.836658 L16.9276188,13.4622867 L13.9276188,13.4622867 L13.9276188,10.836658 C13.9276188,9.90187504 13.4540071,8.99888821 12.2793417,8.2220933 C11.9795836,8.02031692 11.6418882,7.83269986 11.2661316,7.66071194 Z" id="Combined-Shape" opacity="0.500883557"></path>
            <path d="M6.4638094,7.62410604 C7.2637259,7.62410604 8.1410406,7.74022124 9.0957797,7.97245504 C10.1795376,8.24339454 11.0568522,8.60464174 11.72775,9.05620754 C12.5276665,9.58518464 12.9276188,10.1786621 12.9276188,10.836658 L12.9276188,13.4622867 L-8.8817842e-16,13.4622867 L-8.8817842e-16,10.836658 C-8.8817842e-16,10.1786621 0.39995227,9.58518464 1.1998688,9.05620754 C1.8707666,8.60464174 2.7480812,8.24339454 3.8318391,7.97245504 C4.7865782,7.74022124 5.6638929,7.62410604 6.4638094,7.62410604 Z" id="-path"></path>
            <path d="M6.4638094,6.46380944 C5.8832248,6.46380944 5.3478048,6.31866544 4.8575334,6.02837314 C4.367262,5.73808084 3.976986,5.34780484 3.6866937,4.85753344 C3.3964014,4.36726194 3.2512574,3.83184204 3.2512574,3.25125742 C3.2512574,2.67067284 3.3964014,2.12880202 3.6866937,1.62562871 C3.976986,1.1224554 4.367262,0.72572855 4.8575334,0.43543626 C5.3478048,0.14514397 5.8832248,-8.8817842e-16 6.4638094,-8.8817842e-16 C7.044394,-8.8817842e-16 7.579814,0.14514397 8.0700854,0.43543626 C8.5603568,0.72572855 8.9506328,1.1224554 9.2409251,1.62562871 C9.5312174,2.12880202 9.6763614,2.67067284 9.6763614,3.25125742 C9.6763614,3.83184204 9.5312174,4.36726194 9.2409251,4.85753344 C8.9506328,5.34780484 8.5603568,5.73808084 8.0700854,6.02837314 C7.579814,6.31866544 7.044394,6.46380944 6.4638094,6.46380944 Z" id="-path"></path>
        </g>
    </g>
</svg>