<?xml version="1.0" encoding="UTF-8"?>
<svg width="32px" height="32px" viewBox="0 0 32 32" version="1.1" xmlns="http://www.w3.org/2000/svg" xmlns:xlink="http://www.w3.org/1999/xlink">
    <!-- Generator: Sketch 49.3 (51167) - http://www.bohemiancoding.com/sketch -->
    <title>icon-add-rule</title>
    <desc>Created with Sketch.</desc>
    <defs></defs>
    <g id="icon-add-rule" stroke="none" stroke-width="1" fill="none" fill-rule="evenodd">
        <path d="M19.8303692,19.5382932 L18.3382254,21.0140398 L22.2275915,21.0140398 L22.2275915,17.167414 L20.976287,18.4049679 L18.0882212,15.5370345 L18.0882212,12.0385797 L16.467652,12.0385797 L16.467652,16.1990172 L19.8303692,19.5382932 Z M13.8736767,18.5218649 L12.5041764,17.167414 L12.5041764,21.0140398 L16.3935424,21.0140398 L15.0195945,19.6551901 L16.9007116,17.7871861 L15.7524754,16.656163 L13.8736767,18.5218649 Z M9.87870601,14.0416673 L12.3463157,14.0416673 L12.3411819,11.3481528 L15.0268078,11.3481528 L15.0268078,8.86494779 L23.3345503,8.86454149 C24.1607186,8.86454149 24.8304603,9.53428321 24.8304603,10.3604515 L24.8304603,22.3277316 C24.8304603,23.1538998 24.1607186,23.8236416 23.3345503,23.8236416 L11.3672702,23.8236416 C10.5411019,23.8236416 9.8713602,23.1538998 9.8713602,22.3277316 L9.87870601,14.0416673 Z" id="Combined-Shape" fill="#4A4A4A" fill-rule="nonzero"></path>
        <polygon id="path-1" fill="#4A4A4A" fill-rule="nonzero" points="11.2084967 8.86899643 13.9011347 8.86899643 13.9011347 10.2153154 11.2084967 10.2153154 11.2084967 12.9079535 9.86217771 12.9079535 9.86217771 10.2153154 7.1695397 10.2153154 7.1695397 8.86899643 9.86217771 8.86899643 9.86217771 6.17635842 11.2084967 6.17635842"></polygon>
    </g>
</svg>